STARTFONT 2.1
COMMENT
COMMENT Converted from OpenType font "c:\windows\fonts\timesbi.ttf" by "otf2bdf 3.0".
COMMENT
FONT -FreeType-Times New Roman-Bold-I-Normal--12-120-72-72-P-68-ISO10646-1
SIZE 12 72 72
FONTBOUNDINGBOX 23 18 -6 -4
STARTPROPERTIES 19
FOUNDRY "FreeType"
FAMILY_NAME "Times New Roman"
WEIGHT_NAME "Bold"
SLANT "I"
SETWIDTH_NAME "Normal"
ADD_STYLE_NAME ""
PIXEL_SIZE 12
POINT_SIZE 120
RESOLUTION_X 72
RESOLUTION_Y 72
SPACING "P"
AVERAGE_WIDTH 68
CHARSET_REGISTRY "ISO10646"
CHARSET_ENCODING "1"
FONT_ASCENT 10
FONT_DESCENT 2
COPYRIGHT "© 2017 The Monotype Corporation. All Rights Reserved.     Hebrew OpenType Layout logic copyright © 2003 & 2007, Ralph Hancock & John Hudson. This layout logic for Biblical Hebrew is open source software under the MIT License; see embedded license description for details."
_OTF_FONTFILE "c:\windows\fonts\timesbi.ttf"
_OTF_PSNAME "TimesNewRomanPS-BoldItalicMT"
ENDPROPERTIES
CHARS 2928
STARTCHAR 0020
ENCODING 32
SWIDTH 250 0
DWIDTH 3 0
BBX 0 0 0 0
BITMAP
ENDCHAR
STARTCHAR 0021
ENCODING 33
SWIDTH 416 0
DWIDTH 5 0
BBX 3 9 1 0
BITMAP
20
20
60
40
40
00
00
80
80
ENDCHAR
STARTCHAR 0022
ENCODING 34
SWIDTH 583 0
DWIDTH 7 0
BBX 5 4 2 4
BITMAP
D8
D0
90
90
ENDCHAR
STARTCHAR 0023
ENCODING 35
SWIDTH 500 0
DWIDTH 6 0
BBX 6 9 0 0
BITMAP
24
28
28
FC
48
FC
50
50
50
ENDCHAR
STARTCHAR 0024
ENCODING 36
SWIDTH 500 0
DWIDTH 6 0
BBX 6 10 0 -1
BITMAP
08
3C
34
70
30
38
18
28
A8
70
ENDCHAR
STARTCHAR 0025
ENCODING 37
SWIDTH 833 0
DWIDTH 10 0
BBX 8 9 1 0
BITMAP
71
52
D4
A4
4A
15
25
45
06
ENDCHAR
STARTCHAR 0026
ENCODING 38
SWIDTH 750 0
DWIDTH 9 0
BBX 7 9 1 0
BITMAP
1C
14
34
38
36
DC
98
CC
FE
ENDCHAR
STARTCHAR 0027
ENCODING 39
SWIDTH 250 0
DWIDTH 3 0
BBX 2 4 2 4
BITMAP
C0
C0
80
80
ENDCHAR
STARTCHAR 0028
ENCODING 40
SWIDTH 333 0
DWIDTH 4 0
BBX 4 11 1 -3
BITMAP
10
20
40
C0
C0
80
80
80
80
80
80
ENDCHAR
STARTCHAR 0029
ENCODING 41
SWIDTH 333 0
DWIDTH 4 0
BBX 4 10 -1 -2
BITMAP
20
10
10
10
10
30
30
20
40
80
ENDCHAR
STARTCHAR 002A
ENCODING 42
SWIDTH 500 0
DWIDTH 6 0
BBX 5 5 1 4
BITMAP
20
E8
30
50
50
ENDCHAR
STARTCHAR 002B
ENCODING 43
SWIDTH 583 0
DWIDTH 7 0
BBX 7 7 0 2
BITMAP
10
10
10
FE
10
10
10
ENDCHAR
STARTCHAR 002C
ENCODING 44
SWIDTH 250 0
DWIDTH 3 0
BBX 2 4 0 -3
BITMAP
C0
C0
40
80
ENDCHAR
STARTCHAR 002D
ENCODING 45
SWIDTH 333 0
DWIDTH 4 0
BBX 4 1 0 3
BITMAP
F0
ENDCHAR
STARTCHAR 002E
ENCODING 46
SWIDTH 250 0
DWIDTH 3 0
BBX 2 2 0 1
BITMAP
C0
C0
ENDCHAR
STARTCHAR 002F
ENCODING 47
SWIDTH 250 0
DWIDTH 3 0
BBX 6 9 -1 0
BITMAP
04
08
08
10
20
20
40
40
80
ENDCHAR
STARTCHAR 0030
ENCODING 48
SWIDTH 500 0
DWIDTH 6 0
BBX 5 9 1 0
BITMAP
30
48
48
D8
D8
90
90
B0
A0
ENDCHAR
STARTCHAR 0031
ENCODING 49
SWIDTH 500 0
DWIDTH 6 0
BBX 4 9 1 0
BITMAP
30
30
30
20
20
60
60
40
C0
ENDCHAR
STARTCHAR 0032
ENCODING 50
SWIDTH 500 0
DWIDTH 6 0
BBX 6 9 0 0
BITMAP
38
0C
0C
08
08
10
20
58
F0
ENDCHAR
STARTCHAR 0033
ENCODING 51
SWIDTH 500 0
DWIDTH 6 0
BBX 6 9 0 0
BITMAP
18
0C
08
10
18
18
18
10
E0
ENDCHAR
STARTCHAR 0034
ENCODING 52
SWIDTH 500 0
DWIDTH 6 0
BBX 6 9 0 0
BITMAP
04
0C
18
28
58
58
F8
10
30
ENDCHAR
STARTCHAR 0035
ENCODING 53
SWIDTH 500 0
DWIDTH 6 0
BBX 5 9 1 0
BITMAP
38
78
40
70
30
10
10
20
C0
ENDCHAR
STARTCHAR 0036
ENCODING 54
SWIDTH 500 0
DWIDTH 6 0
BBX 5 9 1 1
BITMAP
10
20
40
F0
D0
98
90
90
E0
ENDCHAR
STARTCHAR 0037
ENCODING 55
SWIDTH 500 0
DWIDTH 6 0
BBX 6 8 1 -1
BITMAP
7C
78
90
10
20
20
40
40
ENDCHAR
STARTCHAR 0038
ENCODING 56
SWIDTH 500 0
DWIDTH 6 0
BBX 6 9 0 0
BITMAP
18
24
24
38
38
58
C8
48
50
ENDCHAR
STARTCHAR 0039
ENCODING 57
SWIDTH 500 0
DWIDTH 6 0
BBX 5 9 1 -1
BITMAP
70
48
D8
D8
D8
70
30
20
40
ENDCHAR
STARTCHAR 003A
ENCODING 58
SWIDTH 333 0
DWIDTH 4 0
BBX 2 6 1 0
BITMAP
40
40
00
00
80
80
ENDCHAR
STARTCHAR 003B
ENCODING 59
SWIDTH 333 0
DWIDTH 4 0
BBX 2 7 1 -3
BITMAP
40
40
00
00
80
80
80
ENDCHAR
STARTCHAR 003C
ENCODING 60
SWIDTH 583 0
DWIDTH 7 0
BBX 7 6 0 2
BITMAP
06
38
C0
30
0C
02
ENDCHAR
STARTCHAR 003D
ENCODING 61
SWIDTH 583 0
DWIDTH 7 0
BBX 7 3 0 3
BITMAP
FE
00
FE
ENDCHAR
STARTCHAR 003E
ENCODING 62
SWIDTH 583 0
DWIDTH 7 0
BBX 7 7 0 1
BITMAP
80
60
18
06
1C
60
80
ENDCHAR
STARTCHAR 003F
ENCODING 63
SWIDTH 500 0
DWIDTH 6 0
BBX 5 9 1 0
BITMAP
70
58
58
30
20
40
00
C0
C0
ENDCHAR
STARTCHAR 0040
ENCODING 64
SWIDTH 833 0
DWIDTH 10 0
BBX 10 12 0 -3
BITMAP
1F00
2080
4080
8F40
9A40
9240
B680
B680
BF00
8040
4080
3300
ENDCHAR
STARTCHAR 0041
ENCODING 65
SWIDTH 666 0
DWIDTH 8 0
BBX 7 9 0 0
BITMAP
02
06
06
1E
26
3E
46
86
8E
ENDCHAR
STARTCHAR 0042
ENCODING 66
SWIDTH 666 0
DWIDTH 8 0
BBX 7 9 1 0
BITMAP
7C
26
66
6C
70
4C
CC
CC
F8
ENDCHAR
STARTCHAR 0043
ENCODING 67
SWIDTH 666 0
DWIDTH 8 0
BBX 8 9 1 0
BITMAP
1F
20
60
C0
C0
C0
C0
C4
78
ENDCHAR
STARTCHAR 0044
ENCODING 68
SWIDTH 750 0
DWIDTH 9 0
BBX 8 9 0 0
BITMAP
3E
33
33
33
33
63
63
66
F8
ENDCHAR
STARTCHAR 0045
ENCODING 69
SWIDTH 666 0
DWIDTH 8 0
BBX 7 9 1 0
BITMAP
3E
22
62
60
78
C8
C0
C4
FC
ENDCHAR
STARTCHAR 0046
ENCODING 70
SWIDTH 666 0
DWIDTH 8 0
BBX 8 9 1 0
BITMAP
3F
32
20
64
78
60
40
C0
C0
ENDCHAR
STARTCHAR 0047
ENCODING 71
SWIDTH 750 0
DWIDTH 9 0
BBX 8 9 1 0
BITMAP
1F
21
60
C0
CF
C6
C4
CC
6C
ENDCHAR
STARTCHAR 0048
ENCODING 72
SWIDTH 750 0
DWIDTH 9 0
BBX 10 9 0 0
BITMAP
39C0
3180
3180
3100
3F00
6300
6300
6200
E600
ENDCHAR
STARTCHAR 0049
ENCODING 73
SWIDTH 416 0
DWIDTH 5 0
BBX 5 9 0 0
BITMAP
38
30
30
30
30
60
60
60
E0
ENDCHAR
STARTCHAR 004A
ENCODING 74
SWIDTH 500 0
DWIDTH 6 0
BBX 6 9 0 0
BITMAP
0C
0C
0C
18
18
18
10
B0
A0
ENDCHAR
STARTCHAR 004B
ENCODING 75
SWIDTH 666 0
DWIDTH 8 0
BBX 8 9 0 0
BITMAP
3B
32
34
38
38
6C
6C
64
EE
ENDCHAR
STARTCHAR 004C
ENCODING 76
SWIDTH 583 0
DWIDTH 7 0
BBX 7 9 0 0
BITMAP
38
30
30
30
30
60
60
62
FC
ENDCHAR
STARTCHAR 004D
ENCODING 77
SWIDTH 916 0
DWIDTH 11 0
BBX 11 9 0 0
BITMAP
3860
18C0
39C0
5AC0
5AC0
5D80
5980
8980
C380
ENDCHAR
STARTCHAR 004E
ENCODING 78
SWIDTH 750 0
DWIDTH 9 0
BBX 9 9 0 0
BITMAP
3080
1900
3900
4D00
4D00
4600
4600
8200
C200
ENDCHAR
STARTCHAR 004F
ENCODING 79
SWIDTH 750 0
DWIDTH 9 0
BBX 8 9 1 0
BITMAP
1C
22
63
C3
C6
C6
C4
CC
70
ENDCHAR
STARTCHAR 0050
ENCODING 80
SWIDTH 583 0
DWIDTH 7 0
BBX 7 9 1 0
BITMAP
3C
26
66
6C
78
40
C0
C0
C0
ENDCHAR
STARTCHAR 0051
ENCODING 81
SWIDTH 750 0
DWIDTH 9 0
BBX 8 12 1 -3
BITMAP
1C
22
63
C3
C6
C6
C6
CC
D8
20
60
FC
ENDCHAR
STARTCHAR 0052
ENCODING 82
SWIDTH 666 0
DWIDTH 8 0
BBX 7 9 1 0
BITMAP
7C
26
66
6C
78
D8
D8
C8
CC
ENDCHAR
STARTCHAR 0053
ENCODING 83
SWIDTH 583 0
DWIDTH 7 0
BBX 7 9 0 0
BITMAP
3E
22
20
30
18
1C
8C
8C
F8
ENDCHAR
STARTCHAR 0054
ENCODING 84
SWIDTH 583 0
DWIDTH 7 0
BBX 6 9 2 0
BITMAP
FC
34
20
60
60
60
40
C0
C0
ENDCHAR
STARTCHAR 0055
ENCODING 85
SWIDTH 750 0
DWIDTH 9 0
BBX 8 9 1 0
BITMAP
73
62
62
62
42
C4
C4
C4
78
ENDCHAR
STARTCHAR 0056
ENCODING 86
SWIDTH 666 0
DWIDTH 8 0
BBX 7 9 2 0
BITMAP
C2
C4
C8
D0
D0
E0
C0
80
80
ENDCHAR
STARTCHAR 0057
ENCODING 87
SWIDTH 916 0
DWIDTH 11 0
BBX 9 9 2 0
BITMAP
CC80
CC80
CD00
DE00
EA00
CC00
C800
8800
1000
ENDCHAR
STARTCHAR 0058
ENCODING 88
SWIDTH 666 0
DWIDTH 8 0
BBX 9 9 0 0
BITMAP
3180
3200
1A00
1C00
1800
1C00
2C00
4400
C600
ENDCHAR
STARTCHAR 0059
ENCODING 89
SWIDTH 583 0
DWIDTH 7 0
BBX 6 9 2 0
BITMAP
C4
C8
48
70
60
60
60
40
C0
ENDCHAR
STARTCHAR 005A
ENCODING 90
SWIDTH 583 0
DWIDTH 7 0
BBX 8 9 0 0
BITMAP
3F
06
0E
0C
18
30
72
64
DC
ENDCHAR
STARTCHAR 005B
ENCODING 91
SWIDTH 333 0
DWIDTH 4 0
BBX 4 12 0 -3
BITMAP
30
30
20
20
60
60
40
40
C0
C0
80
C0
ENDCHAR
STARTCHAR 005C
ENCODING 92
SWIDTH 250 0
DWIDTH 3 0
BBX 1 8 1 0
BITMAP
80
80
80
80
80
80
80
80
ENDCHAR
STARTCHAR 005D
ENCODING 93
SWIDTH 333 0
DWIDTH 4 0
BBX 5 12 -1 -3
BITMAP
08
18
18
10
10
30
30
20
20
60
60
C0
ENDCHAR
STARTCHAR 005E
ENCODING 94
SWIDTH 583 0
DWIDTH 7 0
BBX 5 5 1 4
BITMAP
20
30
50
48
80
ENDCHAR
STARTCHAR 005F
ENCODING 95
SWIDTH 500 0
DWIDTH 6 0
BBX 6 1 -1 -3
BITMAP
FC
ENDCHAR
STARTCHAR 0060
ENCODING 96
SWIDTH 333 0
DWIDTH 4 0
BBX 2 2 2 7
BITMAP
80
40
ENDCHAR
STARTCHAR 0061
ENCODING 97
SWIDTH 500 0
DWIDTH 6 0
BBX 6 6 0 0
BITMAP
3C
68
48
D8
DC
F8
ENDCHAR
STARTCHAR 0062
ENCODING 98
SWIDTH 500 0
DWIDTH 6 0
BBX 6 9 0 0
BITMAP
70
20
20
78
6C
4C
48
D8
F0
ENDCHAR
STARTCHAR 0063
ENCODING 99
SWIDTH 416 0
DWIDTH 5 0
BBX 5 6 0 0
BITMAP
38
48
40
C0
C8
70
ENDCHAR
STARTCHAR 0064
ENCODING 100
SWIDTH 500 0
DWIDTH 6 0
BBX 6 9 0 0
BITMAP
0C
04
0C
3C
68
48
D8
DC
F8
ENDCHAR
STARTCHAR 0065
ENCODING 101
SWIDTH 416 0
DWIDTH 5 0
BBX 5 6 0 0
BITMAP
18
68
50
E0
C8
70
ENDCHAR
STARTCHAR 0066
ENCODING 102
SWIDTH 333 0
DWIDTH 4 0
BBX 8 12 -2 -3
BITMAP
07
05
08
1C
18
18
18
10
10
30
20
C0
ENDCHAR
STARTCHAR 0067
ENCODING 103
SWIDTH 500 0
DWIDTH 6 0
BBX 7 9 -1 -3
BITMAP
1E
24
24
18
20
38
5C
8C
68
ENDCHAR
STARTCHAR 0068
ENCODING 104
SWIDTH 583 0
DWIDTH 7 0
BBX 6 9 0 0
BITMAP
30
30
20
2C
7C
6C
48
48
C8
ENDCHAR
STARTCHAR 0069
ENCODING 105
SWIDTH 250 0
DWIDTH 3 0
BBX 3 9 0 0
BITMAP
20
20
00
60
60
40
40
C0
C0
ENDCHAR
STARTCHAR 006A
ENCODING 106
SWIDTH 250 0
DWIDTH 3 0
BBX 5 12 -2 -3
BITMAP
08
08
00
18
18
18
10
10
30
30
20
C0
ENDCHAR
STARTCHAR 006B
ENCODING 107
SWIDTH 500 0
DWIDTH 6 0
BBX 6 9 0 0
BITMAP
30
30
20
28
70
50
70
DC
D8
ENDCHAR
STARTCHAR 006C
ENCODING 108
SWIDTH 250 0
DWIDTH 3 0
BBX 4 9 0 0
BITMAP
70
20
20
60
60
40
40
E0
C0
ENDCHAR
STARTCHAR 006D
ENCODING 109
SWIDTH 750 0
DWIDTH 9 0
BBX 9 6 0 0
BITMAP
6D80
7F80
6D00
4900
DB80
DB00
ENDCHAR
STARTCHAR 006E
ENCODING 110
SWIDTH 583 0
DWIDTH 7 0
BBX 6 6 0 0
BITMAP
6C
7C
6C
48
48
C8
ENDCHAR
STARTCHAR 006F
ENCODING 111
SWIDTH 500 0
DWIDTH 6 0
BBX 6 6 0 0
BITMAP
38
6C
4C
C8
D8
50
ENDCHAR
STARTCHAR 0070
ENCODING 112
SWIDTH 500 0
DWIDTH 6 0
BBX 7 9 -1 -3
BITMAP
3C
36
26
24
6C
68
50
40
C0
ENDCHAR
STARTCHAR 0071
ENCODING 113
SWIDTH 500 0
DWIDTH 6 0
BBX 6 9 0 -3
BITMAP
3C
68
48
D8
D8
F0
10
30
30
ENDCHAR
STARTCHAR 0072
ENCODING 114
SWIDTH 416 0
DWIDTH 5 0
BBX 5 6 0 0
BITMAP
78
58
60
40
40
C0
ENDCHAR
STARTCHAR 0073
ENCODING 115
SWIDTH 416 0
DWIDTH 5 0
BBX 4 6 0 0
BITMAP
70
40
60
30
90
A0
ENDCHAR
STARTCHAR 0074
ENCODING 116
SWIDTH 250 0
DWIDTH 3 0
BBX 4 7 0 1
BITMAP
20
70
60
40
40
C0
C0
ENDCHAR
STARTCHAR 0075
ENCODING 117
SWIDTH 583 0
DWIDTH 7 0
BBX 6 6 0 0
BITMAP
64
6C
6C
58
E8
D8
ENDCHAR
STARTCHAR 0076
ENCODING 118
SWIDTH 416 0
DWIDTH 5 0
BBX 5 6 0 0
BITMAP
C8
68
68
70
60
40
ENDCHAR
STARTCHAR 0077
ENCODING 119
SWIDTH 666 0
DWIDTH 8 0
BBX 7 6 1 0
BITMAP
82
D2
F2
DC
98
90
ENDCHAR
STARTCHAR 0078
ENCODING 120
SWIDTH 500 0
DWIDTH 6 0
BBX 7 6 -1 0
BITMAP
36
18
18
18
2A
CC
ENDCHAR
STARTCHAR 0079
ENCODING 121
SWIDTH 416 0
DWIDTH 5 0
BBX 6 9 -1 -3
BITMAP
24
34
34
38
38
30
20
A0
C0
ENDCHAR
STARTCHAR 007A
ENCODING 122
SWIDTH 416 0
DWIDTH 5 0
BBX 4 7 0 -1
BITMAP
70
10
20
40
80
D0
20
ENDCHAR
STARTCHAR 007B
ENCODING 123
SWIDTH 333 0
DWIDTH 4 0
BBX 4 12 1 -3
BITMAP
10
20
60
60
40
80
80
C0
80
80
80
80
ENDCHAR
STARTCHAR 007C
ENCODING 124
SWIDTH 250 0
DWIDTH 3 0
BBX 1 12 1 -3
BITMAP
80
80
80
80
80
80
80
80
80
80
80
80
ENDCHAR
STARTCHAR 007D
ENCODING 125
SWIDTH 333 0
DWIDTH 4 0
BBX 5 12 -1 -3
BITMAP
10
08
18
10
10
10
10
20
20
20
60
C0
ENDCHAR
STARTCHAR 007E
ENCODING 126
SWIDTH 583 0
DWIDTH 7 0
BBX 7 2 0 2
BITMAP
62
9C
ENDCHAR
STARTCHAR 00A0
ENCODING 160
SWIDTH 250 0
DWIDTH 3 0
BBX 0 0 0 0
BITMAP
ENDCHAR
STARTCHAR 00A1
ENCODING 161
SWIDTH 416 0
DWIDTH 5 0
BBX 4 9 0 -3
BITMAP
30
30
00
00
40
40
40
C0
C0
ENDCHAR
STARTCHAR 00A2
ENCODING 162
SWIDTH 500 0
DWIDTH 6 0
BBX 5 12 1 -3
BITMAP
10
10
20
70
F8
C0
C0
C0
E0
80
80
80
ENDCHAR
STARTCHAR 00A3
ENCODING 163
SWIDTH 500 0
DWIDTH 6 0
BBX 6 9 0 0
BITMAP
0C
14
30
30
78
20
20
60
F8
ENDCHAR
STARTCHAR 00A4
ENCODING 164
SWIDTH 500 0
DWIDTH 6 0
BBX 6 6 0 1
BITMAP
FC
48
84
84
48
FC
ENDCHAR
STARTCHAR 00A5
ENCODING 165
SWIDTH 500 0
DWIDTH 6 0
BBX 7 9 0 0
BITMAP
32
34
34
38
FC
30
FC
20
70
ENDCHAR
STARTCHAR 00A6
ENCODING 166
SWIDTH 250 0
DWIDTH 3 0
BBX 1 12 1 -3
BITMAP
80
80
80
80
80
00
00
80
80
80
80
80
ENDCHAR
STARTCHAR 00A7
ENCODING 167
SWIDTH 500 0
DWIDTH 6 0
BBX 6 12 0 -3
BITMAP
1C
24
24
30
58
48
44
68
30
90
90
60
ENDCHAR
STARTCHAR 00A8
ENCODING 168
SWIDTH 333 0
DWIDTH 4 0
BBX 4 2 1 7
BITMAP
F0
90
ENDCHAR
STARTCHAR 00A9
ENCODING 169
SWIDTH 750 0
DWIDTH 9 0
BBX 9 9 0 0
BITMAP
1E00
6100
5E80
B280
B080
9080
4C80
4100
3E00
ENDCHAR
STARTCHAR 00AA
ENCODING 170
SWIDTH 250 0
DWIDTH 3 0
BBX 3 4 1 5
BITMAP
60
A0
A0
C0
ENDCHAR
STARTCHAR 00AB
ENCODING 171
SWIDTH 500 0
DWIDTH 6 0
BBX 5 6 1 0
BITMAP
08
50
B0
A0
90
10
ENDCHAR
STARTCHAR 00AC
ENCODING 172
SWIDTH 583 0
DWIDTH 7 0
BBX 7 3 0 3
BITMAP
FE
02
02
ENDCHAR
STARTCHAR 00AD
ENCODING 173
SWIDTH 333 0
DWIDTH 4 0
BBX 4 1 0 3
BITMAP
F0
ENDCHAR
STARTCHAR 00AE
ENCODING 174
SWIDTH 750 0
DWIDTH 9 0
BBX 9 9 0 0
BITMAP
1E00
7900
5680
9680
9C80
9480
7A80
4100
3E00
ENDCHAR
STARTCHAR 00AF
ENCODING 175
SWIDTH 500 0
DWIDTH 6 0
BBX 7 1 1 9
BITMAP
FE
ENDCHAR
STARTCHAR 00B0
ENCODING 176
SWIDTH 416 0
DWIDTH 5 0
BBX 4 5 1 4
BITMAP
60
90
90
90
60
ENDCHAR
STARTCHAR 00B1
ENCODING 177
SWIDTH 583 0
DWIDTH 7 0
BBX 7 7 0 2
BITMAP
10
10
10
FE
10
10
FE
ENDCHAR
STARTCHAR 00B2
ENCODING 178
SWIDTH 333 0
DWIDTH 4 0
BBX 3 5 1 4
BITMAP
60
20
20
40
C0
ENDCHAR
STARTCHAR 00B3
ENCODING 179
SWIDTH 333 0
DWIDTH 4 0
BBX 3 5 1 4
BITMAP
60
20
60
20
C0
ENDCHAR
STARTCHAR 00B4
ENCODING 180
SWIDTH 333 0
DWIDTH 4 0
BBX 2 3 2 6
BITMAP
40
40
80
ENDCHAR
STARTCHAR 00B5
ENCODING 181
SWIDTH 583 0
DWIDTH 7 0
BBX 7 9 -1 -3
BITMAP
12
36
36
24
2C
76
40
C0
80
ENDCHAR
STARTCHAR 00B6
ENCODING 182
SWIDTH 500 0
DWIDTH 6 0
BBX 5 12 0 -3
BITMAP
78
F8
F8
F8
F8
78
18
18
18
18
18
10
ENDCHAR
STARTCHAR 00B7
ENCODING 183
SWIDTH 250 0
DWIDTH 3 0
BBX 2 2 1 4
BITMAP
C0
C0
ENDCHAR
STARTCHAR 00B8
ENCODING 184
SWIDTH 333 0
DWIDTH 4 0
BBX 3 3 0 -3
BITMAP
40
20
C0
ENDCHAR
STARTCHAR 00B9
ENCODING 185
SWIDTH 333 0
DWIDTH 4 0
BBX 3 5 1 4
BITMAP
60
40
40
40
C0
ENDCHAR
STARTCHAR 00BA
ENCODING 186
SWIDTH 333 0
DWIDTH 4 0
BBX 3 4 1 5
BITMAP
60
A0
A0
40
ENDCHAR
STARTCHAR 00BB
ENCODING 187
SWIDTH 500 0
DWIDTH 6 0
BBX 5 6 0 0
BITMAP
40
48
28
68
50
80
ENDCHAR
STARTCHAR 00BC
ENCODING 188
SWIDTH 750 0
DWIDTH 9 0
BBX 7 9 1 0
BITMAP
62
44
48
48
D0
12
2E
4E
44
ENDCHAR
STARTCHAR 00BD
ENCODING 189
SWIDTH 750 0
DWIDTH 9 0
BBX 7 9 1 0
BITMAP
60
44
48
48
D6
22
22
44
0E
ENDCHAR
STARTCHAR 00BE
ENCODING 190
SWIDTH 750 0
DWIDTH 9 0
BBX 7 9 1 0
BITMAP
62
24
68
28
D0
12
2E
4E
44
ENDCHAR
STARTCHAR 00BF
ENCODING 191
SWIDTH 500 0
DWIDTH 6 0
BBX 5 9 0 -3
BITMAP
18
18
00
10
20
40
C0
D0
50
ENDCHAR
STARTCHAR 00C0
ENCODING 192
SWIDTH 666 0
DWIDTH 8 0
BBX 7 12 0 0
BITMAP
06
02
00
02
06
06
1E
26
3E
46
86
8E
ENDCHAR
STARTCHAR 00C1
ENCODING 193
SWIDTH 666 0
DWIDTH 8 0
BBX 9 12 0 0
BITMAP
0180
0100
0200
0200
0600
0600
1E00
2600
3E00
4600
8600
8E00
ENDCHAR
STARTCHAR 00C2
ENCODING 194
SWIDTH 666 0
DWIDTH 8 0
BBX 8 12 0 0
BITMAP
03
07
08
02
06
06
1E
26
3E
46
86
8E
ENDCHAR
STARTCHAR 00C3
ENCODING 195
SWIDTH 666 0
DWIDTH 8 0
BBX 8 11 0 1
BITMAP
07
00
02
06
06
1E
26
3E
46
86
8E
ENDCHAR
STARTCHAR 00C4
ENCODING 196
SWIDTH 666 0
DWIDTH 8 0
BBX 9 11 0 0
BITMAP
0580
0500
0200
0600
0600
1E00
2600
3E00
4600
8600
8E00
ENDCHAR
STARTCHAR 00C5
ENCODING 197
SWIDTH 666 0
DWIDTH 8 0
BBX 8 11 0 0
BITMAP
02
05
02
06
06
1E
26
3E
46
86
8E
ENDCHAR
STARTCHAR 00C6
ENCODING 198
SWIDTH 916 0
DWIDTH 11 0
BBX 11 9 0 0
BITMAP
07E0
0720
0B00
1240
27C0
3E00
4620
8440
8FC0
ENDCHAR
STARTCHAR 00C7
ENCODING 199
SWIDTH 666 0
DWIDTH 8 0
BBX 8 12 1 -3
BITMAP
1F
20
60
C0
C0
C0
C0
C4
78
30
10
60
ENDCHAR
STARTCHAR 00C8
ENCODING 200
SWIDTH 666 0
DWIDTH 8 0
BBX 7 12 1 0
BITMAP
10
08
00
3E
22
62
60
78
C8
C0
C4
FC
ENDCHAR
STARTCHAR 00C9
ENCODING 201
SWIDTH 666 0
DWIDTH 8 0
BBX 7 12 1 0
BITMAP
04
08
00
3E
22
62
60
78
C8
C0
C4
FC
ENDCHAR
STARTCHAR 00CA
ENCODING 202
SWIDTH 666 0
DWIDTH 8 0
BBX 7 12 1 0
BITMAP
0C
1C
20
3E
22
62
60
78
C8
C0
C4
FC
ENDCHAR
STARTCHAR 00CB
ENCODING 203
SWIDTH 666 0
DWIDTH 8 0
BBX 7 11 1 0
BITMAP
14
14
3E
22
62
60
78
C8
C0
C4
FC
ENDCHAR
STARTCHAR 00CC
ENCODING 204
SWIDTH 416 0
DWIDTH 5 0
BBX 5 12 0 0
BITMAP
30
10
08
38
30
30
30
30
60
60
60
E0
ENDCHAR
STARTCHAR 00CD
ENCODING 205
SWIDTH 416 0
DWIDTH 5 0
BBX 6 12 0 0
BITMAP
0C
08
00
38
30
30
30
30
60
60
60
E0
ENDCHAR
STARTCHAR 00CE
ENCODING 206
SWIDTH 416 0
DWIDTH 5 0
BBX 6 12 0 0
BITMAP
08
18
24
38
30
30
30
30
60
60
60
E0
ENDCHAR
STARTCHAR 00CF
ENCODING 207
SWIDTH 416 0
DWIDTH 5 0
BBX 6 11 0 0
BITMAP
3C
24
38
30
30
30
30
60
60
60
E0
ENDCHAR
STARTCHAR 00D0
ENCODING 208
SWIDTH 750 0
DWIDTH 9 0
BBX 7 9 1 0
BITMAP
7C
66
66
66
F6
46
C6
CC
F8
ENDCHAR
STARTCHAR 00D1
ENCODING 209
SWIDTH 750 0
DWIDTH 9 0
BBX 9 11 0 1
BITMAP
0F00
0000
3080
1900
3900
4D00
4D00
4600
4600
8200
C200
ENDCHAR
STARTCHAR 00D2
ENCODING 210
SWIDTH 750 0
DWIDTH 9 0
BBX 8 12 1 0
BITMAP
08
08
04
1C
22
63
C3
C6
C6
C4
CC
70
ENDCHAR
STARTCHAR 00D3
ENCODING 211
SWIDTH 750 0
DWIDTH 9 0
BBX 8 12 1 0
BITMAP
04
0C
08
1C
22
63
C3
C6
C6
C4
CC
70
ENDCHAR
STARTCHAR 00D4
ENCODING 212
SWIDTH 750 0
DWIDTH 9 0
BBX 8 12 1 0
BITMAP
04
0C
02
1C
22
63
C3
C6
C6
C4
CC
70
ENDCHAR
STARTCHAR 00D5
ENCODING 213
SWIDTH 750 0
DWIDTH 9 0
BBX 8 11 1 1
BITMAP
1E
00
1C
22
63
C3
C6
C6
C4
CC
70
ENDCHAR
STARTCHAR 00D6
ENCODING 214
SWIDTH 750 0
DWIDTH 9 0
BBX 8 11 1 0
BITMAP
1E
12
1C
22
63
C3
C6
C6
C4
CC
70
ENDCHAR
STARTCHAR 00D7
ENCODING 215
SWIDTH 583 0
DWIDTH 7 0
BBX 5 5 1 2
BITMAP
88
50
20
50
88
ENDCHAR
STARTCHAR 00D8
ENCODING 216
SWIDTH 750 0
DWIDTH 9 0
BBX 8 9 1 0
BITMAP
1D
22
67
CB
D6
E6
C4
CC
70
ENDCHAR
STARTCHAR 00D9
ENCODING 217
SWIDTH 750 0
DWIDTH 9 0
BBX 8 12 1 0
BITMAP
08
08
04
73
62
62
62
42
C4
C4
C4
78
ENDCHAR
STARTCHAR 00DA
ENCODING 218
SWIDTH 750 0
DWIDTH 9 0
BBX 8 12 1 0
BITMAP
04
08
08
73
62
62
62
42
C4
C4
C4
78
ENDCHAR
STARTCHAR 00DB
ENCODING 219
SWIDTH 750 0
DWIDTH 9 0
BBX 8 12 1 0
BITMAP
0C
0C
00
73
62
62
62
42
C4
C4
C4
78
ENDCHAR
STARTCHAR 00DC
ENCODING 220
SWIDTH 750 0
DWIDTH 9 0
BBX 8 11 1 0
BITMAP
16
14
73
62
62
62
42
C4
C4
C4
78
ENDCHAR
STARTCHAR 00DD
ENCODING 221
SWIDTH 583 0
DWIDTH 7 0
BBX 6 12 2 0
BITMAP
0C
08
10
C4
C8
48
70
60
60
60
40
C0
ENDCHAR
STARTCHAR 00DE
ENCODING 222
SWIDTH 583 0
DWIDTH 7 0
BBX 6 9 1 0
BITMAP
30
20
78
6C
4C
4C
F0
C0
C0
ENDCHAR
STARTCHAR 00DF
ENCODING 223
SWIDTH 500 0
DWIDTH 6 0
BBX 8 12 -2 -3
BITMAP
07
09
09
1A
1A
1A
12
1A
3C
20
20
C0
ENDCHAR
STARTCHAR 00E0
ENCODING 224
SWIDTH 500 0
DWIDTH 6 0
BBX 6 9 0 0
BITMAP
10
08
00
3C
68
48
D8
DC
F8
ENDCHAR
STARTCHAR 00E1
ENCODING 225
SWIDTH 500 0
DWIDTH 6 0
BBX 6 9 0 0
BITMAP
08
08
00
3C
68
48
D8
DC
F8
ENDCHAR
STARTCHAR 00E2
ENCODING 226
SWIDTH 500 0
DWIDTH 6 0
BBX 6 9 0 0
BITMAP
18
20
00
3C
68
48
D8
DC
F8
ENDCHAR
STARTCHAR 00E3
ENCODING 227
SWIDTH 500 0
DWIDTH 6 0
BBX 6 9 0 0
BITMAP
34
3C
00
3C
68
48
D8
DC
F8
ENDCHAR
STARTCHAR 00E4
ENCODING 228
SWIDTH 500 0
DWIDTH 6 0
BBX 6 9 0 0
BITMAP
3C
24
00
3C
68
48
D8
DC
F8
ENDCHAR
STARTCHAR 00E5
ENCODING 229
SWIDTH 500 0
DWIDTH 6 0
BBX 6 9 0 0
BITMAP
18
28
18
3C
68
48
D8
DC
F8
ENDCHAR
STARTCHAR 00E6
ENCODING 230
SWIDTH 750 0
DWIDTH 9 0
BBX 8 6 0 0
BITMAP
3F
6D
4B
DC
E8
CE
ENDCHAR
STARTCHAR 00E7
ENCODING 231
SWIDTH 416 0
DWIDTH 5 0
BBX 5 9 0 -3
BITMAP
38
48
40
C0
C8
70
60
20
40
ENDCHAR
STARTCHAR 00E8
ENCODING 232
SWIDTH 416 0
DWIDTH 5 0
BBX 5 9 0 0
BITMAP
10
00
00
18
68
50
E0
C8
70
ENDCHAR
STARTCHAR 00E9
ENCODING 233
SWIDTH 416 0
DWIDTH 5 0
BBX 6 9 0 0
BITMAP
0C
08
00
18
68
50
E0
C8
70
ENDCHAR
STARTCHAR 00EA
ENCODING 234
SWIDTH 416 0
DWIDTH 5 0
BBX 5 9 0 0
BITMAP
18
28
00
18
68
50
E0
C8
70
ENDCHAR
STARTCHAR 00EB
ENCODING 235
SWIDTH 416 0
DWIDTH 5 0
BBX 5 9 0 0
BITMAP
28
28
00
18
68
50
E0
C8
70
ENDCHAR
STARTCHAR 00EC
ENCODING 236
SWIDTH 250 0
DWIDTH 3 0
BBX 3 9 0 0
BITMAP
60
20
00
60
60
40
40
C0
C0
ENDCHAR
STARTCHAR 00ED
ENCODING 237
SWIDTH 250 0
DWIDTH 3 0
BBX 4 9 0 0
BITMAP
30
20
00
60
60
40
40
C0
C0
ENDCHAR
STARTCHAR 00EE
ENCODING 238
SWIDTH 250 0
DWIDTH 3 0
BBX 4 9 0 0
BITMAP
30
50
00
60
60
40
40
C0
C0
ENDCHAR
STARTCHAR 00EF
ENCODING 239
SWIDTH 250 0
DWIDTH 3 0
BBX 4 9 0 0
BITMAP
50
50
00
60
60
40
40
C0
C0
ENDCHAR
STARTCHAR 00F0
ENCODING 240
SWIDTH 500 0
DWIDTH 6 0
BBX 6 9 0 1
BITMAP
04
18
08
2C
6C
4C
C8
D8
50
ENDCHAR
STARTCHAR 00F1
ENCODING 241
SWIDTH 583 0
DWIDTH 7 0
BBX 6 9 0 0
BITMAP
34
3C
00
6C
7C
6C
48
48
C8
ENDCHAR
STARTCHAR 00F2
ENCODING 242
SWIDTH 500 0
DWIDTH 6 0
BBX 6 9 0 0
BITMAP
10
08
00
38
6C
4C
C8
D8
50
ENDCHAR
STARTCHAR 00F3
ENCODING 243
SWIDTH 500 0
DWIDTH 6 0
BBX 6 9 0 0
BITMAP
0C
08
00
38
6C
4C
C8
D8
50
ENDCHAR
STARTCHAR 00F4
ENCODING 244
SWIDTH 500 0
DWIDTH 6 0
BBX 6 9 0 0
BITMAP
18
20
00
38
6C
4C
C8
D8
50
ENDCHAR
STARTCHAR 00F5
ENCODING 245
SWIDTH 500 0
DWIDTH 6 0
BBX 6 9 0 0
BITMAP
34
3C
00
38
6C
4C
C8
D8
50
ENDCHAR
STARTCHAR 00F6
ENCODING 246
SWIDTH 500 0
DWIDTH 6 0
BBX 6 9 0 0
BITMAP
3C
24
00
38
6C
4C
C8
D8
50
ENDCHAR
STARTCHAR 00F7
ENCODING 247
SWIDTH 583 0
DWIDTH 7 0
BBX 7 5 0 2
BITMAP
10
00
FE
00
10
ENDCHAR
STARTCHAR 00F8
ENCODING 248
SWIDTH 500 0
DWIDTH 6 0
BBX 6 6 0 0
BITMAP
3C
6C
5C
E8
D8
D0
ENDCHAR
STARTCHAR 00F9
ENCODING 249
SWIDTH 583 0
DWIDTH 7 0
BBX 6 9 0 0
BITMAP
10
08
00
64
6C
6C
58
E8
D8
ENDCHAR
STARTCHAR 00FA
ENCODING 250
SWIDTH 583 0
DWIDTH 7 0
BBX 6 9 0 0
BITMAP
08
08
00
64
6C
6C
58
E8
D8
ENDCHAR
STARTCHAR 00FB
ENCODING 251
SWIDTH 583 0
DWIDTH 7 0
BBX 6 9 0 0
BITMAP
18
14
00
64
6C
6C
58
E8
D8
ENDCHAR
STARTCHAR 00FC
ENCODING 252
SWIDTH 583 0
DWIDTH 7 0
BBX 6 9 0 0
BITMAP
2C
28
00
64
6C
6C
58
E8
D8
ENDCHAR
STARTCHAR 00FD
ENCODING 253
SWIDTH 416 0
DWIDTH 5 0
BBX 6 12 -1 -3
BITMAP
04
08
00
24
34
34
38
38
30
20
A0
C0
ENDCHAR
STARTCHAR 00FE
ENCODING 254
SWIDTH 500 0
DWIDTH 6 0
BBX 7 12 -1 -3
BITMAP
08
10
10
1C
36
26
24
6C
68
50
40
C0
ENDCHAR
STARTCHAR 00FF
ENCODING 255
SWIDTH 416 0
DWIDTH 5 0
BBX 6 12 -1 -3
BITMAP
14
14
00
24
34
34
38
38
30
20
A0
C0
ENDCHAR
STARTCHAR 0100
ENCODING 256
SWIDTH 666 0
DWIDTH 8 0
BBX 9 11 0 0
BITMAP
0780
0000
0200
0600
0600
1E00
2600
3E00
4600
8600
8E00
ENDCHAR
STARTCHAR 0101
ENCODING 257
SWIDTH 500 0
DWIDTH 6 0
BBX 6 8 0 0
BITMAP
3C
00
3C
68
48
D8
DC
F8
ENDCHAR
STARTCHAR 0102
ENCODING 258
SWIDTH 666 0
DWIDTH 8 0
BBX 8 11 0 1
BITMAP
03
00
02
06
06
1E
26
3E
46
86
8E
ENDCHAR
STARTCHAR 0103
ENCODING 259
SWIDTH 500 0
DWIDTH 6 0
BBX 6 9 0 0
BITMAP
20
38
00
3C
68
48
D8
DC
F8
ENDCHAR
STARTCHAR 0104
ENCODING 260
SWIDTH 666 0
DWIDTH 8 0
BBX 7 12 0 -3
BITMAP
02
06
06
0E
16
26
3E
46
86
04
08
0C
ENDCHAR
STARTCHAR 0105
ENCODING 261
SWIDTH 500 0
DWIDTH 6 0
BBX 6 9 0 -3
BITMAP
3C
68
48
D8
DC
F8
10
20
30
ENDCHAR
STARTCHAR 0106
ENCODING 262
SWIDTH 666 0
DWIDTH 8 0
BBX 8 12 1 0
BITMAP
06
04
08
1F
20
60
C0
C0
C0
C0
C4
78
ENDCHAR
STARTCHAR 0107
ENCODING 263
SWIDTH 416 0
DWIDTH 5 0
BBX 5 9 0 0
BITMAP
08
10
00
38
48
40
C0
C8
70
ENDCHAR
STARTCHAR 0108
ENCODING 264
SWIDTH 666 0
DWIDTH 8 0
BBX 8 12 1 0
BITMAP
0C
02
00
1F
20
60
C0
C0
C0
C0
C4
78
ENDCHAR
STARTCHAR 0109
ENCODING 265
SWIDTH 416 0
DWIDTH 5 0
BBX 5 9 0 0
BITMAP
18
28
00
38
48
40
C0
C8
70
ENDCHAR
STARTCHAR 010A
ENCODING 266
SWIDTH 666 0
DWIDTH 8 0
BBX 8 12 1 0
BITMAP
0C
0C
00
1F
20
60
C0
C0
C0
C0
C4
78
ENDCHAR
STARTCHAR 010B
ENCODING 267
SWIDTH 416 0
DWIDTH 5 0
BBX 5 9 0 0
BITMAP
18
18
00
38
48
40
C0
C8
70
ENDCHAR
STARTCHAR 010C
ENCODING 268
SWIDTH 666 0
DWIDTH 8 0
BBX 8 12 1 0
BITMAP
12
0C
00
1F
20
60
C0
C0
C0
C0
C4
78
ENDCHAR
STARTCHAR 010D
ENCODING 269
SWIDTH 416 0
DWIDTH 5 0
BBX 6 9 0 0
BITMAP
04
18
00
38
48
40
C0
C8
70
ENDCHAR
STARTCHAR 010E
ENCODING 270
SWIDTH 750 0
DWIDTH 9 0
BBX 8 12 0 0
BITMAP
12
0C
00
3E
33
33
33
33
63
63
66
F8
ENDCHAR
STARTCHAR 010F
ENCODING 271
SWIDTH 750 0
DWIDTH 9 0
BBX 9 9 0 0
BITMAP
0D80
0580
0C80
3D00
6800
4800
D800
DC00
F800
ENDCHAR
STARTCHAR 0110
ENCODING 272
SWIDTH 750 0
DWIDTH 9 0
BBX 7 9 1 0
BITMAP
7C
66
66
66
F6
46
C6
CC
F8
ENDCHAR
STARTCHAR 0111
ENCODING 273
SWIDTH 500 0
DWIDTH 6 0
BBX 7 9 0 0
BITMAP
0C
1E
0C
3C
68
48
D8
DC
F8
ENDCHAR
STARTCHAR 0112
ENCODING 274
SWIDTH 666 0
DWIDTH 8 0
BBX 7 11 1 0
BITMAP
1E
00
3E
22
62
60
78
C8
C0
C4
FC
ENDCHAR
STARTCHAR 0113
ENCODING 275
SWIDTH 416 0
DWIDTH 5 0
BBX 6 8 0 0
BITMAP
3C
00
18
68
50
E0
C8
70
ENDCHAR
STARTCHAR 0114
ENCODING 276
SWIDTH 666 0
DWIDTH 8 0
BBX 7 12 1 0
BITMAP
10
1C
00
3E
22
62
60
78
C8
C0
C4
FC
ENDCHAR
STARTCHAR 0115
ENCODING 277
SWIDTH 416 0
DWIDTH 5 0
BBX 6 9 0 0
BITMAP
04
18
00
18
68
50
E0
C8
70
ENDCHAR
STARTCHAR 0116
ENCODING 278
SWIDTH 666 0
DWIDTH 8 0
BBX 7 12 1 0
BITMAP
08
08
00
3E
22
62
60
78
C8
C0
C4
FC
ENDCHAR
STARTCHAR 0117
ENCODING 279
SWIDTH 416 0
DWIDTH 5 0
BBX 5 9 0 0
BITMAP
18
18
00
18
68
50
E0
C8
70
ENDCHAR
STARTCHAR 0118
ENCODING 280
SWIDTH 666 0
DWIDTH 8 0
BBX 7 12 1 -3
BITMAP
3E
22
62
60
78
C8
C0
C4
FC
00
10
18
ENDCHAR
STARTCHAR 0119
ENCODING 281
SWIDTH 416 0
DWIDTH 5 0
BBX 5 9 0 -3
BITMAP
18
68
50
E0
C8
70
40
40
60
ENDCHAR
STARTCHAR 011A
ENCODING 282
SWIDTH 666 0
DWIDTH 8 0
BBX 7 12 1 0
BITMAP
14
18
00
3E
22
62
60
78
C8
C0
C4
FC
ENDCHAR
STARTCHAR 011B
ENCODING 283
SWIDTH 416 0
DWIDTH 5 0
BBX 6 9 0 0
BITMAP
24
18
00
18
68
50
E0
C8
70
ENDCHAR
STARTCHAR 011C
ENCODING 284
SWIDTH 750 0
DWIDTH 9 0
BBX 8 12 1 0
BITMAP
06
0A
00
1F
21
60
C0
CF
C6
C4
CC
6C
ENDCHAR
STARTCHAR 011D
ENCODING 285
SWIDTH 500 0
DWIDTH 6 0
BBX 7 12 -1 -3
BITMAP
0C
0A
00
1E
24
24
18
20
38
5C
8C
68
ENDCHAR
STARTCHAR 011E
ENCODING 286
SWIDTH 750 0
DWIDTH 9 0
BBX 8 12 1 0
BITMAP
08
0E
00
1F
21
60
C0
CF
C6
C4
CC
6C
ENDCHAR
STARTCHAR 011F
ENCODING 287
SWIDTH 500 0
DWIDTH 6 0
BBX 7 12 -1 -3
BITMAP
10
0C
00
1E
24
24
18
20
38
5C
8C
68
ENDCHAR
STARTCHAR 0120
ENCODING 288
SWIDTH 750 0
DWIDTH 9 0
BBX 8 12 1 0
BITMAP
04
04
00
1F
21
60
C0
CF
C6
C4
CC
6C
ENDCHAR
STARTCHAR 0121
ENCODING 289
SWIDTH 500 0
DWIDTH 6 0
BBX 7 12 -1 -3
BITMAP
0C
0C
00
1E
24
24
18
20
38
5C
8C
68
ENDCHAR
STARTCHAR 0122
ENCODING 290
SWIDTH 750 0
DWIDTH 9 0
BBX 8 11 1 -4
BITMAP
1F
21
60
C0
CF
C6
C4
CC
6C
10
30
ENDCHAR
STARTCHAR 0123
ENCODING 291
SWIDTH 500 0
DWIDTH 6 0
BBX 7 11 -1 -1
BITMAP
0C
00
1E
24
24
18
20
38
5C
8C
68
ENDCHAR
STARTCHAR 0124
ENCODING 292
SWIDTH 750 0
DWIDTH 9 0
BBX 10 12 0 0
BITMAP
0300
0500
0900
39C0
3180
3180
3100
3F00
6300
6300
6200
E600
ENDCHAR
STARTCHAR 0125
ENCODING 293
SWIDTH 583 0
DWIDTH 7 0
BBX 7 12 0 0
BITMAP
04
0A
12
30
30
20
2C
7C
6C
48
48
C8
ENDCHAR
STARTCHAR 0126
ENCODING 294
SWIDTH 750 0
DWIDTH 9 0
BBX 10 9 0 0
BITMAP
3980
3FC0
3180
3100
3F00
6300
6300
6200
E600
ENDCHAR
STARTCHAR 0127
ENCODING 295
SWIDTH 583 0
DWIDTH 7 0
BBX 6 9 0 0
BITMAP
30
78
20
2C
7C
6C
48
48
D8
ENDCHAR
STARTCHAR 0128
ENCODING 296
SWIDTH 416 0
DWIDTH 5 0
BBX 6 11 0 0
BITMAP
3C
00
38
30
30
30
30
60
60
60
E0
ENDCHAR
STARTCHAR 0129
ENCODING 297
SWIDTH 250 0
DWIDTH 3 0
BBX 4 9 0 0
BITMAP
60
30
00
60
60
40
40
C0
C0
ENDCHAR
STARTCHAR 012A
ENCODING 298
SWIDTH 416 0
DWIDTH 5 0
BBX 6 11 0 0
BITMAP
3C
00
38
30
30
30
30
60
60
60
E0
ENDCHAR
STARTCHAR 012B
ENCODING 299
SWIDTH 250 0
DWIDTH 3 0
BBX 5 8 0 0
BITMAP
78
00
60
60
40
40
C0
C0
ENDCHAR
STARTCHAR 012C
ENCODING 300
SWIDTH 416 0
DWIDTH 5 0
BBX 6 12 0 0
BITMAP
04
18
00
38
30
30
30
30
60
60
60
E0
ENDCHAR
STARTCHAR 012D
ENCODING 301
SWIDTH 250 0
DWIDTH 3 0
BBX 4 9 0 0
BITMAP
40
70
00
60
60
40
40
C0
C0
ENDCHAR
STARTCHAR 012E
ENCODING 302
SWIDTH 416 0
DWIDTH 5 0
BBX 5 12 0 -3
BITMAP
38
30
30
30
30
60
60
60
E0
40
80
C0
ENDCHAR
STARTCHAR 012F
ENCODING 303
SWIDTH 250 0
DWIDTH 3 0
BBX 3 12 0 -3
BITMAP
20
20
00
60
60
40
40
C0
C0
80
80
80
ENDCHAR
STARTCHAR 0130
ENCODING 304
SWIDTH 416 0
DWIDTH 5 0
BBX 5 12 0 0
BITMAP
18
18
00
38
30
30
30
30
60
60
60
E0
ENDCHAR
STARTCHAR 0131
ENCODING 305
SWIDTH 250 0
DWIDTH 3 0
BBX 3 6 0 0
BITMAP
60
60
40
40
C0
C0
ENDCHAR
STARTCHAR 0132
ENCODING 306
SWIDTH 833 0
DWIDTH 10 0
BBX 10 9 0 0
BITMAP
38C0
30C0
3080
3180
3180
6180
6100
6B00
EA00
ENDCHAR
STARTCHAR 0133
ENCODING 307
SWIDTH 583 0
DWIDTH 7 0
BBX 7 12 0 -3
BITMAP
36
36
00
6C
6C
6C
48
48
D8
18
10
60
ENDCHAR
STARTCHAR 0134
ENCODING 308
SWIDTH 500 0
DWIDTH 6 0
BBX 7 12 0 0
BITMAP
06
0A
00
0C
0C
0C
18
18
18
10
B0
A0
ENDCHAR
STARTCHAR 0135
ENCODING 309
SWIDTH 250 0
DWIDTH 3 0
BBX 6 12 -2 -3
BITMAP
0C
14
00
18
18
18
10
10
30
30
20
C0
ENDCHAR
STARTCHAR 0136
ENCODING 310
SWIDTH 666 0
DWIDTH 8 0
BBX 8 12 0 -4
BITMAP
3B
32
34
38
38
6C
6C
64
EE
00
10
10
ENDCHAR
STARTCHAR 0137
ENCODING 311
SWIDTH 500 0
DWIDTH 6 0
BBX 6 12 0 -4
BITMAP
30
30
20
28
70
50
70
DC
D8
00
20
20
ENDCHAR
STARTCHAR 0138
ENCODING 312
SWIDTH 500 0
DWIDTH 6 0
BBX 6 6 0 0
BITMAP
6C
70
50
70
DC
D8
ENDCHAR
STARTCHAR 0139
ENCODING 313
SWIDTH 583 0
DWIDTH 7 0
BBX 7 12 0 0
BITMAP
0C
08
00
38
30
30
30
30
60
60
62
FC
ENDCHAR
STARTCHAR 013A
ENCODING 314
SWIDTH 250 0
DWIDTH 3 0
BBX 5 12 0 0
BITMAP
18
10
20
70
20
20
60
60
40
40
E0
C0
ENDCHAR
STARTCHAR 013B
ENCODING 315
SWIDTH 583 0
DWIDTH 7 0
BBX 7 11 0 -4
BITMAP
38
30
30
30
30
60
60
62
FC
00
30
ENDCHAR
STARTCHAR 013C
ENCODING 316
SWIDTH 250 0
DWIDTH 3 0
BBX 4 12 0 -4
BITMAP
70
20
20
60
60
40
40
E0
C0
00
80
80
ENDCHAR
STARTCHAR 013D
ENCODING 317
SWIDTH 583 0
DWIDTH 7 0
BBX 7 9 1 0
BITMAP
76
26
62
64
60
40
C0
C4
F8
ENDCHAR
STARTCHAR 013E
ENCODING 318
SWIDTH 500 0
DWIDTH 6 0
BBX 6 9 0 0
BITMAP
7C
2C
24
68
60
40
40
C0
C0
ENDCHAR
STARTCHAR 013F
ENCODING 319
SWIDTH 583 0
DWIDTH 7 0
BBX 7 9 0 0
BITMAP
38
30
30
38
3C
60
62
64
FC
ENDCHAR
STARTCHAR 0140
ENCODING 320
SWIDTH 416 0
DWIDTH 5 0
BBX 4 9 0 0
BITMAP
70
20
20
70
70
40
40
E0
C0
ENDCHAR
STARTCHAR 0141
ENCODING 321
SWIDTH 583 0
DWIDTH 7 0
BBX 6 9 1 0
BITMAP
70
20
60
60
60
C0
C0
C4
F8
ENDCHAR
STARTCHAR 0142
ENCODING 322
SWIDTH 250 0
DWIDTH 3 0
BBX 4 9 0 0
BITMAP
70
20
20
70
60
C0
40
E0
C0
ENDCHAR
STARTCHAR 0143
ENCODING 323
SWIDTH 750 0
DWIDTH 9 0
BBX 9 12 0 0
BITMAP
0300
0600
0400
3080
1900
3900
4D00
4D00
4600
4600
8200
C200
ENDCHAR
STARTCHAR 0144
ENCODING 324
SWIDTH 583 0
DWIDTH 7 0
BBX 6 9 0 0
BITMAP
08
08
00
6C
7C
6C
48
48
D8
ENDCHAR
STARTCHAR 0145
ENCODING 325
SWIDTH 750 0
DWIDTH 9 0
BBX 9 12 0 -4
BITMAP
3080
1900
3900
4D00
4D00
4600
4600
8200
C200
0000
1000
1000
ENDCHAR
STARTCHAR 0146
ENCODING 326
SWIDTH 583 0
DWIDTH 7 0
BBX 6 9 0 -4
BITMAP
6C
7C
6C
48
48
D8
00
20
20
ENDCHAR
STARTCHAR 0147
ENCODING 327
SWIDTH 750 0
DWIDTH 9 0
BBX 9 12 0 0
BITMAP
0900
0600
0000
3080
1900
3900
4D00
4D00
4600
4600
8200
C200
ENDCHAR
STARTCHAR 0148
ENCODING 328
SWIDTH 583 0
DWIDTH 7 0
BBX 6 9 0 0
BITMAP
04
18
00
6C
7C
6C
48
48
C8
ENDCHAR
STARTCHAR 0149
ENCODING 329
SWIDTH 750 0
DWIDTH 9 0
BBX 7 9 1 0
BITMAP
C0
C0
40
B6
3E
36
24
24
64
ENDCHAR
STARTCHAR 014A
ENCODING 330
SWIDTH 750 0
DWIDTH 9 0
BBX 8 9 1 0
BITMAP
76
79
61
63
63
C3
C2
DE
D4
ENDCHAR
STARTCHAR 014B
ENCODING 331
SWIDTH 500 0
DWIDTH 6 0
BBX 6 9 0 -3
BITMAP
6C
7C
6C
48
48
D8
18
10
60
ENDCHAR
STARTCHAR 014C
ENCODING 332
SWIDTH 750 0
DWIDTH 9 0
BBX 8 11 1 0
BITMAP
1E
00
1C
22
63
C3
C6
C6
C4
CC
70
ENDCHAR
STARTCHAR 014D
ENCODING 333
SWIDTH 500 0
DWIDTH 6 0
BBX 6 8 0 0
BITMAP
3C
00
38
6C
4C
C8
D8
50
ENDCHAR
STARTCHAR 014E
ENCODING 334
SWIDTH 750 0
DWIDTH 9 0
BBX 8 12 1 0
BITMAP
02
0C
00
1C
22
63
C3
C6
C6
C4
CC
70
ENDCHAR
STARTCHAR 014F
ENCODING 335
SWIDTH 500 0
DWIDTH 6 0
BBX 6 9 0 0
BITMAP
04
18
00
38
6C
4C
C8
D8
50
ENDCHAR
STARTCHAR 0150
ENCODING 336
SWIDTH 750 0
DWIDTH 9 0
BBX 8 12 1 0
BITMAP
0F
0A
00
1C
22
63
C3
C6
C6
C4
CC
70
ENDCHAR
STARTCHAR 0151
ENCODING 337
SWIDTH 500 0
DWIDTH 6 0
BBX 7 9 0 0
BITMAP
1E
14
00
38
6C
4C
C8
D8
50
ENDCHAR
STARTCHAR 0152
ENCODING 338
SWIDTH 916 0
DWIDTH 11 0
BBX 10 9 1 0
BITMAP
1FC0
2640
6600
C600
C780
C400
CC00
CC80
7F80
ENDCHAR
STARTCHAR 0153
ENCODING 339
SWIDTH 750 0
DWIDTH 9 0
BBX 9 6 0 0
BITMAP
3B80
6D00
4900
CE00
D900
6E00
ENDCHAR
STARTCHAR 0154
ENCODING 340
SWIDTH 666 0
DWIDTH 8 0
BBX 7 12 1 0
BITMAP
0C
08
10
7C
26
66
6C
78
D8
D8
C8
CC
ENDCHAR
STARTCHAR 0155
ENCODING 341
SWIDTH 416 0
DWIDTH 5 0
BBX 5 9 0 0
BITMAP
18
10
00
78
78
60
40
40
C0
ENDCHAR
STARTCHAR 0156
ENCODING 342
SWIDTH 666 0
DWIDTH 8 0
BBX 7 12 1 -4
BITMAP
7C
26
66
6C
78
D8
D8
C8
CC
00
20
20
ENDCHAR
STARTCHAR 0157
ENCODING 343
SWIDTH 416 0
DWIDTH 5 0
BBX 5 9 0 -4
BITMAP
78
58
60
40
40
C0
00
80
80
ENDCHAR
STARTCHAR 0158
ENCODING 344
SWIDTH 666 0
DWIDTH 8 0
BBX 7 12 1 0
BITMAP
24
18
00
7C
26
66
6C
78
D8
D8
C8
CC
ENDCHAR
STARTCHAR 0159
ENCODING 345
SWIDTH 416 0
DWIDTH 5 0
BBX 5 9 0 0
BITMAP
48
30
00
78
78
60
40
40
C0
ENDCHAR
STARTCHAR 015A
ENCODING 346
SWIDTH 583 0
DWIDTH 7 0
BBX 7 12 0 0
BITMAP
0C
08
00
3E
22
20
30
18
1C
8C
8C
F8
ENDCHAR
STARTCHAR 015B
ENCODING 347
SWIDTH 416 0
DWIDTH 5 0
BBX 5 9 0 0
BITMAP
18
10
00
70
40
60
30
90
A0
ENDCHAR
STARTCHAR 015C
ENCODING 348
SWIDTH 583 0
DWIDTH 7 0
BBX 7 12 0 0
BITMAP
0C
12
00
3E
22
20
30
18
1C
8C
8C
F8
ENDCHAR
STARTCHAR 015D
ENCODING 349
SWIDTH 416 0
DWIDTH 5 0
BBX 5 9 0 0
BITMAP
10
28
00
70
40
60
30
90
A0
ENDCHAR
STARTCHAR 015E
ENCODING 350
SWIDTH 583 0
DWIDTH 7 0
BBX 7 12 0 -3
BITMAP
3E
22
20
30
18
1C
8C
8C
F8
20
30
60
ENDCHAR
STARTCHAR 015F
ENCODING 351
SWIDTH 416 0
DWIDTH 5 0
BBX 4 9 0 -3
BITMAP
70
40
60
30
90
A0
40
20
C0
ENDCHAR
STARTCHAR 0160
ENCODING 352
SWIDTH 583 0
DWIDTH 7 0
BBX 7 12 0 0
BITMAP
14
18
00
3E
22
20
30
18
1C
8C
8C
F8
ENDCHAR
STARTCHAR 0161
ENCODING 353
SWIDTH 416 0
DWIDTH 5 0
BBX 5 9 0 0
BITMAP
48
30
00
70
40
60
30
90
A0
ENDCHAR
STARTCHAR 0162
ENCODING 354
SWIDTH 583 0
DWIDTH 7 0
BBX 7 12 1 -3
BITMAP
7E
1A
10
30
30
30
20
60
60
40
20
C0
ENDCHAR
STARTCHAR 0163
ENCODING 355
SWIDTH 250 0
DWIDTH 3 0
BBX 5 10 -1 -2
BITMAP
10
38
30
20
20
60
60
60
20
C0
ENDCHAR
STARTCHAR 0164
ENCODING 356
SWIDTH 583 0
DWIDTH 7 0
BBX 6 12 2 0
BITMAP
24
38
00
FC
34
20
60
60
60
40
C0
C0
ENDCHAR
STARTCHAR 0165
ENCODING 357
SWIDTH 500 0
DWIDTH 6 0
BBX 7 9 0 0
BITMAP
04
06
24
78
60
40
40
C0
C0
ENDCHAR
STARTCHAR 0166
ENCODING 358
SWIDTH 583 0
DWIDTH 7 0
BBX 7 9 1 0
BITMAP
7E
9A
92
30
FC
30
20
60
60
ENDCHAR
STARTCHAR 0167
ENCODING 359
SWIDTH 250 0
DWIDTH 3 0
BBX 4 7 0 1
BITMAP
20
70
60
E0
40
C0
C0
ENDCHAR
STARTCHAR 0168
ENCODING 360
SWIDTH 750 0
DWIDTH 9 0
BBX 8 12 1 0
BITMAP
0C
16
00
73
62
62
62
42
C4
C4
C4
78
ENDCHAR
STARTCHAR 0169
ENCODING 361
SWIDTH 583 0
DWIDTH 7 0
BBX 6 9 0 0
BITMAP
18
2C
00
64
6C
6C
58
E8
D8
ENDCHAR
STARTCHAR 016A
ENCODING 362
SWIDTH 750 0
DWIDTH 9 0
BBX 8 11 1 0
BITMAP
1E
00
73
62
62
62
42
C4
C4
C4
78
ENDCHAR
STARTCHAR 016B
ENCODING 363
SWIDTH 583 0
DWIDTH 7 0
BBX 6 8 0 0
BITMAP
3C
00
64
6C
6C
58
E8
D8
ENDCHAR
STARTCHAR 016C
ENCODING 364
SWIDTH 750 0
DWIDTH 9 0
BBX 8 11 1 1
BITMAP
0E
00
73
62
62
62
42
C4
C4
C4
78
ENDCHAR
STARTCHAR 016D
ENCODING 365
SWIDTH 583 0
DWIDTH 7 0
BBX 6 9 0 0
BITMAP
04
18
00
64
6C
6C
58
E8
D8
ENDCHAR
STARTCHAR 016E
ENCODING 366
SWIDTH 750 0
DWIDTH 9 0
BBX 8 12 1 0
BITMAP
0C
14
0C
73
62
62
62
42
C4
C4
C4
78
ENDCHAR
STARTCHAR 016F
ENCODING 367
SWIDTH 583 0
DWIDTH 7 0
BBX 6 9 0 0
BITMAP
18
28
18
64
6C
6C
58
E8
D8
ENDCHAR
STARTCHAR 0170
ENCODING 368
SWIDTH 750 0
DWIDTH 9 0
BBX 8 12 1 0
BITMAP
0A
14
00
73
62
62
62
42
C4
C4
C4
78
ENDCHAR
STARTCHAR 0171
ENCODING 369
SWIDTH 583 0
DWIDTH 7 0
BBX 7 9 0 0
BITMAP
1E
14
00
64
6C
6C
58
E8
D8
ENDCHAR
STARTCHAR 0172
ENCODING 370
SWIDTH 750 0
DWIDTH 9 0
BBX 8 12 1 -3
BITMAP
73
62
62
62
42
C4
C4
C4
78
20
20
30
ENDCHAR
STARTCHAR 0173
ENCODING 371
SWIDTH 583 0
DWIDTH 7 0
BBX 6 9 0 -3
BITMAP
64
6C
6C
58
E8
D8
10
10
10
ENDCHAR
STARTCHAR 0174
ENCODING 372
SWIDTH 916 0
DWIDTH 11 0
BBX 9 12 2 0
BITMAP
0600
0A00
0000
CC80
CC80
CD00
DE00
EA00
CC00
C800
8800
1000
ENDCHAR
STARTCHAR 0175
ENCODING 373
SWIDTH 666 0
DWIDTH 8 0
BBX 7 9 1 0
BITMAP
0C
14
00
82
D2
F2
DC
98
90
ENDCHAR
STARTCHAR 0176
ENCODING 374
SWIDTH 583 0
DWIDTH 7 0
BBX 6 12 2 0
BITMAP
18
38
04
C4
C8
48
70
60
60
60
40
C0
ENDCHAR
STARTCHAR 0177
ENCODING 375
SWIDTH 416 0
DWIDTH 5 0
BBX 6 12 -1 -3
BITMAP
0C
14
00
24
34
34
38
38
30
20
A0
C0
ENDCHAR
STARTCHAR 0178
ENCODING 376
SWIDTH 583 0
DWIDTH 7 0
BBX 6 11 2 0
BITMAP
28
28
C4
C8
48
70
60
60
60
40
C0
ENDCHAR
STARTCHAR 0179
ENCODING 377
SWIDTH 583 0
DWIDTH 7 0
BBX 8 12 0 0
BITMAP
06
0C
08
3F
06
0E
0C
18
30
72
64
DC
ENDCHAR
STARTCHAR 017A
ENCODING 378
SWIDTH 416 0
DWIDTH 5 0
BBX 5 10 0 -1
BITMAP
18
10
00
70
10
20
40
80
D0
20
ENDCHAR
STARTCHAR 017B
ENCODING 379
SWIDTH 583 0
DWIDTH 7 0
BBX 8 11 0 0
BITMAP
08
08
3F
06
0E
0C
18
30
72
64
DC
ENDCHAR
STARTCHAR 017C
ENCODING 380
SWIDTH 416 0
DWIDTH 5 0
BBX 4 10 0 -1
BITMAP
30
30
00
70
10
20
40
80
D0
20
ENDCHAR
STARTCHAR 017D
ENCODING 381
SWIDTH 583 0
DWIDTH 7 0
BBX 8 12 0 0
BITMAP
12
0C
00
3F
06
0E
0C
18
30
72
64
DC
ENDCHAR
STARTCHAR 017E
ENCODING 382
SWIDTH 416 0
DWIDTH 5 0
BBX 5 10 0 -1
BITMAP
48
30
00
70
10
20
40
80
D0
20
ENDCHAR
STARTCHAR 017F
ENCODING 383
SWIDTH 333 0
DWIDTH 4 0
BBX 8 12 -2 -3
BITMAP
03
05
0C
08
18
18
18
10
10
30
20
C0
ENDCHAR
STARTCHAR 0180
ENCODING 384
SWIDTH 500 0
DWIDTH 6 0
BBX 6 9 0 0
BITMAP
70
78
20
78
6C
4C
48
D8
F0
ENDCHAR
STARTCHAR 0181
ENCODING 385
SWIDTH 750 0
DWIDTH 9 0
BBX 7 9 1 0
BITMAP
FE
B6
36
26
78
64
66
4C
FC
ENDCHAR
STARTCHAR 0182
ENCODING 386
SWIDTH 666 0
DWIDTH 8 0
BBX 8 9 0 0
BITMAP
3F
31
30
30
38
66
66
66
FC
ENDCHAR
STARTCHAR 0183
ENCODING 387
SWIDTH 500 0
DWIDTH 6 0
BBX 7 9 0 0
BITMAP
3E
24
20
78
6C
4C
48
D8
F0
ENDCHAR
STARTCHAR 0184
ENCODING 388
SWIDTH 666 0
DWIDTH 8 0
BBX 7 9 0 0
BITMAP
18
30
30
30
38
66
66
66
FC
ENDCHAR
STARTCHAR 0185
ENCODING 389
SWIDTH 500 0
DWIDTH 6 0
BBX 6 9 0 0
BITMAP
10
60
60
78
6C
4C
48
D8
F0
ENDCHAR
STARTCHAR 0186
ENCODING 390
SWIDTH 666 0
DWIDTH 8 0
BBX 8 9 0 0
BITMAP
1E
22
03
03
03
03
06
8C
F8
ENDCHAR
STARTCHAR 0187
ENCODING 391
SWIDTH 666 0
DWIDTH 8 0
BBX 10 11 1 0
BITMAP
00C0
0140
1F00
2000
6000
C000
C000
C000
C000
C400
7800
ENDCHAR
STARTCHAR 0188
ENCODING 392
SWIDTH 416 0
DWIDTH 5 0
BBX 8 8 0 0
BITMAP
03
05
3C
40
40
C0
C8
70
ENDCHAR
STARTCHAR 0189
ENCODING 393
SWIDTH 750 0
DWIDTH 9 0
BBX 7 9 1 0
BITMAP
7C
66
66
66
F6
46
C6
CC
F8
ENDCHAR
STARTCHAR 018A
ENCODING 394
SWIDTH 750 0
DWIDTH 9 0
BBX 8 9 1 0
BITMAP
FC
B3
33
23
63
63
66
46
F8
ENDCHAR
STARTCHAR 018B
ENCODING 395
SWIDTH 666 0
DWIDTH 8 0
BBX 8 9 0 0
BITMAP
3F
06
06
06
3C
4C
CC
CC
7C
ENDCHAR
STARTCHAR 018C
ENCODING 396
SWIDTH 500 0
DWIDTH 6 0
BBX 6 9 0 0
BITMAP
3C
44
4C
3C
68
48
D8
DC
F8
ENDCHAR
STARTCHAR 018D
ENCODING 397
SWIDTH 500 0
DWIDTH 6 0
BBX 6 9 0 -3
BITMAP
38
6C
4C
CC
D8
60
20
A0
E0
ENDCHAR
STARTCHAR 018E
ENCODING 398
SWIDTH 666 0
DWIDTH 8 0
BBX 8 9 0 0
BITMAP
1F
23
02
06
1E
26
04
8C
FC
ENDCHAR
STARTCHAR 018F
ENCODING 399
SWIDTH 750 0
DWIDTH 9 0
BBX 8 9 1 0
BITMAP
3C
46
42
03
FF
C6
C6
CC
78
ENDCHAR
STARTCHAR 0190
ENCODING 400
SWIDTH 500 0
DWIDTH 6 0
BBX 7 9 0 0
BITMAP
1E
32
20
30
18
60
C0
C0
F0
ENDCHAR
STARTCHAR 0191
ENCODING 401
SWIDTH 666 0
DWIDTH 8 0
BBX 10 12 -1 -3
BITMAP
0FC0
0C80
0800
1900
1E00
1800
1000
3000
3000
3000
2000
C000
ENDCHAR
STARTCHAR 0192
ENCODING 402
SWIDTH 500 0
DWIDTH 6 0
BBX 6 12 0 -3
BITMAP
0C
10
10
38
30
30
30
30
20
20
20
C0
ENDCHAR
STARTCHAR 0193
ENCODING 403
SWIDTH 750 0
DWIDTH 9 0
BBX 10 11 1 0
BITMAP
0040
01C0
1F00
2100
6000
C000
CF00
C600
C400
CC00
6C00
ENDCHAR
STARTCHAR 0194
ENCODING 404
SWIDTH 666 0
DWIDTH 8 0
BBX 8 12 1 -3
BITMAP
61
61
62
64
64
28
30
30
30
30
F0
60
ENDCHAR
STARTCHAR 0195
ENCODING 405
SWIDTH 750 0
DWIDTH 9 0
BBX 9 9 0 0
BITMAP
3000
3000
2000
2C80
7D80
6D80
4900
4900
CA00
ENDCHAR
STARTCHAR 0196
ENCODING 406
SWIDTH 250 0
DWIDTH 3 0
BBX 4 9 0 0
BITMAP
70
20
20
60
60
40
40
E0
C0
ENDCHAR
STARTCHAR 0197
ENCODING 407
SWIDTH 416 0
DWIDTH 5 0
BBX 5 9 0 0
BITMAP
38
30
30
30
78
20
60
60
E0
ENDCHAR
STARTCHAR 0198
ENCODING 408
SWIDTH 666 0
DWIDTH 8 0
BBX 9 9 0 0
BITMAP
1D80
1600
3400
3800
3800
6C00
6C00
6400
EE00
ENDCHAR
STARTCHAR 0199
ENCODING 409
SWIDTH 500 0
DWIDTH 6 0
BBX 6 9 0 0
BITMAP
1C
30
20
28
70
50
70
DC
D8
ENDCHAR
STARTCHAR 019A
ENCODING 410
SWIDTH 250 0
DWIDTH 3 0
BBX 4 9 0 0
BITMAP
70
20
20
60
F0
40
40
E0
C0
ENDCHAR
STARTCHAR 019B
ENCODING 411
SWIDTH 416 0
DWIDTH 5 0
BBX 5 9 0 0
BITMAP
30
10
30
10
10
30
70
D0
D8
ENDCHAR
STARTCHAR 019C
ENCODING 412
SWIDTH 833 0
DWIDTH 10 0
BBX 9 9 1 0
BITMAP
6D80
6D80
6D80
4D80
D900
DB00
DB00
FF00
9B00
ENDCHAR
STARTCHAR 019D
ENCODING 413
SWIDTH 750 0
DWIDTH 9 0
BBX 11 12 -2 -3
BITMAP
0C20
0640
0E40
1340
1340
1180
1180
2080
2080
2000
2000
C000
ENDCHAR
STARTCHAR 019E
ENCODING 414
SWIDTH 583 0
DWIDTH 7 0
BBX 6 9 0 -3
BITMAP
6C
74
6C
6C
48
C8
18
18
10
ENDCHAR
STARTCHAR 019F
ENCODING 415
SWIDTH 750 0
DWIDTH 9 0
BBX 8 9 1 0
BITMAP
1C
22
63
C3
FE
C6
C4
CC
70
ENDCHAR
STARTCHAR 01A0
ENCODING 416
SWIDTH 750 0
DWIDTH 9 0
BBX 9 9 1 1
BITMAP
1C80
2300
6300
C300
C600
C600
C400
CC00
7000
ENDCHAR
STARTCHAR 01A1
ENCODING 417
SWIDTH 500 0
DWIDTH 6 0
BBX 7 7 0 1
BITMAP
02
3E
6C
48
C8
D8
60
ENDCHAR
STARTCHAR 01A2
ENCODING 418
SWIDTH 1000 0
DWIDTH 12 0
BBX 12 12 1 -3
BITMAP
1FF0
6320
C360
C360
C260
C640
C6C0
C6C0
7CC0
0080
0180
0180
ENDCHAR
STARTCHAR 01A3
ENCODING 419
SWIDTH 750 0
DWIDTH 9 0
BBX 9 9 0 -3
BITMAP
3F80
6500
4D00
CB00
CB00
5200
2200
0600
0600
ENDCHAR
STARTCHAR 01A4
ENCODING 420
SWIDTH 666 0
DWIDTH 8 0
BBX 7 9 1 0
BITMAP
FE
B6
36
26
7C
60
60
40
C0
ENDCHAR
STARTCHAR 01A5
ENCODING 421
SWIDTH 500 0
DWIDTH 6 0
BBX 7 12 -1 -3
BITMAP
0E
18
10
3C
36
26
24
6C
68
50
40
C0
ENDCHAR
STARTCHAR 01A6
ENCODING 422
SWIDTH 583 0
DWIDTH 7 0
BBX 7 11 0 -2
BITMAP
38
1C
36
32
36
26
7C
6C
EC
0C
06
ENDCHAR
STARTCHAR 01A7
ENCODING 423
SWIDTH 583 0
DWIDTH 7 0
BBX 7 9 0 0
BITMAP
3E
26
06
0C
38
60
C4
88
F8
ENDCHAR
STARTCHAR 01A8
ENCODING 424
SWIDTH 416 0
DWIDTH 5 0
BBX 5 6 0 0
BITMAP
38
18
30
40
90
A0
ENDCHAR
STARTCHAR 01A9
ENCODING 425
SWIDTH 583 0
DWIDTH 7 0
BBX 8 9 0 0
BITMAP
3F
31
18
18
10
20
42
7C
FC
ENDCHAR
STARTCHAR 01AA
ENCODING 426
SWIDTH 333 0
DWIDTH 4 0
BBX 4 12 0 -3
BITMAP
70
90
70
30
30
20
20
60
60
40
40
70
ENDCHAR
STARTCHAR 01AB
ENCODING 427
SWIDTH 250 0
DWIDTH 3 0
BBX 5 10 -1 -2
BITMAP
10
38
30
20
20
60
70
20
20
C0
ENDCHAR
STARTCHAR 01AC
ENCODING 428
SWIDTH 583 0
DWIDTH 7 0
BBX 7 9 1 0
BITMAP
7E
9A
10
30
30
30
20
60
60
ENDCHAR
STARTCHAR 01AD
ENCODING 429
SWIDTH 250 0
DWIDTH 3 0
BBX 6 9 0 0
BITMAP
1C
20
20
70
60
40
40
C0
C0
ENDCHAR
STARTCHAR 01AE
ENCODING 430
SWIDTH 583 0
DWIDTH 7 0
BBX 6 12 2 -3
BITMAP
FC
34
20
60
60
60
40
C0
C0
C0
80
A0
ENDCHAR
STARTCHAR 01AF
ENCODING 431
SWIDTH 750 0
DWIDTH 9 0
BBX 10 11 1 0
BITMAP
0040
0040
7180
6200
6200
6200
4200
C400
C400
C400
7800
ENDCHAR
STARTCHAR 01B0
ENCODING 432
SWIDTH 583 0
DWIDTH 7 0
BBX 8 6 0 1
BITMAP
65
6E
6C
58
E8
D8
ENDCHAR
STARTCHAR 01B1
ENCODING 433
SWIDTH 750 0
DWIDTH 9 0
BBX 9 9 1 0
BITMAP
7780
7700
A400
6200
C200
C600
C600
C400
7800
ENDCHAR
STARTCHAR 01B2
ENCODING 434
SWIDTH 750 0
DWIDTH 9 0
BBX 8 9 1 0
BITMAP
76
61
61
62
42
C2
C4
C4
78
ENDCHAR
STARTCHAR 01B3
ENCODING 435
SWIDTH 666 0
DWIDTH 8 0
BBX 7 9 2 0
BITMAP
C2
C6
48
70
60
60
60
C0
C0
ENDCHAR
STARTCHAR 01B4
ENCODING 436
SWIDTH 500 0
DWIDTH 6 0
BBX 11 12 -1 -3
BITMAP
0060
00A0
0100
2200
3200
3400
3800
3800
3000
2000
A000
C000
ENDCHAR
STARTCHAR 01B5
ENCODING 437
SWIDTH 583 0
DWIDTH 7 0
BBX 8 9 0 0
BITMAP
3F
06
0E
0C
7E
30
70
60
DC
ENDCHAR
STARTCHAR 01B6
ENCODING 438
SWIDTH 416 0
DWIDTH 5 0
BBX 4 7 0 -1
BITMAP
70
10
20
70
40
D0
20
ENDCHAR
STARTCHAR 01B7
ENCODING 439
SWIDTH 500 0
DWIDTH 6 0
BBX 7 12 0 -3
BITMAP
3E
4C
1C
18
30
18
0C
0C
0C
08
18
E0
ENDCHAR
STARTCHAR 01B8
ENCODING 440
SWIDTH 500 0
DWIDTH 6 0
BBX 7 12 0 -3
BITMAP
3E
30
18
18
18
60
C0
C0
80
80
80
70
ENDCHAR
STARTCHAR 01B9
ENCODING 441
SWIDTH 500 0
DWIDTH 6 0
BBX 6 9 0 -3
BITMAP
7C
24
30
30
C0
80
80
80
E0
ENDCHAR
STARTCHAR 01BA
ENCODING 442
SWIDTH 500 0
DWIDTH 6 0
BBX 6 9 0 -3
BITMAP
7C
18
30
18
10
60
80
80
E0
ENDCHAR
STARTCHAR 01BB
ENCODING 443
SWIDTH 500 0
DWIDTH 6 0
BBX 6 9 0 0
BITMAP
38
0C
0C
08
7C
10
20
58
F0
ENDCHAR
STARTCHAR 01BC
ENCODING 444
SWIDTH 500 0
DWIDTH 6 0
BBX 5 9 1 0
BITMAP
78
88
80
F0
30
10
10
10
E0
ENDCHAR
STARTCHAR 01BD
ENCODING 445
SWIDTH 416 0
DWIDTH 5 0
BBX 5 6 0 0
BITMAP
78
40
60
30
10
E0
ENDCHAR
STARTCHAR 01BE
ENCODING 446
SWIDTH 333 0
DWIDTH 4 0
BBX 4 7 0 1
BITMAP
20
70
60
60
30
90
E0
ENDCHAR
STARTCHAR 01BF
ENCODING 447
SWIDTH 500 0
DWIDTH 6 0
BBX 7 9 -1 -3
BITMAP
3C
36
26
24
68
70
40
40
80
ENDCHAR
STARTCHAR 01C0
ENCODING 448
SWIDTH 250 0
DWIDTH 3 0
BBX 1 9 1 0
BITMAP
80
80
80
80
80
80
80
80
80
ENDCHAR
STARTCHAR 01C1
ENCODING 449
SWIDTH 333 0
DWIDTH 4 0
BBX 2 9 1 0
BITMAP
C0
C0
C0
C0
C0
C0
C0
C0
C0
ENDCHAR
STARTCHAR 01C2
ENCODING 450
SWIDTH 250 0
DWIDTH 3 0
BBX 3 9 0 0
BITMAP
40
40
40
E0
40
E0
40
40
40
ENDCHAR
STARTCHAR 01C3
ENCODING 451
SWIDTH 416 0
DWIDTH 5 0
BBX 3 9 1 0
BITMAP
20
20
60
40
40
00
00
80
80
ENDCHAR
STARTCHAR 01C4
ENCODING 452
SWIDTH 1333 0
DWIDTH 16 0
BBX 17 12 0 0
BITMAP
000900
000600
000000
3E1F80
332300
330600
330C00
331C00
631800
633000
666200
F87E00
ENDCHAR
STARTCHAR 01C5
ENCODING 453
SWIDTH 1083 0
DWIDTH 13 0
BBX 14 10 0 -1
BITMAP
3E24
3318
3300
3338
3350
6310
6320
6640
F868
0010
ENDCHAR
STARTCHAR 01C6
ENCODING 454
SWIDTH 916 0
DWIDTH 11 0
BBX 11 10 0 -1
BITMAP
0CA0
04C0
0C00
3DC0
6840
4880
D900
DD00
FB40
0080
ENDCHAR
STARTCHAR 01C7
ENCODING 455
SWIDTH 1083 0
DWIDTH 13 0
BBX 14 9 0 0
BITMAP
381C
3018
3018
3018
3010
6030
6030
63A0
FD40
ENDCHAR
STARTCHAR 01C8
ENCODING 456
SWIDTH 916 0
DWIDTH 11 0
BBX 11 12 0 -3
BITMAP
3860
3060
3000
30C0
3040
60C0
60C0
6280
FC80
0180
0180
0500
ENDCHAR
STARTCHAR 01C9
ENCODING 457
SWIDTH 583 0
DWIDTH 7 0
BBX 7 12 0 -3
BITMAP
76
26
20
6C
64
4C
4C
C8
C8
18
10
50
ENDCHAR
STARTCHAR 01CA
ENCODING 458
SWIDTH 1250 0
DWIDTH 15 0
BBX 15 9 0 0
BITMAP
3086
1904
390C
4D0C
4D0C
4608
4618
8258
C250
ENDCHAR
STARTCHAR 01CB
ENCODING 459
SWIDTH 1000 0
DWIDTH 12 0
BBX 12 12 0 -3
BITMAP
3090
1910
3900
2D70
4D30
4620
4620
8260
C260
0040
0040
0180
ENDCHAR
STARTCHAR 01CC
ENCODING 460
SWIDTH 833 0
DWIDTH 10 0
BBX 10 12 0 -3
BITMAP
0040
0040
0000
6CC0
7CC0
6C80
4880
4980
D980
0100
0100
0600
ENDCHAR
STARTCHAR 01CD
ENCODING 461
SWIDTH 666 0
DWIDTH 8 0
BBX 9 12 0 0
BITMAP
0480
0300
0000
0200
0600
0600
1E00
2600
3E00
4600
8600
8E00
ENDCHAR
STARTCHAR 01CE
ENCODING 462
SWIDTH 500 0
DWIDTH 6 0
BBX 6 9 0 0
BITMAP
14
18
00
3C
68
48
D8
DC
F8
ENDCHAR
STARTCHAR 01CF
ENCODING 463
SWIDTH 416 0
DWIDTH 5 0
BBX 6 12 0 0
BITMAP
04
18
00
38
30
30
30
30
60
60
60
E0
ENDCHAR
STARTCHAR 01D0
ENCODING 464
SWIDTH 250 0
DWIDTH 3 0
BBX 4 9 0 0
BITMAP
50
30
00
60
60
40
40
C0
C0
ENDCHAR
STARTCHAR 01D1
ENCODING 465
SWIDTH 750 0
DWIDTH 9 0
BBX 8 12 1 0
BITMAP
0A
0C
00
1C
22
63
C3
C6
C6
C4
CC
70
ENDCHAR
STARTCHAR 01D2
ENCODING 466
SWIDTH 500 0
DWIDTH 6 0
BBX 6 9 0 0
BITMAP
14
18
00
38
6C
4C
C8
D8
50
ENDCHAR
STARTCHAR 01D3
ENCODING 467
SWIDTH 750 0
DWIDTH 9 0
BBX 8 12 1 0
BITMAP
0A
0C
00
73
62
62
62
42
C4
C4
C4
78
ENDCHAR
STARTCHAR 01D4
ENCODING 468
SWIDTH 583 0
DWIDTH 7 0
BBX 6 9 0 0
BITMAP
14
18
00
64
6C
6C
58
E8
D8
ENDCHAR
STARTCHAR 01D5
ENCODING 469
SWIDTH 750 0
DWIDTH 9 0
BBX 8 12 1 0
BITMAP
0E
04
00
73
62
62
62
42
C4
C4
C4
78
ENDCHAR
STARTCHAR 01D6
ENCODING 470
SWIDTH 583 0
DWIDTH 7 0
BBX 7 10 0 0
BITMAP
3E
24
3C
00
64
6C
6C
58
E8
D8
ENDCHAR
STARTCHAR 01D7
ENCODING 471
SWIDTH 750 0
DWIDTH 9 0
BBX 8 12 1 0
BITMAP
04
04
00
73
62
62
62
42
C4
C4
C4
78
ENDCHAR
STARTCHAR 01D8
ENCODING 472
SWIDTH 583 0
DWIDTH 7 0
BBX 6 11 0 0
BITMAP
0C
08
24
3C
00
64
6C
6C
58
E8
D8
ENDCHAR
STARTCHAR 01D9
ENCODING 473
SWIDTH 750 0
DWIDTH 9 0
BBX 8 12 1 0
BITMAP
0C
04
00
73
62
62
62
42
C4
C4
C4
78
ENDCHAR
STARTCHAR 01DA
ENCODING 474
SWIDTH 583 0
DWIDTH 7 0
BBX 6 11 0 0
BITMAP
14
18
24
3C
00
64
6C
6C
58
E8
D8
ENDCHAR
STARTCHAR 01DB
ENCODING 475
SWIDTH 750 0
DWIDTH 9 0
BBX 8 12 1 0
BITMAP
04
04
00
73
62
62
62
42
C4
C4
C4
78
ENDCHAR
STARTCHAR 01DC
ENCODING 476
SWIDTH 583 0
DWIDTH 7 0
BBX 6 11 0 0
BITMAP
18
08
24
3C
00
64
6C
6C
58
E8
D8
ENDCHAR
STARTCHAR 01DD
ENCODING 477
SWIDTH 416 0
DWIDTH 5 0
BBX 5 6 0 0
BITMAP
38
58
18
78
90
E0
ENDCHAR
STARTCHAR 01DE
ENCODING 478
SWIDTH 666 0
DWIDTH 8 0
BBX 9 12 0 0
BITMAP
0380
0000
0500
0200
0600
0600
1E00
2600
3E00
4600
8600
8E00
ENDCHAR
STARTCHAR 01DF
ENCODING 479
SWIDTH 500 0
DWIDTH 6 0
BBX 6 10 0 0
BITMAP
3C
20
3C
00
3C
68
48
D8
DC
F8
ENDCHAR
STARTCHAR 01E0
ENCODING 480
SWIDTH 666 0
DWIDTH 8 0
BBX 9 12 0 0
BITMAP
0380
0000
0200
0200
0600
0600
1E00
2600
3E00
4600
8600
8E00
ENDCHAR
STARTCHAR 01E1
ENCODING 481
SWIDTH 500 0
DWIDTH 6 0
BBX 7 10 0 0
BITMAP
1E
18
18
00
3C
68
48
D8
DC
F8
ENDCHAR
STARTCHAR 01E2
ENCODING 482
SWIDTH 916 0
DWIDTH 11 0
BBX 11 11 0 0
BITMAP
01E0
0000
07E0
0720
0B00
1240
27C0
3E00
4620
8440
8FC0
ENDCHAR
STARTCHAR 01E3
ENCODING 483
SWIDTH 750 0
DWIDTH 9 0
BBX 8 8 0 0
BITMAP
0F
00
3F
6D
4B
DC
E8
CE
ENDCHAR
STARTCHAR 01E4
ENCODING 484
SWIDTH 750 0
DWIDTH 9 0
BBX 8 9 1 0
BITMAP
1F
21
60
C0
CF
C6
CE
CC
6C
ENDCHAR
STARTCHAR 01E5
ENCODING 485
SWIDTH 500 0
DWIDTH 6 0
BBX 7 9 -1 -3
BITMAP
1E
24
24
18
20
38
5C
FC
48
ENDCHAR
STARTCHAR 01E6
ENCODING 486
SWIDTH 750 0
DWIDTH 9 0
BBX 8 12 1 0
BITMAP
09
0E
04
1F
21
60
C0
CF
C6
C4
CC
6C
ENDCHAR
STARTCHAR 01E7
ENCODING 487
SWIDTH 500 0
DWIDTH 6 0
BBX 7 12 -1 -3
BITMAP
12
0C
00
1E
24
24
18
20
38
5C
8C
68
ENDCHAR
STARTCHAR 01E8
ENCODING 488
SWIDTH 666 0
DWIDTH 8 0
BBX 8 12 0 0
BITMAP
08
06
00
3B
32
34
38
38
6C
6C
64
EE
ENDCHAR
STARTCHAR 01E9
ENCODING 489
SWIDTH 500 0
DWIDTH 6 0
BBX 6 12 0 0
BITMAP
14
1C
00
30
30
20
28
70
50
70
DC
D8
ENDCHAR
STARTCHAR 01EA
ENCODING 490
SWIDTH 750 0
DWIDTH 9 0
BBX 8 12 1 -3
BITMAP
1C
22
63
C3
C6
C6
C4
CC
78
20
20
30
ENDCHAR
STARTCHAR 01EB
ENCODING 491
SWIDTH 500 0
DWIDTH 6 0
BBX 6 9 0 -3
BITMAP
38
6C
4C
C8
D8
50
60
40
60
ENDCHAR
STARTCHAR 01EC
ENCODING 492
SWIDTH 750 0
DWIDTH 9 0
BBX 8 14 1 -3
BITMAP
1E
00
1C
22
63
C3
C6
C6
C4
CC
78
20
20
30
ENDCHAR
STARTCHAR 01ED
ENCODING 493
SWIDTH 500 0
DWIDTH 6 0
BBX 6 11 0 -3
BITMAP
3C
00
38
6C
4C
C8
D8
50
60
40
60
ENDCHAR
STARTCHAR 01EE
ENCODING 494
SWIDTH 500 0
DWIDTH 6 0
BBX 7 15 0 -3
BITMAP
12
0C
00
3E
4C
1C
18
30
18
0C
0C
0C
08
18
E0
ENDCHAR
STARTCHAR 01EF
ENCODING 495
SWIDTH 500 0
DWIDTH 6 0
BBX 6 12 0 -3
BITMAP
04
18
00
7C
18
30
60
10
10
10
30
E0
ENDCHAR
STARTCHAR 01F0
ENCODING 496
SWIDTH 250 0
DWIDTH 3 0
BBX 7 12 -2 -3
BITMAP
12
0C
00
18
18
18
10
10
30
30
20
C0
ENDCHAR
STARTCHAR 01F1
ENCODING 497
SWIDTH 1333 0
DWIDTH 16 0
BBX 17 9 0 0
BITMAP
3E1F80
332300
330600
330C00
331C00
631800
633000
666200
F87E00
ENDCHAR
STARTCHAR 01F2
ENCODING 498
SWIDTH 1083 0
DWIDTH 13 0
BBX 13 10 0 -1
BITMAP
3E00
3300
3300
3338
3350
6310
6320
6640
F868
0010
ENDCHAR
STARTCHAR 01F3
ENCODING 499
SWIDTH 916 0
DWIDTH 11 0
BBX 10 10 0 -1
BITMAP
0C00
0400
0C00
3DC0
6840
4880
D900
DD00
FB40
0080
ENDCHAR
STARTCHAR 01F4
ENCODING 500
SWIDTH 750 0
DWIDTH 9 0
BBX 8 12 1 0
BITMAP
02
04
04
1F
21
60
C0
CF
C6
C4
CC
6C
ENDCHAR
STARTCHAR 01F5
ENCODING 501
SWIDTH 500 0
DWIDTH 6 0
BBX 7 12 -1 -3
BITMAP
04
00
00
1E
24
24
18
20
38
5C
8C
68
ENDCHAR
STARTCHAR 01F6
ENCODING 502
SWIDTH 1000 0
DWIDTH 12 0
BBX 12 9 0 0
BITMAP
39C0
3180
3180
3130
3F20
6320
6360
6240
E280
ENDCHAR
STARTCHAR 01F7
ENCODING 503
SWIDTH 666 0
DWIDTH 8 0
BBX 9 12 -1 -3
BITMAP
0B80
1D80
1980
1980
1180
3100
3200
3400
3800
6000
6000
8000
ENDCHAR
STARTCHAR 01F8
ENCODING 504
SWIDTH 750 0
DWIDTH 9 0
BBX 9 12 0 0
BITMAP
0C00
0400
0000
3080
1900
3900
4D00
4D00
4600
4600
8200
C200
ENDCHAR
STARTCHAR 01F9
ENCODING 505
SWIDTH 583 0
DWIDTH 7 0
BBX 6 9 0 0
BITMAP
10
08
00
6C
7C
6C
48
48
D8
ENDCHAR
STARTCHAR 01FA
ENCODING 506
SWIDTH 666 0
DWIDTH 8 0
BBX 9 14 0 0
BITMAP
0180
0100
0000
0200
0500
0200
0600
0600
1E00
2600
3E00
4600
8600
8E00
ENDCHAR
STARTCHAR 01FB
ENCODING 507
SWIDTH 500 0
DWIDTH 6 0
BBX 6 12 0 0
BITMAP
04
08
00
18
28
18
3C
68
48
D8
DC
F8
ENDCHAR
STARTCHAR 01FC
ENCODING 508
SWIDTH 916 0
DWIDTH 11 0
BBX 11 12 0 0
BITMAP
0080
0100
0100
07E0
0720
0B00
1240
27C0
3E00
4620
8440
8FC0
ENDCHAR
STARTCHAR 01FD
ENCODING 509
SWIDTH 750 0
DWIDTH 9 0
BBX 8 9 0 0
BITMAP
06
04
00
3F
6D
4B
DC
E8
CE
ENDCHAR
STARTCHAR 01FE
ENCODING 510
SWIDTH 750 0
DWIDTH 9 0
BBX 8 12 1 0
BITMAP
04
08
00
1D
22
67
CB
D6
E6
C4
CC
70
ENDCHAR
STARTCHAR 01FF
ENCODING 511
SWIDTH 500 0
DWIDTH 6 0
BBX 6 9 0 0
BITMAP
08
08
00
3C
6C
5C
E8
D8
D0
ENDCHAR
STARTCHAR 0200
ENCODING 512
SWIDTH 666 0
DWIDTH 8 0
BBX 8 11 0 1
BITMAP
0F
05
02
06
06
1E
26
3E
46
86
8E
ENDCHAR
STARTCHAR 0201
ENCODING 513
SWIDTH 500 0
DWIDTH 6 0
BBX 6 9 0 0
BITMAP
28
20
00
3C
68
48
D8
DC
F8
ENDCHAR
STARTCHAR 0202
ENCODING 514
SWIDTH 666 0
DWIDTH 8 0
BBX 8 12 0 0
BITMAP
03
05
00
02
06
06
1E
26
3E
46
86
8E
ENDCHAR
STARTCHAR 0203
ENCODING 515
SWIDTH 500 0
DWIDTH 6 0
BBX 6 9 0 0
BITMAP
18
04
00
3C
68
48
D8
DC
F8
ENDCHAR
STARTCHAR 0204
ENCODING 516
SWIDTH 666 0
DWIDTH 8 0
BBX 7 11 1 1
BITMAP
3C
14
3E
22
62
60
78
C8
C0
C4
FC
ENDCHAR
STARTCHAR 0205
ENCODING 517
SWIDTH 416 0
DWIDTH 5 0
BBX 5 9 0 0
BITMAP
28
20
00
18
68
50
E0
C8
70
ENDCHAR
STARTCHAR 0206
ENCODING 518
SWIDTH 666 0
DWIDTH 8 0
BBX 7 12 1 0
BITMAP
0C
10
00
3E
22
62
60
78
C8
C0
C4
FC
ENDCHAR
STARTCHAR 0207
ENCODING 519
SWIDTH 416 0
DWIDTH 5 0
BBX 6 9 0 0
BITMAP
1C
04
00
18
68
50
E0
C8
70
ENDCHAR
STARTCHAR 0208
ENCODING 520
SWIDTH 416 0
DWIDTH 5 0
BBX 6 11 0 1
BITMAP
28
04
38
30
30
30
30
60
60
60
E0
ENDCHAR
STARTCHAR 0209
ENCODING 521
SWIDTH 250 0
DWIDTH 3 0
BBX 4 9 0 0
BITMAP
A0
50
00
60
60
40
40
C0
C0
ENDCHAR
STARTCHAR 020A
ENCODING 522
SWIDTH 416 0
DWIDTH 5 0
BBX 6 12 0 0
BITMAP
18
04
00
38
30
30
30
30
60
60
60
E0
ENDCHAR
STARTCHAR 020B
ENCODING 523
SWIDTH 250 0
DWIDTH 3 0
BBX 4 9 0 0
BITMAP
30
50
00
60
60
40
40
C0
C0
ENDCHAR
STARTCHAR 020C
ENCODING 524
SWIDTH 750 0
DWIDTH 9 0
BBX 8 12 1 0
BITMAP
34
14
00
1C
22
63
C3
C6
C6
C4
CC
70
ENDCHAR
STARTCHAR 020D
ENCODING 525
SWIDTH 500 0
DWIDTH 6 0
BBX 6 9 0 0
BITMAP
28
28
00
38
6C
4C
C8
D8
50
ENDCHAR
STARTCHAR 020E
ENCODING 526
SWIDTH 750 0
DWIDTH 9 0
BBX 8 12 1 0
BITMAP
0C
12
12
1C
22
63
C3
C6
C6
C4
CC
70
ENDCHAR
STARTCHAR 020F
ENCODING 527
SWIDTH 500 0
DWIDTH 6 0
BBX 6 9 0 0
BITMAP
18
04
00
38
6C
4C
C8
D8
50
ENDCHAR
STARTCHAR 0210
ENCODING 528
SWIDTH 666 0
DWIDTH 8 0
BBX 7 11 1 1
BITMAP
28
04
7C
26
66
6C
78
D8
D8
C8
CC
ENDCHAR
STARTCHAR 0211
ENCODING 529
SWIDTH 416 0
DWIDTH 5 0
BBX 5 9 0 0
BITMAP
D0
50
00
78
78
60
40
40
C0
ENDCHAR
STARTCHAR 0212
ENCODING 530
SWIDTH 666 0
DWIDTH 8 0
BBX 7 12 1 0
BITMAP
0C
14
00
7C
26
66
6C
78
D8
D8
C8
CC
ENDCHAR
STARTCHAR 0213
ENCODING 531
SWIDTH 416 0
DWIDTH 5 0
BBX 5 9 0 0
BITMAP
30
08
00
78
78
60
40
40
C0
ENDCHAR
STARTCHAR 0214
ENCODING 532
SWIDTH 750 0
DWIDTH 9 0
BBX 8 12 1 0
BITMAP
34
14
00
73
62
62
62
42
C4
C4
C4
78
ENDCHAR
STARTCHAR 0215
ENCODING 533
SWIDTH 583 0
DWIDTH 7 0
BBX 6 9 0 0
BITMAP
28
20
00
64
6C
6C
58
E8
D8
ENDCHAR
STARTCHAR 0216
ENCODING 534
SWIDTH 750 0
DWIDTH 9 0
BBX 8 12 1 0
BITMAP
0E
02
00
73
62
62
62
42
C4
C4
C4
78
ENDCHAR
STARTCHAR 0217
ENCODING 535
SWIDTH 583 0
DWIDTH 7 0
BBX 6 9 0 0
BITMAP
18
04
00
64
6C
6C
58
E8
D8
ENDCHAR
STARTCHAR 0218
ENCODING 536
SWIDTH 583 0
DWIDTH 7 0
BBX 7 12 0 -4
BITMAP
3E
22
20
30
18
1C
8C
8C
F8
00
20
20
ENDCHAR
STARTCHAR 0219
ENCODING 537
SWIDTH 416 0
DWIDTH 5 0
BBX 4 9 0 -4
BITMAP
70
40
60
30
90
A0
40
40
40
ENDCHAR
STARTCHAR 021A
ENCODING 538
SWIDTH 583 0
DWIDTH 7 0
BBX 6 12 2 -4
BITMAP
FC
34
20
60
60
60
40
C0
C0
00
80
80
ENDCHAR
STARTCHAR 021B
ENCODING 539
SWIDTH 250 0
DWIDTH 3 0
BBX 4 10 0 -3
BITMAP
20
70
60
40
40
C0
C0
00
C0
80
ENDCHAR
STARTCHAR 021C
ENCODING 540
SWIDTH 583 0
DWIDTH 7 0
BBX 7 12 0 -3
BITMAP
3E
26
06
06
0C
30
08
0C
0C
18
30
C0
ENDCHAR
STARTCHAR 021D
ENCODING 541
SWIDTH 416 0
DWIDTH 5 0
BBX 5 9 0 -3
BITMAP
78
18
10
20
30
30
20
40
80
ENDCHAR
STARTCHAR 021E
ENCODING 542
SWIDTH 750 0
DWIDTH 9 0
BBX 10 11 0 1
BITMAP
0700
0000
39C0
3180
3180
3100
3F00
6300
6300
6200
E600
ENDCHAR
STARTCHAR 021F
ENCODING 543
SWIDTH 583 0
DWIDTH 7 0
BBX 6 12 0 0
BITMAP
14
1C
00
30
30
20
2C
7C
6C
48
48
C8
ENDCHAR
STARTCHAR 0220
ENCODING 544
SWIDTH 750 0
DWIDTH 9 0
BBX 9 12 0 -3
BITMAP
3F80
1180
3180
3180
3300
2300
6300
6300
E600
0600
0600
0E00
ENDCHAR
STARTCHAR 0221
ENCODING 545
SWIDTH 500 0
DWIDTH 6 0
BBX 6 12 0 -3
BITMAP
0C
04
0C
3C
68
48
D8
D8
F0
1C
34
18
ENDCHAR
STARTCHAR 0222
ENCODING 546
SWIDTH 666 0
DWIDTH 8 0
BBX 8 9 0 0
BITMAP
02
33
23
22
1C
66
C6
C6
7C
ENDCHAR
STARTCHAR 0223
ENCODING 547
SWIDTH 500 0
DWIDTH 6 0
BBX 7 9 0 1
BITMAP
12
22
26
38
44
C4
CC
C8
70
ENDCHAR
STARTCHAR 0224
ENCODING 548
SWIDTH 583 0
DWIDTH 7 0
BBX 8 12 0 -3
BITMAP
3F
06
0E
0C
18
30
70
60
C0
3E
04
08
ENDCHAR
STARTCHAR 0225
ENCODING 549
SWIDTH 416 0
DWIDTH 5 0
BBX 4 9 0 -3
BITMAP
70
10
20
40
80
F0
10
10
20
ENDCHAR
STARTCHAR 0226
ENCODING 550
SWIDTH 666 0
DWIDTH 8 0
BBX 8 11 0 0
BITMAP
03
03
02
06
06
1E
26
3E
46
86
8E
ENDCHAR
STARTCHAR 0227
ENCODING 551
SWIDTH 500 0
DWIDTH 6 0
BBX 6 9 0 0
BITMAP
18
18
00
3C
68
48
D8
DC
F8
ENDCHAR
STARTCHAR 0228
ENCODING 552
SWIDTH 666 0
DWIDTH 8 0
BBX 8 12 0 -3
BITMAP
3F
11
31
30
3C
64
60
62
FE
20
10
20
ENDCHAR
STARTCHAR 0229
ENCODING 553
SWIDTH 416 0
DWIDTH 5 0
BBX 5 9 0 -3
BITMAP
18
68
50
E0
C8
70
40
20
C0
ENDCHAR
STARTCHAR 022A
ENCODING 554
SWIDTH 750 0
DWIDTH 9 0
BBX 8 12 1 0
BITMAP
0E
08
00
1C
22
63
C3
C6
C6
C4
CC
70
ENDCHAR
STARTCHAR 022B
ENCODING 555
SWIDTH 500 0
DWIDTH 6 0
BBX 7 10 0 0
BITMAP
3E
24
3C
00
38
6C
4C
C8
D8
50
ENDCHAR
STARTCHAR 022C
ENCODING 556
SWIDTH 750 0
DWIDTH 9 0
BBX 8 12 1 0
BITMAP
0E
0A
14
1C
22
63
C3
C6
C6
C4
CC
70
ENDCHAR
STARTCHAR 022D
ENCODING 557
SWIDTH 500 0
DWIDTH 6 0
BBX 6 10 0 0
BITMAP
3C
34
38
00
38
6C
4C
C8
D8
50
ENDCHAR
STARTCHAR 022E
ENCODING 558
SWIDTH 750 0
DWIDTH 9 0
BBX 8 12 1 0
BITMAP
0C
0C
00
1C
22
63
C3
C6
C6
C4
CC
70
ENDCHAR
STARTCHAR 022F
ENCODING 559
SWIDTH 500 0
DWIDTH 6 0
BBX 6 9 0 0
BITMAP
18
18
00
38
6C
4C
C8
D8
50
ENDCHAR
STARTCHAR 0230
ENCODING 560
SWIDTH 750 0
DWIDTH 9 0
BBX 8 12 1 0
BITMAP
0E
04
00
1C
22
63
C3
C6
C6
C4
CC
70
ENDCHAR
STARTCHAR 0231
ENCODING 561
SWIDTH 500 0
DWIDTH 6 0
BBX 7 10 0 0
BITMAP
3E
18
18
00
38
6C
4C
C8
D8
50
ENDCHAR
STARTCHAR 0232
ENCODING 562
SWIDTH 583 0
DWIDTH 7 0
BBX 6 11 2 0
BITMAP
3C
00
C4
C8
48
70
60
60
60
40
C0
ENDCHAR
STARTCHAR 0233
ENCODING 563
SWIDTH 416 0
DWIDTH 5 0
BBX 7 11 -1 -3
BITMAP
1E
00
24
34
34
38
38
30
20
A0
C0
ENDCHAR
STARTCHAR 0234
ENCODING 564
SWIDTH 250 0
DWIDTH 3 0
BBX 4 12 0 -3
BITMAP
70
20
20
60
60
40
40
C0
C0
E0
A0
C0
ENDCHAR
STARTCHAR 0235
ENCODING 565
SWIDTH 583 0
DWIDTH 7 0
BBX 6 9 0 -3
BITMAP
6C
7C
6C
48
48
D8
1C
14
34
ENDCHAR
STARTCHAR 0236
ENCODING 566
SWIDTH 250 0
DWIDTH 3 0
BBX 4 7 0 1
BITMAP
20
70
60
40
60
D0
60
ENDCHAR
STARTCHAR 0237
ENCODING 567
SWIDTH 250 0
DWIDTH 3 0
BBX 5 9 -2 -3
BITMAP
18
18
18
10
10
30
30
20
C0
ENDCHAR
STARTCHAR 0238
ENCODING 568
SWIDTH 750 0
DWIDTH 9 0
BBX 8 9 0 0
BITMAP
0C
04
0C
3F
6D
49
D9
DB
EE
ENDCHAR
STARTCHAR 0239
ENCODING 569
SWIDTH 750 0
DWIDTH 9 0
BBX 9 9 0 -3
BITMAP
3F00
4D80
4900
D900
DB00
FA00
1400
3000
3000
ENDCHAR
STARTCHAR 023A
ENCODING 570
SWIDTH 666 0
DWIDTH 8 0
BBX 9 9 0 0
BITMAP
0280
0700
0600
1E00
2E00
3E00
2600
C600
8E00
ENDCHAR
STARTCHAR 023B
ENCODING 571
SWIDTH 666 0
DWIDTH 8 0
BBX 8 11 1 -1
BITMAP
02
1F
24
68
C8
D0
D0
E0
E4
78
40
ENDCHAR
STARTCHAR 023C
ENCODING 572
SWIDTH 500 0
DWIDTH 6 0
BBX 5 12 1 -3
BITMAP
10
10
20
70
F8
C0
C0
C0
E0
80
80
80
ENDCHAR
STARTCHAR 023D
ENCODING 573
SWIDTH 583 0
DWIDTH 7 0
BBX 7 9 0 0
BITMAP
38
30
30
30
78
60
60
62
FC
ENDCHAR
STARTCHAR 023E
ENCODING 574
SWIDTH 583 0
DWIDTH 7 0
BBX 8 9 0 0
BITMAP
3F
0F
0C
18
18
18
70
B0
30
ENDCHAR
STARTCHAR 023F
ENCODING 575
SWIDTH 416 0
DWIDTH 5 0
BBX 4 9 0 -3
BITMAP
70
40
60
30
90
A0
C0
50
60
ENDCHAR
STARTCHAR 0240
ENCODING 576
SWIDTH 416 0
DWIDTH 5 0
BBX 5 9 0 -3
BITMAP
70
10
20
40
40
C0
40
58
30
ENDCHAR
STARTCHAR 0241
ENCODING 577
SWIDTH 500 0
DWIDTH 6 0
BBX 5 9 1 0
BITMAP
78
C8
08
08
18
70
C0
C0
C0
ENDCHAR
STARTCHAR 0242
ENCODING 578
SWIDTH 500 0
DWIDTH 6 0
BBX 4 6 1 0
BITMAP
F0
90
10
20
40
C0
ENDCHAR
STARTCHAR 0243
ENCODING 579
SWIDTH 666 0
DWIDTH 8 0
BBX 8 9 0 0
BITMAP
1E
13
33
36
38
26
F6
66
FC
ENDCHAR
STARTCHAR 0244
ENCODING 580
SWIDTH 750 0
DWIDTH 9 0
BBX 8 9 1 0
BITMAP
71
62
62
62
FF
C4
C4
C4
78
ENDCHAR
STARTCHAR 0245
ENCODING 581
SWIDTH 666 0
DWIDTH 8 0
BBX 7 9 0 0
BITMAP
02
06
0E
16
16
26
44
84
8E
ENDCHAR
STARTCHAR 0246
ENCODING 582
SWIDTH 666 0
DWIDTH 8 0
BBX 8 10 0 0
BITMAP
3F
13
35
36
3C
70
70
62
FE
40
ENDCHAR
STARTCHAR 0247
ENCODING 583
SWIDTH 416 0
DWIDTH 5 0
BBX 5 10 0 -2
BITMAP
10
10
38
68
50
E0
C8
70
40
40
ENDCHAR
STARTCHAR 0248
ENCODING 584
SWIDTH 500 0
DWIDTH 6 0
BBX 6 9 0 0
BITMAP
0C
0C
0C
08
3C
18
18
B0
A0
ENDCHAR
STARTCHAR 0249
ENCODING 585
SWIDTH 250 0
DWIDTH 3 0
BBX 5 12 -2 -3
BITMAP
08
08
00
18
18
18
38
10
30
30
20
C0
ENDCHAR
STARTCHAR 024A
ENCODING 586
SWIDTH 750 0
DWIDTH 9 0
BBX 9 12 1 -3
BITMAP
1F80
6300
C300
C300
C300
C600
C600
C600
7C00
0C00
0C00
0600
ENDCHAR
STARTCHAR 024B
ENCODING 587
SWIDTH 500 0
DWIDTH 6 0
BBX 6 9 0 -3
BITMAP
3C
48
48
D8
D8
F0
10
10
18
ENDCHAR
STARTCHAR 024C
ENCODING 588
SWIDTH 666 0
DWIDTH 8 0
BBX 8 9 0 0
BITMAP
3E
13
33
36
7C
2C
6C
64
E6
ENDCHAR
STARTCHAR 024D
ENCODING 589
SWIDTH 416 0
DWIDTH 5 0
BBX 5 6 0 0
BITMAP
68
78
60
F0
40
C0
ENDCHAR
STARTCHAR 024E
ENCODING 590
SWIDTH 583 0
DWIDTH 7 0
BBX 7 9 1 0
BITMAP
62
64
FE
38
38
30
30
20
60
ENDCHAR
STARTCHAR 024F
ENCODING 591
SWIDTH 416 0
DWIDTH 5 0
BBX 6 9 -1 -3
BITMAP
24
34
34
7C
38
30
30
A0
C0
ENDCHAR
STARTCHAR 0250
ENCODING 592
SWIDTH 500 0
DWIDTH 6 0
BBX 5 6 0 0
BITMAP
78
68
48
70
D0
D0
ENDCHAR
STARTCHAR 0251
ENCODING 593
SWIDTH 500 0
DWIDTH 6 0
BBX 6 6 0 0
BITMAP
3C
68
48
D8
DC
F8
ENDCHAR
STARTCHAR 0252
ENCODING 594
SWIDTH 500 0
DWIDTH 6 0
BBX 6 6 0 0
BITMAP
6C
FC
6C
48
58
F0
ENDCHAR
STARTCHAR 0253
ENCODING 595
SWIDTH 500 0
DWIDTH 6 0
BBX 6 9 0 0
BITMAP
1C
30
20
78
6C
4C
48
D8
F0
ENDCHAR
STARTCHAR 0254
ENCODING 596
SWIDTH 416 0
DWIDTH 5 0
BBX 5 6 0 0
BITMAP
38
18
18
18
D0
A0
ENDCHAR
STARTCHAR 0255
ENCODING 597
SWIDTH 416 0
DWIDTH 5 0
BBX 6 6 -1 -1
BITMAP
1C
24
20
78
68
B8
ENDCHAR
STARTCHAR 0256
ENCODING 598
SWIDTH 500 0
DWIDTH 6 0
BBX 6 12 0 -3
BITMAP
0C
04
0C
3C
68
48
D8
D8
F0
10
10
18
ENDCHAR
STARTCHAR 0257
ENCODING 599
SWIDTH 500 0
DWIDTH 6 0
BBX 8 9 0 0
BITMAP
03
04
0C
3C
68
48
D8
DC
F8
ENDCHAR
STARTCHAR 0258
ENCODING 600
SWIDTH 416 0
DWIDTH 5 0
BBX 5 6 0 0
BITMAP
30
48
48
38
10
E0
ENDCHAR
STARTCHAR 0259
ENCODING 601
SWIDTH 416 0
DWIDTH 5 0
BBX 5 6 0 0
BITMAP
38
18
18
78
90
E0
ENDCHAR
STARTCHAR 025A
ENCODING 602
SWIDTH 583 0
DWIDTH 7 0
BBX 7 6 0 0
BITMAP
38
1C
1E
78
90
E0
ENDCHAR
STARTCHAR 025B
ENCODING 603
SWIDTH 416 0
DWIDTH 5 0
BBX 5 6 0 0
BITMAP
78
48
30
C0
C0
60
ENDCHAR
STARTCHAR 025C
ENCODING 604
SWIDTH 416 0
DWIDTH 5 0
BBX 4 6 1 0
BITMAP
E0
30
C0
20
60
C0
ENDCHAR
STARTCHAR 025D
ENCODING 605
SWIDTH 583 0
DWIDTH 7 0
BBX 7 6 0 0
BITMAP
70
58
66
10
30
E0
ENDCHAR
STARTCHAR 025E
ENCODING 606
SWIDTH 416 0
DWIDTH 5 0
BBX 5 6 0 0
BITMAP
38
48
B0
88
88
70
ENDCHAR
STARTCHAR 025F
ENCODING 607
SWIDTH 250 0
DWIDTH 3 0
BBX 5 9 -2 -3
BITMAP
18
18
18
10
10
38
30
20
C0
ENDCHAR
STARTCHAR 0260
ENCODING 608
SWIDTH 500 0
DWIDTH 6 0
BBX 8 12 0 -3
BITMAP
03
04
04
3C
48
48
D8
D8
F0
10
B0
C0
ENDCHAR
STARTCHAR 0261
ENCODING 609
SWIDTH 500 0
DWIDTH 6 0
BBX 6 9 0 -3
BITMAP
3C
48
48
D8
D8
F0
10
B0
C0
ENDCHAR
STARTCHAR 0262
ENCODING 610
SWIDTH 500 0
DWIDTH 6 0
BBX 6 6 0 0
BITMAP
3C
40
C0
DC
C8
58
ENDCHAR
STARTCHAR 0263
ENCODING 611
SWIDTH 500 0
DWIDTH 6 0
BBX 6 9 0 -3
BITMAP
64
68
68
70
20
20
60
A0
60
ENDCHAR
STARTCHAR 0264
ENCODING 612
SWIDTH 416 0
DWIDTH 5 0
BBX 6 6 0 0
BITMAP
6C
30
30
30
F0
60
ENDCHAR
STARTCHAR 0265
ENCODING 613
SWIDTH 583 0
DWIDTH 7 0
BBX 6 9 0 -3
BITMAP
64
EC
6C
58
68
58
18
10
18
ENDCHAR
STARTCHAR 0266
ENCODING 614
SWIDTH 583 0
DWIDTH 7 0
BBX 6 9 0 0
BITMAP
1C
34
20
2C
7C
6C
48
4C
D8
ENDCHAR
STARTCHAR 0267
ENCODING 615
SWIDTH 583 0
DWIDTH 7 0
BBX 6 12 0 -3
BITMAP
1C
34
20
2C
7C
6C
48
48
D8
18
10
60
ENDCHAR
STARTCHAR 0268
ENCODING 616
SWIDTH 250 0
DWIDTH 3 0
BBX 3 9 0 0
BITMAP
20
20
00
60
60
E0
40
E0
C0
ENDCHAR
STARTCHAR 0269
ENCODING 617
SWIDTH 250 0
DWIDTH 3 0
BBX 3 6 0 0
BITMAP
60
60
40
40
C0
C0
ENDCHAR
STARTCHAR 026A
ENCODING 618
SWIDTH 333 0
DWIDTH 4 0
BBX 3 6 0 0
BITMAP
20
60
60
40
40
C0
ENDCHAR
STARTCHAR 026B
ENCODING 619
SWIDTH 250 0
DWIDTH 3 0
BBX 4 9 0 0
BITMAP
70
20
20
F0
E0
40
C0
E0
C0
ENDCHAR
STARTCHAR 026C
ENCODING 620
SWIDTH 250 0
DWIDTH 3 0
BBX 4 9 0 0
BITMAP
70
20
20
60
E0
60
40
C0
C0
ENDCHAR
STARTCHAR 026D
ENCODING 621
SWIDTH 250 0
DWIDTH 3 0
BBX 4 12 0 -3
BITMAP
70
20
20
60
60
40
40
C0
C0
80
80
C0
ENDCHAR
STARTCHAR 026E
ENCODING 622
SWIDTH 583 0
DWIDTH 7 0
BBX 7 12 0 -3
BITMAP
70
20
20
7E
64
58
58
EC
CC
0C
08
70
ENDCHAR
STARTCHAR 026F
ENCODING 623
SWIDTH 750 0
DWIDTH 9 0
BBX 9 6 0 0
BITMAP
6D80
ED80
6900
5F00
FF00
DB00
ENDCHAR
STARTCHAR 0270
ENCODING 624
SWIDTH 750 0
DWIDTH 9 0
BBX 9 9 0 -3
BITMAP
6D80
ED80
6900
5B00
DB00
FF00
0200
0600
0700
ENDCHAR
STARTCHAR 0271
ENCODING 625
SWIDTH 750 0
DWIDTH 9 0
BBX 9 9 0 -3
BITMAP
6D80
7F80
6D00
4900
DB00
DB00
0200
0600
0C00
ENDCHAR
STARTCHAR 0272
ENCODING 626
SWIDTH 583 0
DWIDTH 7 0
BBX 8 9 -2 -3
BITMAP
1B
1F
1B
12
13
36
30
20
C0
ENDCHAR
STARTCHAR 0273
ENCODING 627
SWIDTH 583 0
DWIDTH 7 0
BBX 6 9 0 -3
BITMAP
6C
7C
6C
48
48
D8
18
10
14
ENDCHAR
STARTCHAR 0274
ENCODING 628
SWIDTH 500 0
DWIDTH 6 0
BBX 6 6 0 0
BITMAP
24
74
98
98
88
88
ENDCHAR
STARTCHAR 0275
ENCODING 629
SWIDTH 500 0
DWIDTH 6 0
BBX 6 6 0 0
BITMAP
38
6C
7C
C8
D8
50
ENDCHAR
STARTCHAR 0276
ENCODING 630
SWIDTH 666 0
DWIDTH 8 0
BBX 8 6 0 0
BITMAP
3F
6C
4E
CA
C8
5A
ENDCHAR
STARTCHAR 0277
ENCODING 631
SWIDTH 666 0
DWIDTH 8 0
BBX 8 6 0 0
BITMAP
3E
69
49
CB
D3
6E
ENDCHAR
STARTCHAR 0278
ENCODING 632
SWIDTH 666 0
DWIDTH 8 0
BBX 8 12 0 -3
BITMAP
04
0C
0C
3A
6B
5B
DB
D6
5C
30
30
30
ENDCHAR
STARTCHAR 0279
ENCODING 633
SWIDTH 416 0
DWIDTH 5 0
BBX 4 6 0 0
BITMAP
10
10
30
30
E0
B0
ENDCHAR
STARTCHAR 027A
ENCODING 634
SWIDTH 416 0
DWIDTH 5 0
BBX 5 9 0 0
BITMAP
08
18
18
10
10
30
30
E0
B0
ENDCHAR
STARTCHAR 027B
ENCODING 635
SWIDTH 416 0
DWIDTH 5 0
BBX 4 9 0 -3
BITMAP
10
10
30
30
E0
A0
20
20
30
ENDCHAR
STARTCHAR 027C
ENCODING 636
SWIDTH 416 0
DWIDTH 5 0
BBX 5 9 0 -3
BITMAP
78
58
60
40
40
C0
C0
80
80
ENDCHAR
STARTCHAR 027D
ENCODING 637
SWIDTH 416 0
DWIDTH 5 0
BBX 5 9 0 -3
BITMAP
78
58
60
40
40
C0
C0
80
A0
ENDCHAR
STARTCHAR 027E
ENCODING 638
SWIDTH 416 0
DWIDTH 5 0
BBX 5 6 0 0
BITMAP
38
68
40
40
40
C0
ENDCHAR
STARTCHAR 027F
ENCODING 639
SWIDTH 416 0
DWIDTH 5 0
BBX 3 9 1 -3
BITMAP
E0
20
20
60
40
40
40
C0
80
ENDCHAR
STARTCHAR 0280
ENCODING 640
SWIDTH 500 0
DWIDTH 6 0
BBX 5 6 0 0
BITMAP
78
68
68
70
50
D8
ENDCHAR
STARTCHAR 0281
ENCODING 641
SWIDTH 500 0
DWIDTH 6 0
BBX 6 6 0 0
BITMAP
24
68
78
70
58
F0
ENDCHAR
STARTCHAR 0282
ENCODING 642
SWIDTH 416 0
DWIDTH 5 0
BBX 4 9 0 -3
BITMAP
70
40
60
30
90
A0
C0
80
C0
ENDCHAR
STARTCHAR 0283
ENCODING 643
SWIDTH 333 0
DWIDTH 4 0
BBX 8 12 -2 -3
BITMAP
07
0D
08
08
18
18
18
10
10
30
20
C0
ENDCHAR
STARTCHAR 0284
ENCODING 644
SWIDTH 333 0
DWIDTH 4 0
BBX 8 12 -2 -3
BITMAP
07
0D
08
08
08
18
18
10
38
30
20
A0
ENDCHAR
STARTCHAR 0285
ENCODING 645
SWIDTH 333 0
DWIDTH 4 0
BBX 3 9 0 -3
BITMAP
E0
A0
60
60
40
40
C0
C0
60
ENDCHAR
STARTCHAR 0286
ENCODING 646
SWIDTH 333 0
DWIDTH 4 0
BBX 8 12 -2 -3
BITMAP
07
0D
08
08
18
18
18
10
30
70
A0
D0
ENDCHAR
STARTCHAR 0287
ENCODING 647
SWIDTH 250 0
DWIDTH 3 0
BBX 3 8 0 0
BITMAP
60
20
20
60
40
E0
C0
80
ENDCHAR
STARTCHAR 0288
ENCODING 648
SWIDTH 250 0
DWIDTH 3 0
BBX 4 10 0 -2
BITMAP
20
70
60
40
40
C0
C0
80
80
C0
ENDCHAR
STARTCHAR 0289
ENCODING 649
SWIDTH 583 0
DWIDTH 7 0
BBX 6 6 0 0
BITMAP
64
6C
FC
58
D8
78
ENDCHAR
STARTCHAR 028A
ENCODING 650
SWIDTH 583 0
DWIDTH 7 0
BBX 7 6 0 0
BITMAP
6E
64
44
CC
C8
50
ENDCHAR
STARTCHAR 028B
ENCODING 651
SWIDTH 500 0
DWIDTH 6 0
BBX 6 6 0 0
BITMAP
78
E4
68
48
48
70
ENDCHAR
STARTCHAR 028C
ENCODING 652
SWIDTH 416 0
DWIDTH 5 0
BBX 5 6 0 0
BITMAP
10
30
70
90
90
98
ENDCHAR
STARTCHAR 028D
ENCODING 653
SWIDTH 666 0
DWIDTH 8 0
BBX 7 6 0 0
BITMAP
12
32
76
9E
96
86
ENDCHAR
STARTCHAR 028E
ENCODING 654
SWIDTH 416 0
DWIDTH 5 0
BBX 6 9 0 0
BITMAP
04
1C
10
30
70
B0
90
90
98
ENDCHAR
STARTCHAR 028F
ENCODING 655
SWIDTH 416 0
DWIDTH 5 0
BBX 4 6 1 0
BITMAP
90
A0
C0
C0
C0
80
ENDCHAR
STARTCHAR 0290
ENCODING 656
SWIDTH 416 0
DWIDTH 5 0
BBX 5 9 0 -3
BITMAP
70
10
20
40
80
F0
30
20
28
ENDCHAR
STARTCHAR 0291
ENCODING 657
SWIDTH 416 0
DWIDTH 5 0
BBX 4 6 0 -1
BITMAP
70
10
20
50
F0
F0
ENDCHAR
STARTCHAR 0292
ENCODING 658
SWIDTH 500 0
DWIDTH 6 0
BBX 6 9 0 -3
BITMAP
7C
18
30
60
10
10
10
30
E0
ENDCHAR
STARTCHAR 0293
ENCODING 659
SWIDTH 500 0
DWIDTH 6 0
BBX 7 9 -1 -3
BITMAP
3E
0C
18
30
08
08
68
98
70
ENDCHAR
STARTCHAR 0294
ENCODING 660
SWIDTH 416 0
DWIDTH 5 0
BBX 5 9 0 0
BITMAP
38
68
08
08
18
70
40
40
C0
ENDCHAR
STARTCHAR 0295
ENCODING 661
SWIDTH 416 0
DWIDTH 5 0
BBX 5 9 1 0
BITMAP
30
58
80
80
80
E0
40
40
C0
ENDCHAR
STARTCHAR 0296
ENCODING 662
SWIDTH 416 0
DWIDTH 5 0
BBX 5 9 0 0
BITMAP
30
30
20
30
18
18
10
90
E0
ENDCHAR
STARTCHAR 0297
ENCODING 663
SWIDTH 500 0
DWIDTH 6 0
BBX 6 9 0 -3
BITMAP
38
64
40
C0
C0
80
80
80
F0
ENDCHAR
STARTCHAR 0298
ENCODING 664
SWIDTH 750 0
DWIDTH 9 0
BBX 8 9 1 0
BITMAP
1C
22
63
D3
DE
C6
C4
CC
70
ENDCHAR
STARTCHAR 0299
ENCODING 665
SWIDTH 500 0
DWIDTH 6 0
BBX 5 6 0 0
BITMAP
38
68
70
48
58
D0
ENDCHAR
STARTCHAR 029A
ENCODING 666
SWIDTH 416 0
DWIDTH 5 0
BBX 5 6 0 0
BITMAP
38
48
68
88
90
E0
ENDCHAR
STARTCHAR 029B
ENCODING 667
SWIDTH 500 0
DWIDTH 6 0
BBX 8 8 0 0
BITMAP
01
07
3C
40
C0
DC
C8
58
ENDCHAR
STARTCHAR 029C
ENCODING 668
SWIDTH 583 0
DWIDTH 7 0
BBX 6 6 0 0
BITMAP
64
64
64
7C
48
C8
ENDCHAR
STARTCHAR 029D
ENCODING 669
SWIDTH 250 0
DWIDTH 3 0
BBX 6 12 -3 -3
BITMAP
04
04
00
0C
0C
0C
08
08
18
38
D0
60
ENDCHAR
STARTCHAR 029E
ENCODING 670
SWIDTH 500 0
DWIDTH 6 0
BBX 6 9 0 -3
BITMAP
6C
EC
28
38
58
58
10
10
38
ENDCHAR
STARTCHAR 029F
ENCODING 671
SWIDTH 416 0
DWIDTH 5 0
BBX 5 6 0 0
BITMAP
60
60
60
40
48
D0
ENDCHAR
STARTCHAR 02A0
ENCODING 672
SWIDTH 500 0
DWIDTH 6 0
BBX 9 12 0 -3
BITMAP
0380
0400
0400
3C00
6800
4800
D800
D800
F000
1000
3000
3000
ENDCHAR
STARTCHAR 02A1
ENCODING 673
SWIDTH 416 0
DWIDTH 5 0
BBX 5 9 0 0
BITMAP
38
68
08
08
18
30
60
E0
C0
ENDCHAR
STARTCHAR 02A2
ENCODING 674
SWIDTH 416 0
DWIDTH 5 0
BBX 5 9 1 0
BITMAP
30
58
80
80
80
C0
60
E0
C0
ENDCHAR
STARTCHAR 02A3
ENCODING 675
SWIDTH 750 0
DWIDTH 9 0
BBX 9 10 0 -1
BITMAP
0C00
0400
0C00
3F80
6D00
4A00
DA00
DC00
FF80
0300
ENDCHAR
STARTCHAR 02A4
ENCODING 676
SWIDTH 833 0
DWIDTH 10 0
BBX 10 12 0 -3
BITMAP
0C00
0400
0C00
3FC0
6980
4B00
DF00
DD00
F980
0100
1100
0E00
ENDCHAR
STARTCHAR 02A5
ENCODING 677
SWIDTH 750 0
DWIDTH 9 0
BBX 9 9 0 -1
BITMAP
0C00
0400
0C00
3F80
6D00
4A00
DB00
DE80
FF00
ENDCHAR
STARTCHAR 02A6
ENCODING 678
SWIDTH 583 0
DWIDTH 7 0
BBX 7 7 0 1
BITMAP
20
7E
78
4C
4C
C4
C4
ENDCHAR
STARTCHAR 02A7
ENCODING 679
SWIDTH 500 0
DWIDTH 6 0
BBX 8 12 0 -3
BITMAP
03
04
2C
7C
68
58
58
D8
F0
10
30
E0
ENDCHAR
STARTCHAR 02A8
ENCODING 680
SWIDTH 666 0
DWIDTH 8 0
BBX 8 7 0 1
BITMAP
20
77
6B
58
54
DA
FC
ENDCHAR
STARTCHAR 02A9
ENCODING 681
SWIDTH 833 0
DWIDTH 10 0
BBX 11 12 -2 -3
BITMAP
0300
0500
0800
1F60
1BE0
1B60
1B40
1240
16C0
30C0
2080
C300
ENDCHAR
STARTCHAR 02AA
ENCODING 682
SWIDTH 583 0
DWIDTH 7 0
BBX 7 9 0 0
BITMAP
70
20
20
6E
7A
4C
4C
C4
C4
ENDCHAR
STARTCHAR 02AB
ENCODING 683
SWIDTH 500 0
DWIDTH 6 0
BBX 6 10 0 -1
BITMAP
70
20
20
7C
68
50
50
E0
F4
08
ENDCHAR
STARTCHAR 02AC
ENCODING 684
SWIDTH 500 0
DWIDTH 6 0
BBX 6 9 1 0
BITMAP
54
54
78
50
00
A8
F0
B0
A0
ENDCHAR
STARTCHAR 02AD
ENCODING 685
SWIDTH 500 0
DWIDTH 6 0
BBX 7 9 0 0
BITMAP
3E
7C
40
00
00
00
F8
F8
08
ENDCHAR
STARTCHAR 02AE
ENCODING 686
SWIDTH 583 0
DWIDTH 7 0
BBX 6 9 0 -3
BITMAP
C4
6C
6C
58
68
58
18
10
18
ENDCHAR
STARTCHAR 02AF
ENCODING 687
SWIDTH 583 0
DWIDTH 7 0
BBX 6 9 0 -3
BITMAP
C4
6C
6C
58
68
58
18
14
14
ENDCHAR
STARTCHAR 02B0
ENCODING 688
SWIDTH 250 0
DWIDTH 3 0
BBX 4 6 0 3
BITMAP
60
40
50
70
60
80
ENDCHAR
STARTCHAR 02B1
ENCODING 689
SWIDTH 250 0
DWIDTH 3 0
BBX 4 6 0 3
BITMAP
30
40
50
70
60
80
ENDCHAR
STARTCHAR 02B2
ENCODING 690
SWIDTH 166 0
DWIDTH 2 0
BBX 3 7 0 2
BITMAP
20
00
40
40
40
40
80
ENDCHAR
STARTCHAR 02B3
ENCODING 691
SWIDTH 250 0
DWIDTH 3 0
BBX 3 4 0 4
BITMAP
60
40
40
80
ENDCHAR
STARTCHAR 02B4
ENCODING 692
SWIDTH 250 0
DWIDTH 3 0
BBX 3 3 0 4
BITMAP
20
20
E0
ENDCHAR
STARTCHAR 02B5
ENCODING 693
SWIDTH 250 0
DWIDTH 3 0
BBX 3 5 0 3
BITMAP
20
20
E0
40
20
ENDCHAR
STARTCHAR 02B6
ENCODING 694
SWIDTH 333 0
DWIDTH 4 0
BBX 5 4 0 3
BITMAP
78
60
60
C0
ENDCHAR
STARTCHAR 02B7
ENCODING 695
SWIDTH 416 0
DWIDTH 5 0
BBX 4 4 1 3
BITMAP
20
B0
F0
A0
ENDCHAR
STARTCHAR 02B8
ENCODING 696
SWIDTH 250 0
DWIDTH 3 0
BBX 4 5 0 2
BITMAP
50
60
60
40
80
ENDCHAR
STARTCHAR 02B9
ENCODING 697
SWIDTH 250 0
DWIDTH 3 0
BBX 2 4 2 4
BITMAP
C0
C0
80
80
ENDCHAR
STARTCHAR 02BA
ENCODING 698
SWIDTH 583 0
DWIDTH 7 0
BBX 5 4 2 4
BITMAP
D8
D0
90
90
ENDCHAR
STARTCHAR 02BB
ENCODING 699
SWIDTH 333 0
DWIDTH 4 0
BBX 2 4 2 6
BITMAP
40
80
C0
C0
ENDCHAR
STARTCHAR 02BC
ENCODING 700
SWIDTH 333 0
DWIDTH 4 0
BBX 2 4 2 4
BITMAP
C0
C0
40
80
ENDCHAR
STARTCHAR 02BD
ENCODING 701
SWIDTH 333 0
DWIDTH 4 0
BBX 2 3 2 4
BITMAP
C0
C0
80
ENDCHAR
STARTCHAR 02BE
ENCODING 702
SWIDTH 333 0
DWIDTH 4 0
BBX 1 2 3 6
BITMAP
80
80
ENDCHAR
STARTCHAR 02BF
ENCODING 703
SWIDTH 333 0
DWIDTH 4 0
BBX 2 3 2 6
BITMAP
40
80
40
ENDCHAR
STARTCHAR 02C0
ENCODING 704
SWIDTH 250 0
DWIDTH 3 0
BBX 3 5 1 3
BITMAP
60
20
20
C0
80
ENDCHAR
STARTCHAR 02C1
ENCODING 705
SWIDTH 250 0
DWIDTH 3 0
BBX 3 5 1 4
BITMAP
60
80
80
40
40
ENDCHAR
STARTCHAR 02C2
ENCODING 706
SWIDTH 583 0
DWIDTH 7 0
BBX 7 6 0 2
BITMAP
06
38
C0
30
0C
02
ENDCHAR
STARTCHAR 02C3
ENCODING 707
SWIDTH 583 0
DWIDTH 7 0
BBX 7 7 0 1
BITMAP
80
60
18
06
1C
60
80
ENDCHAR
STARTCHAR 02C4
ENCODING 708
SWIDTH 583 0
DWIDTH 7 0
BBX 5 7 1 1
BITMAP
20
20
50
50
48
88
80
ENDCHAR
STARTCHAR 02C5
ENCODING 709
SWIDTH 583 0
DWIDTH 7 0
BBX 5 7 1 1
BITMAP
80
88
48
50
50
20
20
ENDCHAR
STARTCHAR 02C6
ENCODING 710
SWIDTH 333 0
DWIDTH 4 0
BBX 3 2 1 7
BITMAP
60
80
ENDCHAR
STARTCHAR 02C7
ENCODING 711
SWIDTH 333 0
DWIDTH 4 0
BBX 4 2 1 6
BITMAP
90
60
ENDCHAR
STARTCHAR 02C8
ENCODING 712
SWIDTH 333 0
DWIDTH 4 0
BBX 1 2 3 6
BITMAP
80
80
ENDCHAR
STARTCHAR 02C9
ENCODING 713
SWIDTH 333 0
DWIDTH 4 0
BBX 4 1 1 6
BITMAP
F0
ENDCHAR
STARTCHAR 02CA
ENCODING 714
SWIDTH 333 0
DWIDTH 4 0
BBX 2 3 2 6
BITMAP
40
40
80
ENDCHAR
STARTCHAR 02CB
ENCODING 715
SWIDTH 333 0
DWIDTH 4 0
BBX 2 2 2 7
BITMAP
80
40
ENDCHAR
STARTCHAR 02CC
ENCODING 716
SWIDTH 333 0
DWIDTH 4 0
BBX 1 2 1 -2
BITMAP
80
80
ENDCHAR
STARTCHAR 02CD
ENCODING 717
SWIDTH 333 0
DWIDTH 4 0
BBX 4 1 -1 -3
BITMAP
F0
ENDCHAR
STARTCHAR 02CE
ENCODING 718
SWIDTH 333 0
DWIDTH 4 0
BBX 2 2 0 -3
BITMAP
C0
40
ENDCHAR
STARTCHAR 02CF
ENCODING 719
SWIDTH 333 0
DWIDTH 4 0
BBX 2 3 0 -3
BITMAP
C0
80
80
ENDCHAR
STARTCHAR 02D0
ENCODING 720
SWIDTH 333 0
DWIDTH 4 0
BBX 2 6 1 0
BITMAP
40
40
00
00
80
80
ENDCHAR
STARTCHAR 02D1
ENCODING 721
SWIDTH 333 0
DWIDTH 4 0
BBX 1 2 2 4
BITMAP
80
80
ENDCHAR
STARTCHAR 02D2
ENCODING 722
SWIDTH 333 0
DWIDTH 4 0
BBX 2 3 1 0
BITMAP
80
40
80
ENDCHAR
STARTCHAR 02D3
ENCODING 723
SWIDTH 333 0
DWIDTH 4 0
BBX 2 3 1 0
BITMAP
40
80
40
ENDCHAR
STARTCHAR 02D4
ENCODING 724
SWIDTH 333 0
DWIDTH 4 0
BBX 2 2 1 2
BITMAP
80
C0
ENDCHAR
STARTCHAR 02D5
ENCODING 725
SWIDTH 333 0
DWIDTH 4 0
BBX 2 1 1 1
BITMAP
C0
ENDCHAR
STARTCHAR 02D6
ENCODING 726
SWIDTH 333 0
DWIDTH 4 0
BBX 2 1 1 2
BITMAP
C0
ENDCHAR
STARTCHAR 02D7
ENCODING 727
SWIDTH 333 0
DWIDTH 4 0
BBX 4 1 0 1
BITMAP
F0
ENDCHAR
STARTCHAR 02D8
ENCODING 728
SWIDTH 333 0
DWIDTH 4 0
BBX 3 2 2 6
BITMAP
20
C0
ENDCHAR
STARTCHAR 02D9
ENCODING 729
SWIDTH 333 0
DWIDTH 4 0
BBX 2 2 2 7
BITMAP
C0
C0
ENDCHAR
STARTCHAR 02DA
ENCODING 730
SWIDTH 333 0
DWIDTH 4 0
BBX 3 3 1 6
BITMAP
60
A0
60
ENDCHAR
STARTCHAR 02DB
ENCODING 731
SWIDTH 333 0
DWIDTH 4 0
BBX 3 4 0 -3
BITMAP
20
40
80
C0
ENDCHAR
STARTCHAR 02DC
ENCODING 732
SWIDTH 333 0
DWIDTH 4 0
BBX 4 2 1 6
BITMAP
D0
F0
ENDCHAR
STARTCHAR 02DD
ENCODING 733
SWIDTH 333 0
DWIDTH 4 0
BBX 3 2 2 6
BITMAP
A0
A0
ENDCHAR
STARTCHAR 02DE
ENCODING 734
SWIDTH 333 0
DWIDTH 4 0
BBX 2 2 0 3
BITMAP
80
C0
ENDCHAR
STARTCHAR 02DF
ENCODING 735
SWIDTH 416 0
DWIDTH 5 0
BBX 3 4 2 6
BITMAP
A0
40
A0
80
ENDCHAR
STARTCHAR 02E0
ENCODING 736
SWIDTH 333 0
DWIDTH 4 0
BBX 4 6 1 2
BITMAP
D0
A0
40
40
C0
80
ENDCHAR
STARTCHAR 02E1
ENCODING 737
SWIDTH 166 0
DWIDTH 2 0
BBX 2 6 1 3
BITMAP
40
80
80
80
80
80
ENDCHAR
STARTCHAR 02E2
ENCODING 738
SWIDTH 250 0
DWIDTH 3 0
BBX 2 3 1 4
BITMAP
80
40
40
ENDCHAR
STARTCHAR 02E3
ENCODING 739
SWIDTH 333 0
DWIDTH 4 0
BBX 4 4 1 3
BITMAP
50
60
40
A0
ENDCHAR
STARTCHAR 02E4
ENCODING 740
SWIDTH 250 0
DWIDTH 3 0
BBX 3 6 1 3
BITMAP
60
80
80
40
40
C0
ENDCHAR
STARTCHAR 02E5
ENCODING 741
SWIDTH 416 0
DWIDTH 5 0
BBX 3 10 1 0
BITMAP
E0
20
20
20
20
20
20
20
20
20
ENDCHAR
STARTCHAR 02E6
ENCODING 742
SWIDTH 416 0
DWIDTH 5 0
BBX 3 9 1 1
BITMAP
20
20
E0
20
20
20
20
20
20
ENDCHAR
STARTCHAR 02E7
ENCODING 743
SWIDTH 416 0
DWIDTH 5 0
BBX 3 9 1 1
BITMAP
20
20
20
20
E0
20
20
20
20
ENDCHAR
STARTCHAR 02E8
ENCODING 744
SWIDTH 416 0
DWIDTH 5 0
BBX 3 9 1 1
BITMAP
20
20
20
20
20
20
E0
20
20
ENDCHAR
STARTCHAR 02E9
ENCODING 745
SWIDTH 416 0
DWIDTH 5 0
BBX 3 10 1 0
BITMAP
20
20
20
20
20
20
20
20
20
E0
ENDCHAR
STARTCHAR 02EA
ENCODING 746
SWIDTH 333 0
DWIDTH 4 0
BBX 3 5 0 1
BITMAP
80
80
80
80
60
ENDCHAR
STARTCHAR 02EB
ENCODING 747
SWIDTH 333 0
DWIDTH 4 0
BBX 3 4 0 1
BITMAP
80
80
60
80
ENDCHAR
STARTCHAR 02EC
ENCODING 748
SWIDTH 333 0
DWIDTH 4 0
BBX 3 2 -1 -2
BITMAP
A0
60
ENDCHAR
STARTCHAR 02ED
ENCODING 749
SWIDTH 333 0
DWIDTH 4 0
BBX 4 3 1 5
BITMAP
F0
00
F0
ENDCHAR
STARTCHAR 02EE
ENCODING 750
SWIDTH 500 0
DWIDTH 6 0
BBX 4 4 2 4
BITMAP
D0
D0
50
80
ENDCHAR
STARTCHAR 02EF
ENCODING 751
SWIDTH 333 0
DWIDTH 4 0
BBX 2 1 0 -1
BITMAP
C0
ENDCHAR
STARTCHAR 02F0
ENCODING 752
SWIDTH 333 0
DWIDTH 4 0
BBX 2 2 0 -2
BITMAP
40
80
ENDCHAR
STARTCHAR 02F1
ENCODING 753
SWIDTH 333 0
DWIDTH 4 0
BBX 2 3 0 -3
BITMAP
40
80
40
ENDCHAR
STARTCHAR 02F2
ENCODING 754
SWIDTH 333 0
DWIDTH 4 0
BBX 2 3 0 -3
BITMAP
80
40
80
ENDCHAR
STARTCHAR 02F3
ENCODING 755
SWIDTH 333 0
DWIDTH 4 0
BBX 3 3 -1 -3
BITMAP
60
A0
60
ENDCHAR
STARTCHAR 02F4
ENCODING 756
SWIDTH 333 0
DWIDTH 4 0
BBX 2 2 1 1
BITMAP
80
40
ENDCHAR
STARTCHAR 02F5
ENCODING 757
SWIDTH 333 0
DWIDTH 4 0
BBX 4 2 0 2
BITMAP
F0
50
ENDCHAR
STARTCHAR 02F6
ENCODING 758
SWIDTH 333 0
DWIDTH 4 0
BBX 4 2 0 2
BITMAP
70
A0
ENDCHAR
STARTCHAR 02F7
ENCODING 759
SWIDTH 333 0
DWIDTH 4 0
BBX 4 2 -1 -3
BITMAP
D0
A0
ENDCHAR
STARTCHAR 02F8
ENCODING 760
SWIDTH 333 0
DWIDTH 4 0
BBX 3 6 1 2
BITMAP
60
60
00
00
C0
C0
ENDCHAR
STARTCHAR 02F9
ENCODING 761
SWIDTH 333 0
DWIDTH 4 0
BBX 2 2 2 6
BITMAP
C0
80
ENDCHAR
STARTCHAR 02FA
ENCODING 762
SWIDTH 333 0
DWIDTH 4 0
BBX 2 1 2 6
BITMAP
C0
ENDCHAR
STARTCHAR 02FB
ENCODING 763
SWIDTH 333 0
DWIDTH 4 0
BBX 2 2 0 -3
BITMAP
80
C0
ENDCHAR
STARTCHAR 02FC
ENCODING 764
SWIDTH 333 0
DWIDTH 4 0
BBX 2 2 0 -3
BITMAP
40
C0
ENDCHAR
STARTCHAR 02FD
ENCODING 765
SWIDTH 416 0
DWIDTH 5 0
BBX 5 3 -1 -3
BITMAP
88
88
F8
ENDCHAR
STARTCHAR 02FE
ENCODING 766
SWIDTH 416 0
DWIDTH 5 0
BBX 5 3 -1 -3
BITMAP
80
80
F8
ENDCHAR
STARTCHAR 02FF
ENCODING 767
SWIDTH 333 0
DWIDTH 4 0
BBX 3 4 0 -3
BITMAP
80
80
E0
80
ENDCHAR
STARTCHAR 0300
ENCODING 768
SWIDTH 0 0
DWIDTH 0 0
BBX 2 2 -2 10
BITMAP
C0
40
ENDCHAR
STARTCHAR 0301
ENCODING 769
SWIDTH 0 0
DWIDTH 0 0
BBX 2 2 -1 10
BITMAP
40
80
ENDCHAR
STARTCHAR 0302
ENCODING 770
SWIDTH 0 0
DWIDTH 0 0
BBX 4 2 -1 7
BITMAP
60
90
ENDCHAR
STARTCHAR 0303
ENCODING 771
SWIDTH 0 0
DWIDTH 0 0
BBX 4 2 -3 10
BITMAP
D0
E0
ENDCHAR
STARTCHAR 0304
ENCODING 772
SWIDTH 0 0
DWIDTH 0 0
BBX 4 1 -1 6
BITMAP
F0
ENDCHAR
STARTCHAR 0305
ENCODING 773
SWIDTH 0 0
DWIDTH 0 0
BBX 6 1 -1 9
BITMAP
FC
ENDCHAR
STARTCHAR 0306
ENCODING 774
SWIDTH 0 0
DWIDTH 0 0
BBX 3 2 0 6
BITMAP
20
C0
ENDCHAR
STARTCHAR 0307
ENCODING 775
SWIDTH 0 0
DWIDTH 0 0
BBX 2 2 0 7
BITMAP
C0
C0
ENDCHAR
STARTCHAR 0308
ENCODING 776
SWIDTH 0 0
DWIDTH 0 0
BBX 4 2 -1 7
BITMAP
D0
50
ENDCHAR
STARTCHAR 0309
ENCODING 777
SWIDTH 0 0
DWIDTH 0 0
BBX 1 2 0 9
BITMAP
80
80
ENDCHAR
STARTCHAR 030A
ENCODING 778
SWIDTH 0 0
DWIDTH 0 0
BBX 3 3 -1 6
BITMAP
60
A0
60
ENDCHAR
STARTCHAR 030B
ENCODING 779
SWIDTH 0 0
DWIDTH 0 0
BBX 3 2 0 6
BITMAP
A0
A0
ENDCHAR
STARTCHAR 030C
ENCODING 780
SWIDTH 0 0
DWIDTH 0 0
BBX 3 2 0 6
BITMAP
A0
C0
ENDCHAR
STARTCHAR 030D
ENCODING 781
SWIDTH 0 0
DWIDTH 0 0
BBX 0 0 0 6
BITMAP
ENDCHAR
STARTCHAR 030E
ENCODING 782
SWIDTH 0 0
DWIDTH 0 0
BBX 2 2 0 6
BITMAP
C0
C0
ENDCHAR
STARTCHAR 030F
ENCODING 783
SWIDTH 0 0
DWIDTH 0 0
BBX 4 2 -1 6
BITMAP
A0
50
ENDCHAR
STARTCHAR 0310
ENCODING 784
SWIDTH 0 0
DWIDTH 0 0
BBX 3 3 0 6
BITMAP
40
60
C0
ENDCHAR
STARTCHAR 0311
ENCODING 785
SWIDTH 0 0
DWIDTH 0 0
BBX 3 2 0 6
BITMAP
60
A0
ENDCHAR
STARTCHAR 0312
ENCODING 786
SWIDTH 0 0
DWIDTH 0 0
BBX 2 4 0 6
BITMAP
40
80
C0
C0
ENDCHAR
STARTCHAR 0313
ENCODING 787
SWIDTH 0 0
DWIDTH 0 0
BBX 2 4 0 4
BITMAP
C0
C0
40
80
ENDCHAR
STARTCHAR 0314
ENCODING 788
SWIDTH 0 0
DWIDTH 0 0
BBX 2 3 0 4
BITMAP
C0
C0
80
ENDCHAR
STARTCHAR 0315
ENCODING 789
SWIDTH 0 0
DWIDTH 0 0
BBX 2 4 2 4
BITMAP
C0
C0
40
80
ENDCHAR
STARTCHAR 0316
ENCODING 790
SWIDTH 0 0
DWIDTH 0 0
BBX 2 2 -2 -3
BITMAP
C0
40
ENDCHAR
STARTCHAR 0317
ENCODING 791
SWIDTH 0 0
DWIDTH 0 0
BBX 2 3 -2 -3
BITMAP
C0
80
80
ENDCHAR
STARTCHAR 0318
ENCODING 792
SWIDTH 0 0
DWIDTH 0 0
BBX 2 2 -2 -2
BITMAP
C0
40
ENDCHAR
STARTCHAR 0319
ENCODING 793
SWIDTH 0 0
DWIDTH 0 0
BBX 2 2 -2 -2
BITMAP
C0
80
ENDCHAR
STARTCHAR 031A
ENCODING 794
SWIDTH 0 0
DWIDTH 0 0
BBX 5 3 -1 7
BITMAP
F8
08
08
ENDCHAR
STARTCHAR 031B
ENCODING 795
SWIDTH 0 0
DWIDTH 0 0
BBX 2 2 1 8
BITMAP
80
40
ENDCHAR
STARTCHAR 031C
ENCODING 796
SWIDTH 0 0
DWIDTH 0 0
BBX 2 3 -2 -3
BITMAP
40
80
40
ENDCHAR
STARTCHAR 031D
ENCODING 797
SWIDTH 0 0
DWIDTH 0 0
BBX 2 3 -2 -3
BITMAP
80
80
C0
ENDCHAR
STARTCHAR 031E
ENCODING 798
SWIDTH 0 0
DWIDTH 0 0
BBX 2 3 -2 -3
BITMAP
C0
80
80
ENDCHAR
STARTCHAR 031F
ENCODING 799
SWIDTH 0 0
DWIDTH 0 0
BBX 2 2 -2 -2
BITMAP
C0
80
ENDCHAR
STARTCHAR 0320
ENCODING 800
SWIDTH 0 0
DWIDTH 0 0
BBX 4 1 -3 -3
BITMAP
F0
ENDCHAR
STARTCHAR 0321
ENCODING 801
SWIDTH 0 0
DWIDTH 0 0
BBX 4 4 -2 -3
BITMAP
30
20
20
C0
ENDCHAR
STARTCHAR 0322
ENCODING 802
SWIDTH 0 0
DWIDTH 0 0
BBX 2 4 0 -3
BITMAP
C0
80
80
C0
ENDCHAR
STARTCHAR 0323
ENCODING 803
SWIDTH 0 0
DWIDTH 0 0
BBX 1 2 -6 -2
BITMAP
80
80
ENDCHAR
STARTCHAR 0324
ENCODING 804
SWIDTH 0 0
DWIDTH 0 0
BBX 4 2 -3 -3
BITMAP
90
F0
ENDCHAR
STARTCHAR 0325
ENCODING 805
SWIDTH 0 0
DWIDTH 0 0
BBX 3 3 -3 -3
BITMAP
60
A0
60
ENDCHAR
STARTCHAR 0326
ENCODING 806
SWIDTH 0 0
DWIDTH 0 0
BBX 2 2 -2 -4
BITMAP
C0
80
ENDCHAR
STARTCHAR 0327
ENCODING 807
SWIDTH 0 0
DWIDTH 0 0
BBX 3 2 -3 -2
BITMAP
20
C0
ENDCHAR
STARTCHAR 0328
ENCODING 808
SWIDTH 0 0
DWIDTH 0 0
BBX 1 3 -1 -2
BITMAP
80
80
80
ENDCHAR
STARTCHAR 0329
ENCODING 809
SWIDTH 0 0
DWIDTH 0 0
BBX 0 0 -2 -3
BITMAP
ENDCHAR
STARTCHAR 032A
ENCODING 810
SWIDTH 0 0
DWIDTH 0 0
BBX 4 2 -3 -3
BITMAP
F0
90
ENDCHAR
STARTCHAR 032B
ENCODING 811
SWIDTH 0 0
DWIDTH 0 0
BBX 4 2 -3 -2
BITMAP
80
70
ENDCHAR
STARTCHAR 032C
ENCODING 812
SWIDTH 0 0
DWIDTH 0 0
BBX 3 2 -3 -2
BITMAP
A0
60
ENDCHAR
STARTCHAR 032D
ENCODING 813
SWIDTH 0 0
DWIDTH 0 0
BBX 3 2 -3 -3
BITMAP
60
A0
ENDCHAR
STARTCHAR 032E
ENCODING 814
SWIDTH 0 0
DWIDTH 0 0
BBX 3 2 -3 -2
BITMAP
A0
60
ENDCHAR
STARTCHAR 032F
ENCODING 815
SWIDTH 0 0
DWIDTH 0 0
BBX 3 2 -3 -3
BITMAP
60
80
ENDCHAR
STARTCHAR 0330
ENCODING 816
SWIDTH 0 0
DWIDTH 0 0
BBX 4 2 -3 -3
BITMAP
D0
A0
ENDCHAR
STARTCHAR 0331
ENCODING 817
SWIDTH 0 0
DWIDTH 0 0
BBX 4 1 -3 -3
BITMAP
F0
ENDCHAR
STARTCHAR 0332
ENCODING 818
SWIDTH 0 0
DWIDTH 0 0
BBX 7 1 -5 -3
BITMAP
FE
ENDCHAR
STARTCHAR 0333
ENCODING 819
SWIDTH 0 0
DWIDTH 0 0
BBX 4 2 -3 -3
BITMAP
F0
F0
ENDCHAR
STARTCHAR 0334
ENCODING 820
SWIDTH 0 0
DWIDTH 0 0
BBX 3 2 -1 3
BITMAP
C0
60
ENDCHAR
STARTCHAR 0335
ENCODING 821
SWIDTH 0 0
DWIDTH 0 0
BBX 4 1 -2 3
BITMAP
F0
ENDCHAR
STARTCHAR 0336
ENCODING 822
SWIDTH 0 0
DWIDTH 0 0
BBX 7 1 -3 3
BITMAP
FE
ENDCHAR
STARTCHAR 0337
ENCODING 823
SWIDTH 0 0
DWIDTH 0 0
BBX 4 3 -2 3
BITMAP
10
60
C0
ENDCHAR
STARTCHAR 0338
ENCODING 824
SWIDTH 0 0
DWIDTH 0 0
BBX 5 8 -2 0
BITMAP
08
10
10
20
20
40
40
80
ENDCHAR
STARTCHAR 0339
ENCODING 825
SWIDTH 0 0
DWIDTH 0 0
BBX 2 3 -2 -3
BITMAP
80
40
80
ENDCHAR
STARTCHAR 033A
ENCODING 826
SWIDTH 0 0
DWIDTH 0 0
BBX 4 3 -3 -3
BITMAP
90
90
F0
ENDCHAR
STARTCHAR 033B
ENCODING 827
SWIDTH 0 0
DWIDTH 0 0
BBX 2 3 -2 -3
BITMAP
C0
C0
C0
ENDCHAR
STARTCHAR 033C
ENCODING 828
SWIDTH 0 0
DWIDTH 0 0
BBX 4 1 -3 -3
BITMAP
F0
ENDCHAR
STARTCHAR 033D
ENCODING 829
SWIDTH 0 0
DWIDTH 0 0
BBX 2 3 0 6
BITMAP
80
C0
C0
ENDCHAR
STARTCHAR 033E
ENCODING 830
SWIDTH 0 0
DWIDTH 0 0
BBX 1 4 1 7
BITMAP
80
80
80
80
ENDCHAR
STARTCHAR 033F
ENCODING 831
SWIDTH 0 0
DWIDTH 0 0
BBX 7 2 -2 8
BITMAP
FE
FE
ENDCHAR
STARTCHAR 0340
ENCODING 832
SWIDTH 0 0
DWIDTH 0 0
BBX 2 2 0 7
BITMAP
C0
40
ENDCHAR
STARTCHAR 0341
ENCODING 833
SWIDTH 0 0
DWIDTH 0 0
BBX 2 3 0 6
BITMAP
40
40
80
ENDCHAR
STARTCHAR 0342
ENCODING 834
SWIDTH 0 0
DWIDTH 0 0
BBX 4 2 -1 6
BITMAP
60
B0
ENDCHAR
STARTCHAR 0343
ENCODING 835
SWIDTH 0 0
DWIDTH 0 0
BBX 2 4 0 4
BITMAP
C0
C0
40
80
ENDCHAR
STARTCHAR 0344
ENCODING 836
SWIDTH 0 0
DWIDTH 0 0
BBX 6 2 -2 7
BITMAP
54
EC
ENDCHAR
STARTCHAR 0345
ENCODING 837
SWIDTH 0 0
DWIDTH 0 0
BBX 2 1 -2 -2
BITMAP
C0
ENDCHAR
STARTCHAR 0346
ENCODING 838
SWIDTH 0 0
DWIDTH 0 0
BBX 4 3 -1 7
BITMAP
F0
90
90
ENDCHAR
STARTCHAR 0347
ENCODING 839
SWIDTH 0 0
DWIDTH 0 0
BBX 6 2 -4 -3
BITMAP
FC
FC
ENDCHAR
STARTCHAR 0348
ENCODING 840
SWIDTH 0 0
DWIDTH 0 0
BBX 2 2 -2 -2
BITMAP
C0
C0
ENDCHAR
STARTCHAR 0349
ENCODING 841
SWIDTH 0 0
DWIDTH 0 0
BBX 2 3 -2 -3
BITMAP
C0
40
40
ENDCHAR
STARTCHAR 034A
ENCODING 842
SWIDTH 0 0
DWIDTH 0 0
BBX 4 2 -1 7
BITMAP
60
B0
ENDCHAR
STARTCHAR 034B
ENCODING 843
SWIDTH 0 0
DWIDTH 0 0
BBX 3 4 0 6
BITMAP
40
C0
60
40
ENDCHAR
STARTCHAR 034C
ENCODING 844
SWIDTH 0 0
DWIDTH 0 0
BBX 4 4 -1 6
BITMAP
60
30
60
B0
ENDCHAR
STARTCHAR 034D
ENCODING 845
SWIDTH 0 0
DWIDTH 0 0
BBX 3 1 -3 -2
BITMAP
E0
ENDCHAR
STARTCHAR 034E
ENCODING 846
SWIDTH 0 0
DWIDTH 0 0
BBX 2 2 -2 -2
BITMAP
C0
80
ENDCHAR
STARTCHAR 034F
ENCODING 847
SWIDTH 0 0
DWIDTH 0 0
BBX 9 10 -5 0
BITMAP
6D80
8080
0000
0000
2100
2100
2100
0000
0000
6D80
ENDCHAR
STARTCHAR 0350
ENCODING 848
SWIDTH 0 0
DWIDTH 0 0
BBX 1 2 1 7
BITMAP
80
80
ENDCHAR
STARTCHAR 0351
ENCODING 849
SWIDTH 0 0
DWIDTH 0 0
BBX 2 3 0 6
BITMAP
40
80
40
ENDCHAR
STARTCHAR 0352
ENCODING 850
SWIDTH 0 0
DWIDTH 0 0
BBX 3 3 0 7
BITMAP
E0
20
40
ENDCHAR
STARTCHAR 0353
ENCODING 851
SWIDTH 0 0
DWIDTH 0 0
BBX 2 3 -2 -3
BITMAP
80
40
80
ENDCHAR
STARTCHAR 0354
ENCODING 852
SWIDTH 0 0
DWIDTH 0 0
BBX 2 3 -2 -3
BITMAP
40
80
40
ENDCHAR
STARTCHAR 0355
ENCODING 853
SWIDTH 0 0
DWIDTH 0 0
BBX 2 3 -2 -3
BITMAP
80
40
80
ENDCHAR
STARTCHAR 0356
ENCODING 854
SWIDTH 0 0
DWIDTH 0 0
BBX 4 2 -3 -2
BITMAP
B0
70
ENDCHAR
STARTCHAR 0357
ENCODING 855
SWIDTH 0 0
DWIDTH 0 0
BBX 2 3 0 6
BITMAP
80
40
80
ENDCHAR
STARTCHAR 0358
ENCODING 856
SWIDTH 0 0
DWIDTH 0 0
BBX 1 1 3 7
BITMAP
80
ENDCHAR
STARTCHAR 0359
ENCODING 857
SWIDTH 0 0
DWIDTH 0 0
BBX 1 1 -1 -2
BITMAP
80
ENDCHAR
STARTCHAR 035A
ENCODING 858
SWIDTH 0 0
DWIDTH 0 0
BBX 4 3 -3 -3
BITMAP
70
D0
F0
ENDCHAR
STARTCHAR 035B
ENCODING 859
SWIDTH 0 0
DWIDTH 0 0
BBX 3 1 0 9
BITMAP
E0
ENDCHAR
STARTCHAR 035C
ENCODING 860
SWIDTH 0 0
DWIDTH 0 0
BBX 7 2 0 -3
BITMAP
82
7C
ENDCHAR
STARTCHAR 035D
ENCODING 861
SWIDTH 0 0
DWIDTH 0 0
BBX 7 2 1 6
BITMAP
82
7C
ENDCHAR
STARTCHAR 035E
ENCODING 862
SWIDTH 0 0
DWIDTH 0 0
BBX 7 1 1 6
BITMAP
FE
ENDCHAR
STARTCHAR 035F
ENCODING 863
SWIDTH 0 0
DWIDTH 0 0
BBX 8 1 -3 -3
BITMAP
FF
ENDCHAR
STARTCHAR 0360
ENCODING 864
SWIDTH 0 0
DWIDTH 0 0
BBX 7 2 1 6
BITMAP
E0
1E
ENDCHAR
STARTCHAR 0361
ENCODING 865
SWIDTH 0 0
DWIDTH 0 0
BBX 7 2 1 6
BITMAP
78
86
ENDCHAR
STARTCHAR 0362
ENCODING 866
SWIDTH 0 0
DWIDTH 0 0
BBX 7 1 -3 -2
BITMAP
FE
ENDCHAR
STARTCHAR 0363
ENCODING 867
SWIDTH 0 0
DWIDTH 0 0
BBX 3 4 -1 3
BITMAP
60
A0
A0
E0
ENDCHAR
STARTCHAR 0364
ENCODING 868
SWIDTH 0 0
DWIDTH 0 0
BBX 3 4 -1 3
BITMAP
20
E0
C0
C0
ENDCHAR
STARTCHAR 0365
ENCODING 869
SWIDTH 0 0
DWIDTH 0 0
BBX 2 6 0 3
BITMAP
40
00
80
80
80
80
ENDCHAR
STARTCHAR 0366
ENCODING 870
SWIDTH 0 0
DWIDTH 0 0
BBX 3 4 -1 4
BITMAP
E0
A0
A0
40
ENDCHAR
STARTCHAR 0367
ENCODING 871
SWIDTH 0 0
DWIDTH 0 0
BBX 3 4 -1 3
BITMAP
A0
A0
A0
E0
ENDCHAR
STARTCHAR 0368
ENCODING 872
SWIDTH 0 0
DWIDTH 0 0
BBX 3 4 -1 3
BITMAP
20
E0
80
C0
ENDCHAR
STARTCHAR 0369
ENCODING 873
SWIDTH 0 0
DWIDTH 0 0
BBX 4 6 -1 3
BITMAP
10
20
E0
A0
A0
E0
ENDCHAR
STARTCHAR 036A
ENCODING 874
SWIDTH 0 0
DWIDTH 0 0
BBX 3 6 -1 3
BITMAP
40
40
A0
E0
A0
A0
ENDCHAR
STARTCHAR 036B
ENCODING 875
SWIDTH 0 0
DWIDTH 0 0
BBX 5 4 -2 3
BITMAP
E8
F8
A8
A8
ENDCHAR
STARTCHAR 036C
ENCODING 876
SWIDTH 0 0
DWIDTH 0 0
BBX 3 4 -1 4
BITMAP
60
C0
80
80
ENDCHAR
STARTCHAR 036D
ENCODING 877
SWIDTH 0 0
DWIDTH 0 0
BBX 2 5 0 3
BITMAP
40
C0
80
80
80
ENDCHAR
STARTCHAR 036E
ENCODING 878
SWIDTH 0 0
DWIDTH 0 0
BBX 2 3 0 4
BITMAP
C0
C0
80
ENDCHAR
STARTCHAR 036F
ENCODING 879
SWIDTH 0 0
DWIDTH 0 0
BBX 3 4 -1 3
BITMAP
E0
40
40
A0
ENDCHAR
STARTCHAR 0370
ENCODING 880
SWIDTH 583 0
DWIDTH 7 0
BBX 7 9 0 0
BITMAP
38
30
30
30
3E
60
60
60
E0
ENDCHAR
STARTCHAR 0371
ENCODING 881
SWIDTH 416 0
DWIDTH 5 0
BBX 5 6 0 0
BITMAP
60
60
78
40
40
C0
ENDCHAR
STARTCHAR 0372
ENCODING 882
SWIDTH 583 0
DWIDTH 7 0
BBX 8 9 1 0
BITMAP
7F
DA
D6
30
30
30
20
60
60
ENDCHAR
STARTCHAR 0373
ENCODING 883
SWIDTH 500 0
DWIDTH 6 0
BBX 5 9 2 0
BITMAP
F8
E8
60
60
40
C0
C0
80
80
ENDCHAR
STARTCHAR 0374
ENCODING 884
SWIDTH 333 0
DWIDTH 4 0
BBX 2 3 2 6
BITMAP
40
40
80
ENDCHAR
STARTCHAR 0375
ENCODING 885
SWIDTH 333 0
DWIDTH 4 0
BBX 1 2 0 -3
BITMAP
80
80
ENDCHAR
STARTCHAR 0376
ENCODING 886
SWIDTH 750 0
DWIDTH 9 0
BBX 8 9 1 0
BITMAP
70
61
63
6E
56
E6
C6
84
0C
ENDCHAR
STARTCHAR 0377
ENCODING 887
SWIDTH 666 0
DWIDTH 8 0
BBX 6 6 1 0
BITMAP
64
48
F8
D8
98
18
ENDCHAR
STARTCHAR 037A
ENCODING 890
SWIDTH 333 0
DWIDTH 4 0
BBX 2 2 0 -3
BITMAP
80
C0
ENDCHAR
STARTCHAR 037B
ENCODING 891
SWIDTH 416 0
DWIDTH 5 0
BBX 5 6 0 0
BITMAP
38
18
18
18
10
A0
ENDCHAR
STARTCHAR 037C
ENCODING 892
SWIDTH 416 0
DWIDTH 5 0
BBX 5 6 0 0
BITMAP
38
40
50
D0
C8
70
ENDCHAR
STARTCHAR 037D
ENCODING 893
SWIDTH 416 0
DWIDTH 5 0
BBX 5 6 0 0
BITMAP
38
18
58
58
10
A0
ENDCHAR
STARTCHAR 037E
ENCODING 894
SWIDTH 333 0
DWIDTH 4 0
BBX 2 7 1 -3
BITMAP
40
40
00
00
80
80
80
ENDCHAR
STARTCHAR 037F
ENCODING 895
SWIDTH 500 0
DWIDTH 6 0
BBX 6 9 0 0
BITMAP
0C
0C
0C
18
18
18
10
B0
A0
ENDCHAR
STARTCHAR 0384
ENCODING 900
SWIDTH 333 0
DWIDTH 4 0
BBX 2 3 2 6
BITMAP
40
40
80
ENDCHAR
STARTCHAR 0385
ENCODING 901
SWIDTH 333 0
DWIDTH 4 0
BBX 6 2 0 7
BITMAP
54
EC
ENDCHAR
STARTCHAR 0386
ENCODING 902
SWIDTH 666 0
DWIDTH 8 0
BBX 7 9 0 0
BITMAP
1A
16
06
1E
26
3E
46
86
8E
ENDCHAR
STARTCHAR 0387
ENCODING 903
SWIDTH 333 0
DWIDTH 4 0
BBX 1 2 2 3
BITMAP
80
80
ENDCHAR
STARTCHAR 0388
ENCODING 904
SWIDTH 750 0
DWIDTH 9 0
BBX 9 9 0 0
BITMAP
4F80
4C80
8800
1900
1E00
1800
1000
3100
3F00
ENDCHAR
STARTCHAR 0389
ENCODING 905
SWIDTH 916 0
DWIDTH 11 0
BBX 10 9 1 0
BITMAP
98C0
9880
1180
3180
3F80
3100
2300
6300
6300
ENDCHAR
STARTCHAR 038A
ENCODING 906
SWIDTH 500 0
DWIDTH 6 0
BBX 5 9 1 0
BITMAP
98
18
10
30
30
30
20
60
60
ENDCHAR
STARTCHAR 038C
ENCODING 908
SWIDTH 750 0
DWIDTH 9 0
BBX 8 9 1 0
BITMAP
9E
A2
63
C3
C3
C6
C6
CC
78
ENDCHAR
STARTCHAR 038E
ENCODING 910
SWIDTH 750 0
DWIDTH 9 0
BBX 9 9 1 0
BITMAP
B980
1900
1A00
0A00
0C00
0800
1800
1800
1800
ENDCHAR
STARTCHAR 038F
ENCODING 911
SWIDTH 750 0
DWIDTH 9 0
BBX 9 9 0 0
BITMAP
4F00
5980
3180
3180
2180
2100
3280
7700
F700
ENDCHAR
STARTCHAR 0390
ENCODING 912
SWIDTH 250 0
DWIDTH 3 0
BBX 5 9 0 0
BITMAP
B8
A8
00
60
60
40
40
C0
C0
ENDCHAR
STARTCHAR 0391
ENCODING 913
SWIDTH 666 0
DWIDTH 8 0
BBX 7 9 0 0
BITMAP
02
06
06
1E
26
3E
46
86
8E
ENDCHAR
STARTCHAR 0392
ENCODING 914
SWIDTH 666 0
DWIDTH 8 0
BBX 7 9 1 0
BITMAP
7C
26
66
6C
70
4C
CC
CC
F8
ENDCHAR
STARTCHAR 0393
ENCODING 915
SWIDTH 583 0
DWIDTH 7 0
BBX 8 9 0 0
BITMAP
3F
31
30
30
30
60
60
60
E0
ENDCHAR
STARTCHAR 0394
ENCODING 916
SWIDTH 666 0
DWIDTH 8 0
BBX 6 8 0 1
BITMAP
04
0C
0C
3C
2C
4C
8C
FC
ENDCHAR
STARTCHAR 0395
ENCODING 917
SWIDTH 666 0
DWIDTH 8 0
BBX 7 9 1 0
BITMAP
3E
22
62
60
78
C8
C0
C4
FC
ENDCHAR
STARTCHAR 0396
ENCODING 918
SWIDTH 583 0
DWIDTH 7 0
BBX 8 9 0 0
BITMAP
3F
06
0E
0C
18
30
72
64
DC
ENDCHAR
STARTCHAR 0397
ENCODING 919
SWIDTH 750 0
DWIDTH 9 0
BBX 10 9 0 0
BITMAP
39C0
3180
3180
3100
3F00
6300
6300
6200
E600
ENDCHAR
STARTCHAR 0398
ENCODING 920
SWIDTH 750 0
DWIDTH 9 0
BBX 8 9 1 0
BITMAP
1E
23
63
C3
DB
EA
C6
CC
78
ENDCHAR
STARTCHAR 0399
ENCODING 921
SWIDTH 416 0
DWIDTH 5 0
BBX 5 9 0 0
BITMAP
38
30
30
30
30
60
60
60
E0
ENDCHAR
STARTCHAR 039A
ENCODING 922
SWIDTH 666 0
DWIDTH 8 0
BBX 8 9 0 0
BITMAP
3B
32
34
38
38
6C
6C
64
EE
ENDCHAR
STARTCHAR 039B
ENCODING 923
SWIDTH 666 0
DWIDTH 8 0
BBX 7 9 0 0
BITMAP
02
06
0E
16
16
26
44
84
8E
ENDCHAR
STARTCHAR 039C
ENCODING 924
SWIDTH 916 0
DWIDTH 11 0
BBX 11 9 0 0
BITMAP
3860
18C0
39C0
5AC0
5AC0
5D80
5980
8980
C380
ENDCHAR
STARTCHAR 039D
ENCODING 925
SWIDTH 750 0
DWIDTH 9 0
BBX 9 9 0 0
BITMAP
3080
1900
3900
4D00
4D00
4600
4600
8200
C200
ENDCHAR
STARTCHAR 039E
ENCODING 926
SWIDTH 666 0
DWIDTH 8 0
BBX 8 9 0 0
BITMAP
3F
3F
00
00
3C
24
80
FE
FE
ENDCHAR
STARTCHAR 039F
ENCODING 927
SWIDTH 750 0
DWIDTH 9 0
BBX 8 9 1 0
BITMAP
1C
22
63
C3
C6
C6
C4
CC
70
ENDCHAR
STARTCHAR 03A0
ENCODING 928
SWIDTH 750 0
DWIDTH 9 0
BBX 10 9 0 0
BITMAP
3FC0
3180
3180
3100
3300
6300
6300
6200
E600
ENDCHAR
STARTCHAR 03A1
ENCODING 929
SWIDTH 583 0
DWIDTH 7 0
BBX 7 9 1 0
BITMAP
3C
26
66
6C
78
40
C0
C0
C0
ENDCHAR
STARTCHAR 03A3
ENCODING 931
SWIDTH 583 0
DWIDTH 7 0
BBX 8 9 0 0
BITMAP
3F
31
18
18
10
20
42
7C
FC
ENDCHAR
STARTCHAR 03A4
ENCODING 932
SWIDTH 583 0
DWIDTH 7 0
BBX 6 9 2 0
BITMAP
FC
34
20
60
60
60
40
C0
C0
ENDCHAR
STARTCHAR 03A5
ENCODING 933
SWIDTH 583 0
DWIDTH 7 0
BBX 6 9 2 0
BITMAP
C4
C8
48
70
60
60
60
40
C0
ENDCHAR
STARTCHAR 03A6
ENCODING 934
SWIDTH 750 0
DWIDTH 9 0
BBX 8 9 1 0
BITMAP
1C
0C
7B
D9
DB
9B
F6
38
30
ENDCHAR
STARTCHAR 03A7
ENCODING 935
SWIDTH 666 0
DWIDTH 8 0
BBX 9 9 0 0
BITMAP
3180
3200
1A00
1C00
1800
1C00
2C00
4400
C600
ENDCHAR
STARTCHAR 03A8
ENCODING 936
SWIDTH 833 0
DWIDTH 10 0
BBX 9 9 1 0
BITMAP
5C80
6D80
C980
DB00
5A00
3C00
1000
3000
3000
ENDCHAR
STARTCHAR 03A9
ENCODING 937
SWIDTH 750 0
DWIDTH 9 0
BBX 9 9 0 0
BITMAP
0F00
3100
2180
6180
6300
6300
2600
F700
EF00
ENDCHAR
STARTCHAR 03AA
ENCODING 938
SWIDTH 416 0
DWIDTH 5 0
BBX 6 11 0 0
BITMAP
3C
24
38
30
30
30
30
60
60
60
E0
ENDCHAR
STARTCHAR 03AB
ENCODING 939
SWIDTH 583 0
DWIDTH 7 0
BBX 6 11 2 0
BITMAP
28
28
C4
C8
48
70
60
60
60
40
C0
ENDCHAR
STARTCHAR 03AC
ENCODING 940
SWIDTH 583 0
DWIDTH 7 0
BBX 6 9 0 0
BITMAP
0C
08
00
34
6C
48
D8
D8
64
ENDCHAR
STARTCHAR 03AD
ENCODING 941
SWIDTH 416 0
DWIDTH 5 0
BBX 5 9 0 0
BITMAP
18
10
00
78
48
30
C0
D0
50
ENDCHAR
STARTCHAR 03AE
ENCODING 942
SWIDTH 583 0
DWIDTH 7 0
BBX 6 12 0 -3
BITMAP
0C
08
00
6C
74
6C
6C
48
D8
18
10
10
ENDCHAR
STARTCHAR 03AF
ENCODING 943
SWIDTH 250 0
DWIDTH 3 0
BBX 4 9 0 0
BITMAP
30
20
00
60
60
40
40
C0
C0
ENDCHAR
STARTCHAR 03B0
ENCODING 944
SWIDTH 500 0
DWIDTH 6 0
BBX 7 9 0 0
BITMAP
5C
76
00
68
E8
68
48
48
50
ENDCHAR
STARTCHAR 03B1
ENCODING 945
SWIDTH 583 0
DWIDTH 7 0
BBX 6 6 0 0
BITMAP
34
6C
48
D8
D8
64
ENDCHAR
STARTCHAR 03B2
ENCODING 946
SWIDTH 500 0
DWIDTH 6 0
BBX 7 12 -1 -3
BITMAP
0E
1A
12
32
3C
24
24
64
78
40
40
C0
ENDCHAR
STARTCHAR 03B3
ENCODING 947
SWIDTH 416 0
DWIDTH 5 0
BBX 5 9 0 -3
BITMAP
58
B8
28
30
60
20
40
40
C0
ENDCHAR
STARTCHAR 03B4
ENCODING 948
SWIDTH 500 0
DWIDTH 6 0
BBX 6 9 0 0
BITMAP
1C
24
10
18
2C
4C
C8
D8
50
ENDCHAR
STARTCHAR 03B5
ENCODING 949
SWIDTH 416 0
DWIDTH 5 0
BBX 5 6 0 0
BITMAP
78
48
30
C0
D0
50
ENDCHAR
STARTCHAR 03B6
ENCODING 950
SWIDTH 416 0
DWIDTH 5 0
BBX 6 11 0 -1
BITMAP
14
18
20
40
40
80
80
F0
70
10
30
ENDCHAR
STARTCHAR 03B7
ENCODING 951
SWIDTH 583 0
DWIDTH 7 0
BBX 6 9 0 -3
BITMAP
6C
74
6C
6C
48
D8
18
10
10
ENDCHAR
STARTCHAR 03B8
ENCODING 952
SWIDTH 500 0
DWIDTH 6 0
BBX 6 9 0 0
BITMAP
1C
24
24
64
7C
4C
C8
58
50
ENDCHAR
STARTCHAR 03B9
ENCODING 953
SWIDTH 250 0
DWIDTH 3 0
BBX 3 6 0 0
BITMAP
60
60
40
40
C0
C0
ENDCHAR
STARTCHAR 03BA
ENCODING 954
SWIDTH 500 0
DWIDTH 6 0
BBX 7 6 0 0
BITMAP
66
68
70
70
5C
D8
ENDCHAR
STARTCHAR 03BB
ENCODING 955
SWIDTH 416 0
DWIDTH 5 0
BBX 5 9 0 0
BITMAP
30
10
10
10
10
30
70
D0
D8
ENDCHAR
STARTCHAR 03BC
ENCODING 956
SWIDTH 583 0
DWIDTH 7 0
BBX 7 9 -1 -3
BITMAP
12
36
36
24
3C
64
40
C0
C0
ENDCHAR
STARTCHAR 03BD
ENCODING 957
SWIDTH 416 0
DWIDTH 5 0
BBX 5 6 0 0
BITMAP
C8
68
68
70
60
40
ENDCHAR
STARTCHAR 03BE
ENCODING 958
SWIDTH 416 0
DWIDTH 5 0
BBX 6 11 0 -2
BITMAP
24
18
20
1C
60
80
80
F0
70
10
30
ENDCHAR
STARTCHAR 03BF
ENCODING 959
SWIDTH 500 0
DWIDTH 6 0
BBX 6 6 0 0
BITMAP
38
6C
4C
C8
D8
50
ENDCHAR
STARTCHAR 03C0
ENCODING 960
SWIDTH 583 0
DWIDTH 7 0
BBX 7 6 0 0
BITMAP
7E
A8
28
48
58
D8
ENDCHAR
STARTCHAR 03C1
ENCODING 961
SWIDTH 500 0
DWIDTH 6 0
BBX 7 9 -1 -3
BITMAP
1C
36
26
24
6C
78
40
40
C0
ENDCHAR
STARTCHAR 03C2
ENCODING 962
SWIDTH 416 0
DWIDTH 5 0
BBX 5 8 0 -3
BITMAP
38
40
80
80
F0
70
10
30
ENDCHAR
STARTCHAR 03C3
ENCODING 963
SWIDTH 500 0
DWIDTH 6 0
BBX 7 6 0 0
BITMAP
3E
70
48
C8
48
50
ENDCHAR
STARTCHAR 03C4
ENCODING 964
SWIDTH 416 0
DWIDTH 5 0
BBX 6 6 0 0
BITMAP
7C
B0
20
20
60
30
ENDCHAR
STARTCHAR 03C5
ENCODING 965
SWIDTH 500 0
DWIDTH 6 0
BBX 5 6 0 0
BITMAP
68
E8
68
48
48
50
ENDCHAR
STARTCHAR 03C6
ENCODING 966
SWIDTH 583 0
DWIDTH 7 0
BBX 7 9 0 -3
BITMAP
2C
54
56
D4
DC
68
30
20
20
ENDCHAR
STARTCHAR 03C7
ENCODING 967
SWIDTH 500 0
DWIDTH 6 0
BBX 7 9 -1 -3
BITMAP
26
1C
1C
18
10
30
70
74
C8
ENDCHAR
STARTCHAR 03C8
ENCODING 968
SWIDTH 666 0
DWIDTH 8 0
BBX 7 9 1 -3
BITMAP
92
D6
A4
AC
A8
70
40
40
40
ENDCHAR
STARTCHAR 03C9
ENCODING 969
SWIDTH 750 0
DWIDTH 9 0
BBX 8 6 0 1
BITMAP
22
69
49
C9
D3
6E
ENDCHAR
STARTCHAR 03CA
ENCODING 970
SWIDTH 250 0
DWIDTH 3 0
BBX 4 9 0 0
BITMAP
50
50
00
60
60
40
40
C0
C0
ENDCHAR
STARTCHAR 03CB
ENCODING 971
SWIDTH 500 0
DWIDTH 6 0
BBX 6 9 0 0
BITMAP
28
2C
00
68
E8
68
48
48
50
ENDCHAR
STARTCHAR 03CC
ENCODING 972
SWIDTH 500 0
DWIDTH 6 0
BBX 6 9 0 0
BITMAP
08
08
00
38
6C
4C
C8
D8
50
ENDCHAR
STARTCHAR 03CD
ENCODING 973
SWIDTH 500 0
DWIDTH 6 0
BBX 5 9 0 0
BITMAP
08
08
00
68
E8
68
48
48
50
ENDCHAR
STARTCHAR 03CE
ENCODING 974
SWIDTH 750 0
DWIDTH 9 0
BBX 8 9 0 0
BITMAP
06
04
00
22
69
49
C9
D3
6E
ENDCHAR
STARTCHAR 03CF
ENCODING 975
SWIDTH 666 0
DWIDTH 8 0
BBX 8 11 0 -3
BITMAP
3B
32
34
38
3C
6C
66
66
E3
1E
0C
ENDCHAR
STARTCHAR 03D0
ENCODING 976
SWIDTH 500 0
DWIDTH 6 0
BBX 6 9 0 0
BITMAP
1C
78
40
58
68
CC
C8
D8
70
ENDCHAR
STARTCHAR 03D1
ENCODING 977
SWIDTH 500 0
DWIDTH 6 0
BBX 6 9 0 0
BITMAP
1C
24
24
24
2C
1C
C8
D8
70
ENDCHAR
STARTCHAR 03D2
ENCODING 978
SWIDTH 750 0
DWIDTH 9 0
BBX 8 9 2 0
BITMAP
C3
6D
68
30
60
60
60
60
E0
ENDCHAR
STARTCHAR 03D3
ENCODING 979
SWIDTH 833 0
DWIDTH 10 0
BBX 11 9 0 0
BITMAP
4860
84A0
0700
0600
0600
0400
0C00
0C00
0C00
ENDCHAR
STARTCHAR 03D4
ENCODING 980
SWIDTH 750 0
DWIDTH 9 0
BBX 8 11 2 0
BITMAP
2C
28
C3
6D
68
30
60
60
60
60
E0
ENDCHAR
STARTCHAR 03D5
ENCODING 981
SWIDTH 583 0
DWIDTH 7 0
BBX 7 12 0 -3
BITMAP
08
08
08
3C
54
56
D4
D4
78
20
20
20
ENDCHAR
STARTCHAR 03D6
ENCODING 982
SWIDTH 750 0
DWIDTH 9 0
BBX 9 6 0 0
BITMAP
7F80
E100
4900
4900
5300
6E00
ENDCHAR
STARTCHAR 03D7
ENCODING 983
SWIDTH 583 0
DWIDTH 7 0
BBX 7 9 0 -3
BITMAP
66
26
3C
70
F0
CC
04
08
18
ENDCHAR
STARTCHAR 03D8
ENCODING 984
SWIDTH 750 0
DWIDTH 9 0
BBX 8 12 1 -3
BITMAP
1C
22
63
C3
C6
C6
C6
CC
D8
60
60
60
ENDCHAR
STARTCHAR 03D9
ENCODING 985
SWIDTH 500 0
DWIDTH 6 0
BBX 6 9 0 -3
BITMAP
38
6C
4C
C8
D8
50
60
60
40
ENDCHAR
STARTCHAR 03DA
ENCODING 986
SWIDTH 666 0
DWIDTH 8 0
BBX 7 9 1 0
BITMAP
1E
60
60
C0
C0
C0
C0
78
30
ENDCHAR
STARTCHAR 03DB
ENCODING 987
SWIDTH 416 0
DWIDTH 5 0
BBX 6 9 0 -2
BITMAP
3C
60
80
80
C0
70
10
10
60
ENDCHAR
STARTCHAR 03DC
ENCODING 988
SWIDTH 666 0
DWIDTH 8 0
BBX 8 9 1 0
BITMAP
3F
32
20
60
78
60
40
C0
C0
ENDCHAR
STARTCHAR 03DD
ENCODING 989
SWIDTH 500 0
DWIDTH 6 0
BBX 7 9 -1 -3
BITMAP
3E
32
20
20
78
68
40
40
C0
ENDCHAR
STARTCHAR 03DE
ENCODING 990
SWIDTH 500 0
DWIDTH 6 0
BBX 5 9 1 0
BITMAP
40
40
48
B8
F8
F0
90
20
18
ENDCHAR
STARTCHAR 03DF
ENCODING 991
SWIDTH 416 0
DWIDTH 5 0
BBX 6 7 0 1
BITMAP
20
40
40
7C
F8
10
10
ENDCHAR
STARTCHAR 03E0
ENCODING 992
SWIDTH 750 0
DWIDTH 9 0
BBX 6 12 2 -3
BITMAP
F0
58
8C
9C
24
24
64
64
4C
08
10
10
ENDCHAR
STARTCHAR 03E1
ENCODING 993
SWIDTH 500 0
DWIDTH 6 0
BBX 4 9 2 -3
BITMAP
C0
60
30
F0
10
F0
10
20
20
ENDCHAR
STARTCHAR 03E2
ENCODING 994
SWIDTH 833 0
DWIDTH 10 0
BBX 10 12 0 -3
BITMAP
36C0
36C0
36C0
26C0
6C80
6D80
6D80
7F80
4D00
0300
6300
9E00
ENDCHAR
STARTCHAR 03E3
ENCODING 995
SWIDTH 750 0
DWIDTH 9 0
BBX 9 9 0 -3
BITMAP
6D80
ED80
6900
5F00
FF00
DB00
0200
E600
9C00
ENDCHAR
STARTCHAR 03E4
ENCODING 996
SWIDTH 750 0
DWIDTH 9 0
BBX 8 9 1 0
BITMAP
37
46
C6
C6
C4
7C
0C
0C
1C
ENDCHAR
STARTCHAR 03E5
ENCODING 997
SWIDTH 583 0
DWIDTH 7 0
BBX 7 9 0 0
BITMAP
3E
46
44
CC
DC
6C
08
08
08
ENDCHAR
STARTCHAR 03E6
ENCODING 998
SWIDTH 750 0
DWIDTH 9 0
BBX 9 12 -1 -3
BITMAP
1C00
0800
1800
1800
1B00
3480
3080
3080
7180
0180
6300
9E00
ENDCHAR
STARTCHAR 03E7
ENCODING 999
SWIDTH 500 0
DWIDTH 6 0
BBX 5 6 0 0
BITMAP
38
D8
68
08
90
60
ENDCHAR
STARTCHAR 03E8
ENCODING 1000
SWIDTH 583 0
DWIDTH 7 0
BBX 7 9 0 0
BITMAP
1E
22
26
04
18
64
C4
C4
78
ENDCHAR
STARTCHAR 03E9
ENCODING 1001
SWIDTH 583 0
DWIDTH 7 0
BBX 7 9 0 0
BITMAP
1E
22
26
04
18
60
C0
C4
78
ENDCHAR
STARTCHAR 03EA
ENCODING 1002
SWIDTH 666 0
DWIDTH 8 0
BBX 9 9 0 0
BITMAP
3980
2A80
0C00
0C00
0C00
3C00
2400
7E00
FE00
ENDCHAR
STARTCHAR 03EB
ENCODING 1003
SWIDTH 583 0
DWIDTH 7 0
BBX 7 6 0 0
BITMAP
66
DA
10
10
78
58
ENDCHAR
STARTCHAR 03EC
ENCODING 1004
SWIDTH 750 0
DWIDTH 9 0
BBX 8 9 1 0
BITMAP
1F
30
5C
E2
C3
83
82
C6
78
ENDCHAR
STARTCHAR 03ED
ENCODING 1005
SWIDTH 500 0
DWIDTH 6 0
BBX 6 6 0 0
BITMAP
1C
60
78
CC
C8
70
ENDCHAR
STARTCHAR 03EE
ENCODING 1006
SWIDTH 416 0
DWIDTH 5 0
BBX 6 9 0 0
BITMAP
18
18
7C
B4
30
30
30
60
60
ENDCHAR
STARTCHAR 03EF
ENCODING 1007
SWIDTH 416 0
DWIDTH 5 0
BBX 5 9 0 0
BITMAP
18
10
10
78
A0
20
60
60
40
ENDCHAR
STARTCHAR 03F0
ENCODING 1008
SWIDTH 583 0
DWIDTH 7 0
BBX 7 6 0 0
BITMAP
66
26
3C
70
F0
CC
ENDCHAR
STARTCHAR 03F1
ENCODING 1009
SWIDTH 583 0
DWIDTH 7 0
BBX 7 9 -1 -3
BITMAP
1E
32
22
66
A4
A8
50
40
38
ENDCHAR
STARTCHAR 03F2
ENCODING 1010
SWIDTH 416 0
DWIDTH 5 0
BBX 5 6 0 0
BITMAP
38
40
40
C0
C8
70
ENDCHAR
STARTCHAR 03F3
ENCODING 1011
SWIDTH 250 0
DWIDTH 3 0
BBX 5 12 -2 -3
BITMAP
08
08
00
18
18
18
10
10
30
30
20
C0
ENDCHAR
STARTCHAR 03F4
ENCODING 1012
SWIDTH 750 0
DWIDTH 9 0
BBX 8 9 1 0
BITMAP
1C
22
63
C3
FE
C6
C4
CC
70
ENDCHAR
STARTCHAR 03F5
ENCODING 1013
SWIDTH 416 0
DWIDTH 5 0
BBX 5 6 0 0
BITMAP
38
60
40
F0
C0
60
ENDCHAR
STARTCHAR 03F6
ENCODING 1014
SWIDTH 416 0
DWIDTH 5 0
BBX 4 6 1 0
BITMAP
60
30
30
F0
20
C0
ENDCHAR
STARTCHAR 03F7
ENCODING 1015
SWIDTH 583 0
DWIDTH 7 0
BBX 6 9 1 0
BITMAP
30
20
78
6C
4C
4C
F0
C0
C0
ENDCHAR
STARTCHAR 03F8
ENCODING 1016
SWIDTH 500 0
DWIDTH 6 0
BBX 7 12 -1 -3
BITMAP
08
10
10
1C
36
26
24
6C
68
50
40
C0
ENDCHAR
STARTCHAR 03F9
ENCODING 1017
SWIDTH 666 0
DWIDTH 8 0
BBX 8 9 1 0
BITMAP
1E
21
60
C0
C0
C0
C0
C4
78
ENDCHAR
STARTCHAR 03FA
ENCODING 1018
SWIDTH 916 0
DWIDTH 11 0
BBX 11 9 0 0
BITMAP
30E0
1940
29C0
4EC0
4CC0
4180
4180
8180
C380
ENDCHAR
STARTCHAR 03FB
ENCODING 1019
SWIDTH 666 0
DWIDTH 8 0
BBX 8 8 -1 -3
BITMAP
11
1F
3F
5B
5A
56
40
80
ENDCHAR
STARTCHAR 03FC
ENCODING 1020
SWIDTH 500 0
DWIDTH 6 0
BBX 7 9 -1 -3
BITMAP
1C
36
26
24
6C
78
40
F0
C0
ENDCHAR
STARTCHAR 03FD
ENCODING 1021
SWIDTH 666 0
DWIDTH 8 0
BBX 8 9 0 0
BITMAP
1E
03
03
03
03
03
06
8C
78
ENDCHAR
STARTCHAR 03FE
ENCODING 1022
SWIDTH 666 0
DWIDTH 8 0
BBX 7 9 1 0
BITMAP
1E
20
60
C8
C8
C0
C0
C4
78
ENDCHAR
STARTCHAR 03FF
ENCODING 1023
SWIDTH 666 0
DWIDTH 8 0
BBX 8 9 0 0
BITMAP
1E
03
03
33
33
03
06
8C
78
ENDCHAR
STARTCHAR 0400
ENCODING 1024
SWIDTH 666 0
DWIDTH 8 0
BBX 7 12 1 0
BITMAP
18
08
00
3E
22
62
60
78
C8
C0
C4
FC
ENDCHAR
STARTCHAR 0401
ENCODING 1025
SWIDTH 666 0
DWIDTH 8 0
BBX 7 11 1 0
BITMAP
14
14
3E
22
62
60
78
C8
C0
C4
FC
ENDCHAR
STARTCHAR 0402
ENCODING 1026
SWIDTH 833 0
DWIDTH 10 0
BBX 7 9 2 0
BITMAP
FC
20
60
6E
76
42
C6
C6
CC
ENDCHAR
STARTCHAR 0403
ENCODING 1027
SWIDTH 583 0
DWIDTH 7 0
BBX 8 12 0 0
BITMAP
02
04
00
3F
31
30
30
30
60
60
60
E0
ENDCHAR
STARTCHAR 0404
ENCODING 1028
SWIDTH 666 0
DWIDTH 8 0
BBX 8 9 1 0
BITMAP
1F
30
60
C0
F8
C0
80
84
F8
ENDCHAR
STARTCHAR 0405
ENCODING 1029
SWIDTH 583 0
DWIDTH 7 0
BBX 7 9 0 0
BITMAP
3E
22
20
30
18
1C
8C
8C
F8
ENDCHAR
STARTCHAR 0406
ENCODING 1030
SWIDTH 416 0
DWIDTH 5 0
BBX 5 9 0 0
BITMAP
38
30
30
30
30
60
60
60
E0
ENDCHAR
STARTCHAR 0407
ENCODING 1031
SWIDTH 416 0
DWIDTH 5 0
BBX 6 11 0 0
BITMAP
3C
24
38
30
30
30
30
60
60
60
E0
ENDCHAR
STARTCHAR 0408
ENCODING 1032
SWIDTH 500 0
DWIDTH 6 0
BBX 6 9 0 0
BITMAP
0C
0C
0C
18
18
18
10
B0
A0
ENDCHAR
STARTCHAR 0409
ENCODING 1033
SWIDTH 916 0
DWIDTH 11 0
BBX 11 9 -1 0
BITMAP
0F80
0980
0B00
1300
13C0
1360
2660
A660
CFC0
ENDCHAR
STARTCHAR 040A
ENCODING 1034
SWIDTH 1000 0
DWIDTH 12 0
BBX 11 9 0 0
BITMAP
3980
3100
3300
3300
3FC0
6260
6660
6660
E7C0
ENDCHAR
STARTCHAR 040B
ENCODING 1035
SWIDTH 833 0
DWIDTH 10 0
BBX 7 9 2 0
BITMAP
FC
34
60
6E
76
46
C6
C4
CC
ENDCHAR
STARTCHAR 040C
ENCODING 1036
SWIDTH 666 0
DWIDTH 8 0
BBX 9 12 0 0
BITMAP
0200
0200
0000
3980
3280
3400
3400
3800
6C00
6C00
6400
E600
ENDCHAR
STARTCHAR 040D
ENCODING 1037
SWIDTH 750 0
DWIDTH 9 0
BBX 9 12 0 0
BITMAP
0C00
0400
0000
3B80
3180
3380
3500
2B00
7300
7300
6200
E600
ENDCHAR
STARTCHAR 040E
ENCODING 1038
SWIDTH 666 0
DWIDTH 8 0
BBX 8 11 1 1
BITMAP
1C
00
63
22
34
34
38
18
10
D0
60
ENDCHAR
STARTCHAR 040F
ENCODING 1039
SWIDTH 750 0
DWIDTH 9 0
BBX 9 11 0 -3
BITMAP
3B80
3180
3180
3100
3300
6300
6300
6200
E600
1800
1000
ENDCHAR
STARTCHAR 0410
ENCODING 1040
SWIDTH 666 0
DWIDTH 8 0
BBX 7 9 0 0
BITMAP
02
06
06
1E
26
3E
46
86
8E
ENDCHAR
STARTCHAR 0411
ENCODING 1041
SWIDTH 666 0
DWIDTH 8 0
BBX 8 9 0 0
BITMAP
3F
31
30
30
38
66
66
66
FC
ENDCHAR
STARTCHAR 0412
ENCODING 1042
SWIDTH 666 0
DWIDTH 8 0
BBX 7 9 1 0
BITMAP
7C
26
66
6C
70
4C
CC
CC
F8
ENDCHAR
STARTCHAR 0413
ENCODING 1043
SWIDTH 583 0
DWIDTH 7 0
BBX 8 9 0 0
BITMAP
3F
31
30
30
30
60
60
60
E0
ENDCHAR
STARTCHAR 0414
ENCODING 1044
SWIDTH 666 0
DWIDTH 8 0
BBX 9 11 -1 -3
BITMAP
1F80
0980
0980
1300
1300
1300
2300
2600
4E00
B100
8100
ENDCHAR
STARTCHAR 0415
ENCODING 1045
SWIDTH 666 0
DWIDTH 8 0
BBX 7 9 1 0
BITMAP
3E
22
62
60
78
C8
C0
C4
FC
ENDCHAR
STARTCHAR 0416
ENCODING 1046
SWIDTH 916 0
DWIDTH 11 0
BBX 12 9 0 0
BITMAP
3730
3270
1680
1680
1F00
3580
6D80
6C80
CCC0
ENDCHAR
STARTCHAR 0417
ENCODING 1047
SWIDTH 500 0
DWIDTH 6 0
BBX 5 9 1 0
BITMAP
78
18
18
10
60
10
10
30
E0
ENDCHAR
STARTCHAR 0418
ENCODING 1048
SWIDTH 750 0
DWIDTH 9 0
BBX 9 9 0 0
BITMAP
3B80
3180
3380
3500
2B00
7300
7300
6200
E600
ENDCHAR
STARTCHAR 0419
ENCODING 1049
SWIDTH 750 0
DWIDTH 9 0
BBX 9 11 0 1
BITMAP
0580
0300
3980
3180
3380
3500
2B00
7300
7300
6200
E600
ENDCHAR
STARTCHAR 041A
ENCODING 1050
SWIDTH 666 0
DWIDTH 8 0
BBX 9 9 0 0
BITMAP
3980
3280
3400
3400
3800
6C00
6C00
6400
E600
ENDCHAR
STARTCHAR 041B
ENCODING 1051
SWIDTH 666 0
DWIDTH 8 0
BBX 10 9 -1 0
BITMAP
0FC0
0980
0980
1300
1300
1300
2300
A600
C600
ENDCHAR
STARTCHAR 041C
ENCODING 1052
SWIDTH 916 0
DWIDTH 11 0
BBX 11 9 0 0
BITMAP
3860
18C0
39C0
5AC0
5AC0
5D80
5980
8980
C380
ENDCHAR
STARTCHAR 041D
ENCODING 1053
SWIDTH 750 0
DWIDTH 9 0
BBX 10 9 0 0
BITMAP
39C0
3180
3180
3100
3F00
6300
6300
6200
E600
ENDCHAR
STARTCHAR 041E
ENCODING 1054
SWIDTH 750 0
DWIDTH 9 0
BBX 8 9 1 0
BITMAP
1C
22
63
C3
C6
C6
C4
CC
70
ENDCHAR
STARTCHAR 041F
ENCODING 1055
SWIDTH 750 0
DWIDTH 9 0
BBX 10 9 0 0
BITMAP
3FC0
3180
3180
3100
3300
6300
6300
6200
E600
ENDCHAR
STARTCHAR 0420
ENCODING 1056
SWIDTH 583 0
DWIDTH 7 0
BBX 7 9 1 0
BITMAP
3C
26
66
6C
78
40
C0
C0
C0
ENDCHAR
STARTCHAR 0421
ENCODING 1057
SWIDTH 666 0
DWIDTH 8 0
BBX 8 9 1 0
BITMAP
1F
20
60
C0
C0
C0
C0
C4
78
ENDCHAR
STARTCHAR 0422
ENCODING 1058
SWIDTH 583 0
DWIDTH 7 0
BBX 6 9 2 0
BITMAP
FC
34
20
60
60
60
40
C0
C0
ENDCHAR
STARTCHAR 0423
ENCODING 1059
SWIDTH 666 0
DWIDTH 8 0
BBX 8 9 1 0
BITMAP
63
22
34
34
38
18
10
D0
60
ENDCHAR
STARTCHAR 0424
ENCODING 1060
SWIDTH 833 0
DWIDTH 10 0
BBX 9 9 1 0
BITMAP
0E00
1E00
6D80
CD80
D980
9980
DB00
7C00
3800
ENDCHAR
STARTCHAR 0425
ENCODING 1061
SWIDTH 666 0
DWIDTH 8 0
BBX 9 9 0 0
BITMAP
3180
3200
1A00
1C00
1800
1C00
2C00
4400
C600
ENDCHAR
STARTCHAR 0426
ENCODING 1062
SWIDTH 750 0
DWIDTH 9 0
BBX 9 12 0 -3
BITMAP
3980
3180
3180
3100
2300
6300
6300
6200
E600
1900
0100
0100
ENDCHAR
STARTCHAR 0427
ENCODING 1063
SWIDTH 750 0
DWIDTH 9 0
BBX 7 9 2 0
BITMAP
EE
C6
C4
8C
8C
FC
08
18
18
ENDCHAR
STARTCHAR 0428
ENCODING 1064
SWIDTH 1166 0
DWIDTH 14 0
BBX 14 9 0 0
BITMAP
399C
3198
3118
3318
2310
6330
6230
6630
EF70
ENDCHAR
STARTCHAR 0429
ENCODING 1065
SWIDTH 1166 0
DWIDTH 14 0
BBX 14 12 0 -3
BITMAP
399C
3198
3118
3318
2310
6330
6230
6630
EF70
1090
0010
0010
ENDCHAR
STARTCHAR 042A
ENCODING 1066
SWIDTH 750 0
DWIDTH 9 0
BBX 6 9 2 0
BITMAP
F0
30
30
60
78
6C
64
CC
D8
ENDCHAR
STARTCHAR 042B
ENCODING 1067
SWIDTH 1000 0
DWIDTH 12 0
BBX 12 9 0 0
BITMAP
3870
3060
3060
3060
3840
66C0
66C0
66C0
FDC0
ENDCHAR
STARTCHAR 042C
ENCODING 1068
SWIDTH 666 0
DWIDTH 8 0
BBX 7 9 0 0
BITMAP
38
30
30
30
38
66
66
66
FC
ENDCHAR
STARTCHAR 042D
ENCODING 1069
SWIDTH 666 0
DWIDTH 8 0
BBX 8 9 0 0
BITMAP
3C
46
42
03
1F
06
06
8C
78
ENDCHAR
STARTCHAR 042E
ENCODING 1070
SWIDTH 1083 0
DWIDTH 13 0
BBX 13 9 0 0
BITMAP
38E0
3110
3318
3618
3E30
6630
6620
6660
E3C0
ENDCHAR
STARTCHAR 042F
ENCODING 1071
SWIDTH 666 0
DWIDTH 8 0
BBX 8 9 0 0
BITMAP
1F
33
33
32
0E
36
66
64
CC
ENDCHAR
STARTCHAR 0430
ENCODING 1072
SWIDTH 500 0
DWIDTH 6 0
BBX 6 6 0 0
BITMAP
3C
68
48
D8
DC
F8
ENDCHAR
STARTCHAR 0431
ENCODING 1073
SWIDTH 500 0
DWIDTH 6 0
BBX 6 9 0 0
BITMAP
1C
38
40
78
6C
4C
C8
D8
50
ENDCHAR
STARTCHAR 0432
ENCODING 1074
SWIDTH 416 0
DWIDTH 5 0
BBX 5 6 0 0
BITMAP
38
68
50
F0
D0
70
ENDCHAR
STARTCHAR 0433
ENCODING 1075
SWIDTH 333 0
DWIDTH 4 0
BBX 4 6 0 0
BITMAP
30
10
20
40
80
E0
ENDCHAR
STARTCHAR 0434
ENCODING 1076
SWIDTH 500 0
DWIDTH 6 0
BBX 6 9 0 0
BITMAP
10
08
08
3C
6C
4C
C8
D8
70
ENDCHAR
STARTCHAR 0435
ENCODING 1077
SWIDTH 416 0
DWIDTH 5 0
BBX 5 6 0 0
BITMAP
18
68
50
E0
C8
70
ENDCHAR
STARTCHAR 0436
ENCODING 1078
SWIDTH 916 0
DWIDTH 11 0
BBX 11 6 0 0
BITMAP
3260
16A0
1F80
1580
A5A0
CCC0
ENDCHAR
STARTCHAR 0437
ENCODING 1079
SWIDTH 416 0
DWIDTH 5 0
BBX 4 6 0 0
BITMAP
70
10
20
30
30
E0
ENDCHAR
STARTCHAR 0438
ENCODING 1080
SWIDTH 583 0
DWIDTH 7 0
BBX 6 6 0 0
BITMAP
64
6C
6C
58
E8
D8
ENDCHAR
STARTCHAR 0439
ENCODING 1081
SWIDTH 583 0
DWIDTH 7 0
BBX 6 9 0 0
BITMAP
14
18
00
64
6C
6C
58
E8
58
ENDCHAR
STARTCHAR 043A
ENCODING 1082
SWIDTH 500 0
DWIDTH 6 0
BBX 6 6 0 0
BITMAP
64
68
70
50
58
C8
ENDCHAR
STARTCHAR 043B
ENCODING 1083
SWIDTH 500 0
DWIDTH 6 0
BBX 7 6 -1 0
BITMAP
3E
24
24
2C
4C
CC
ENDCHAR
STARTCHAR 043C
ENCODING 1084
SWIDTH 666 0
DWIDTH 8 0
BBX 9 6 -1 0
BITMAP
1980
2B00
2D00
2F00
4B80
C300
ENDCHAR
STARTCHAR 043D
ENCODING 1085
SWIDTH 583 0
DWIDTH 7 0
BBX 6 6 0 0
BITMAP
64
6C
7C
48
48
C8
ENDCHAR
STARTCHAR 043E
ENCODING 1086
SWIDTH 500 0
DWIDTH 6 0
BBX 6 6 0 0
BITMAP
38
6C
4C
C8
D8
50
ENDCHAR
STARTCHAR 043F
ENCODING 1087
SWIDTH 583 0
DWIDTH 7 0
BBX 6 6 0 0
BITMAP
6C
7C
6C
48
48
C8
ENDCHAR
STARTCHAR 0440
ENCODING 1088
SWIDTH 500 0
DWIDTH 6 0
BBX 7 9 -1 -3
BITMAP
3C
36
26
24
6C
68
50
40
C0
ENDCHAR
STARTCHAR 0441
ENCODING 1089
SWIDTH 416 0
DWIDTH 5 0
BBX 5 6 0 0
BITMAP
38
48
40
C0
C8
70
ENDCHAR
STARTCHAR 0442
ENCODING 1090
SWIDTH 750 0
DWIDTH 9 0
BBX 9 6 0 0
BITMAP
6D80
7F80
6D00
4900
DB80
DB00
ENDCHAR
STARTCHAR 0443
ENCODING 1091
SWIDTH 416 0
DWIDTH 5 0
BBX 6 9 -1 -3
BITMAP
24
34
34
38
38
30
20
A0
C0
ENDCHAR
STARTCHAR 0444
ENCODING 1092
SWIDTH 750 0
DWIDTH 9 0
BBX 8 12 0 -3
BITMAP
0C
04
0C
3F
69
49
DB
DA
7C
10
30
30
ENDCHAR
STARTCHAR 0445
ENCODING 1093
SWIDTH 500 0
DWIDTH 6 0
BBX 7 6 -1 0
BITMAP
36
18
18
18
2A
CC
ENDCHAR
STARTCHAR 0446
ENCODING 1094
SWIDTH 583 0
DWIDTH 7 0
BBX 6 7 0 -3
BITMAP
64
6C
6C
58
E8
D8
08
ENDCHAR
STARTCHAR 0447
ENCODING 1095
SWIDTH 500 0
DWIDTH 6 0
BBX 5 6 1 0
BITMAP
D8
D0
90
F0
38
30
ENDCHAR
STARTCHAR 0448
ENCODING 1096
SWIDTH 833 0
DWIDTH 10 0
BBX 9 6 0 0
BITMAP
6480
6C80
6D80
5980
EF00
C980
ENDCHAR
STARTCHAR 0449
ENCODING 1097
SWIDTH 833 0
DWIDTH 10 0
BBX 9 8 0 -3
BITMAP
6480
6C80
6D80
5980
EF00
C980
0080
0080
ENDCHAR
STARTCHAR 044A
ENCODING 1098
SWIDTH 500 0
DWIDTH 6 0
BBX 6 6 0 0
BITMAP
70
B0
28
3C
68
38
ENDCHAR
STARTCHAR 044B
ENCODING 1099
SWIDTH 666 0
DWIDTH 8 0
BBX 7 6 1 0
BITMAP
C6
C6
E4
BC
BE
EC
ENDCHAR
STARTCHAR 044C
ENCODING 1100
SWIDTH 416 0
DWIDTH 5 0
BBX 4 6 1 0
BITMAP
C0
C0
E0
B0
B0
E0
ENDCHAR
STARTCHAR 044D
ENCODING 1101
SWIDTH 416 0
DWIDTH 5 0
BBX 4 6 0 0
BITMAP
70
10
70
30
30
E0
ENDCHAR
STARTCHAR 044E
ENCODING 1102
SWIDTH 750 0
DWIDTH 9 0
BBX 8 6 0 0
BITMAP
67
69
79
5B
5A
CC
ENDCHAR
STARTCHAR 044F
ENCODING 1103
SWIDTH 500 0
DWIDTH 6 0
BBX 6 6 0 0
BITMAP
7C
68
38
78
58
D8
ENDCHAR
STARTCHAR 0450
ENCODING 1104
SWIDTH 416 0
DWIDTH 5 0
BBX 5 9 0 0
BITMAP
10
08
00
18
68
50
E0
C8
70
ENDCHAR
STARTCHAR 0451
ENCODING 1105
SWIDTH 416 0
DWIDTH 5 0
BBX 6 9 0 0
BITMAP
3C
24
00
18
68
50
E0
C8
70
ENDCHAR
STARTCHAR 0452
ENCODING 1106
SWIDTH 500 0
DWIDTH 6 0
BBX 6 11 0 -3
BITMAP
30
7C
20
2C
7C
6C
48
48
D8
10
20
ENDCHAR
STARTCHAR 0453
ENCODING 1107
SWIDTH 416 0
DWIDTH 5 0
BBX 5 9 0 0
BITMAP
18
10
00
78
60
60
40
C0
C0
ENDCHAR
STARTCHAR 0454
ENCODING 1108
SWIDTH 416 0
DWIDTH 5 0
BBX 5 6 0 0
BITMAP
38
60
70
C0
C0
60
ENDCHAR
STARTCHAR 0455
ENCODING 1109
SWIDTH 416 0
DWIDTH 5 0
BBX 4 6 0 0
BITMAP
70
40
60
30
90
A0
ENDCHAR
STARTCHAR 0456
ENCODING 1110
SWIDTH 250 0
DWIDTH 3 0
BBX 3 9 0 0
BITMAP
20
20
00
60
60
40
40
C0
C0
ENDCHAR
STARTCHAR 0457
ENCODING 1111
SWIDTH 250 0
DWIDTH 3 0
BBX 4 9 0 0
BITMAP
50
50
00
60
60
40
40
C0
C0
ENDCHAR
STARTCHAR 0458
ENCODING 1112
SWIDTH 250 0
DWIDTH 3 0
BBX 5 12 -2 -3
BITMAP
08
08
00
18
18
18
10
10
30
30
20
C0
ENDCHAR
STARTCHAR 0459
ENCODING 1113
SWIDTH 666 0
DWIDTH 8 0
BBX 8 6 -1 0
BITMAP
0C
14
2F
2D
49
CE
ENDCHAR
STARTCHAR 045A
ENCODING 1114
SWIDTH 750 0
DWIDTH 9 0
BBX 8 6 0 0
BITMAP
6C
6C
7E
4B
4B
CE
ENDCHAR
STARTCHAR 045B
ENCODING 1115
SWIDTH 583 0
DWIDTH 7 0
BBX 6 9 0 0
BITMAP
30
78
20
2C
7C
6C
48
48
D8
ENDCHAR
STARTCHAR 045C
ENCODING 1116
SWIDTH 500 0
DWIDTH 6 0
BBX 6 9 0 0
BITMAP
0C
08
00
64
68
70
50
58
C8
ENDCHAR
STARTCHAR 045D
ENCODING 1117
SWIDTH 583 0
DWIDTH 7 0
BBX 6 9 0 0
BITMAP
10
08
00
64
6C
6C
58
E8
D8
ENDCHAR
STARTCHAR 045E
ENCODING 1118
SWIDTH 416 0
DWIDTH 5 0
BBX 6 12 -1 -3
BITMAP
10
08
00
24
34
34
38
38
30
20
A0
C0
ENDCHAR
STARTCHAR 045F
ENCODING 1119
SWIDTH 583 0
DWIDTH 7 0
BBX 6 8 0 -3
BITMAP
64
6C
6C
58
E8
D8
40
40
ENDCHAR
STARTCHAR 0460
ENCODING 1120
SWIDTH 1166 0
DWIDTH 14 0
BBX 13 9 1 0
BITMAP
1CE0
6590
C018
C018
CF18
C610
C630
C420
7AC0
ENDCHAR
STARTCHAR 0461
ENCODING 1121
SWIDTH 583 0
DWIDTH 7 0
BBX 6 5 1 0
BITMAP
B4
B4
D8
D8
90
ENDCHAR
STARTCHAR 0462
ENCODING 1122
SWIDTH 666 0
DWIDTH 8 0
BBX 7 9 0 0
BITMAP
18
7E
92
B0
3C
36
26
66
7C
ENDCHAR
STARTCHAR 0463
ENCODING 1123
SWIDTH 666 0
DWIDTH 8 0
BBX 8 6 0 0
BITMAP
6C
74
6A
5F
5B
CE
ENDCHAR
STARTCHAR 0464
ENCODING 1124
SWIDTH 1000 0
DWIDTH 12 0
BBX 13 9 0 0
BITMAP
3878
1188
3300
3200
3FC0
2600
6600
6620
E3C0
ENDCHAR
STARTCHAR 0465
ENCODING 1125
SWIDTH 666 0
DWIDTH 8 0
BBX 8 6 0 0
BITMAP
67
6C
7E
58
58
CC
ENDCHAR
STARTCHAR 0466
ENCODING 1126
SWIDTH 666 0
DWIDTH 8 0
BBX 7 9 0 0
BITMAP
02
06
06
1E
16
3E
56
96
AE
ENDCHAR
STARTCHAR 0467
ENCODING 1127
SWIDTH 583 0
DWIDTH 7 0
BBX 6 6 0 0
BITMAP
08
18
28
78
AC
2C
ENDCHAR
STARTCHAR 0468
ENCODING 1128
SWIDTH 1083 0
DWIDTH 13 0
BBX 11 9 0 0
BITMAP
3800
1020
3060
30E0
3F60
22E0
6560
6560
ED60
ENDCHAR
STARTCHAR 0469
ENCODING 1129
SWIDTH 833 0
DWIDTH 10 0
BBX 9 6 0 0
BITMAP
6100
6300
7D80
4A80
5280
D480
ENDCHAR
STARTCHAR 046A
ENCODING 1130
SWIDTH 916 0
DWIDTH 11 0
BBX 11 9 0 0
BITMAP
1FE0
0840
0C80
0500
0F00
3780
6C80
CC80
CCC0
ENDCHAR
STARTCHAR 046B
ENCODING 1131
SWIDTH 666 0
DWIDTH 8 0
BBX 7 6 0 0
BITMAP
3E
14
18
7E
5E
F2
ENDCHAR
STARTCHAR 046C
ENCODING 1132
SWIDTH 1333 0
DWIDTH 16 0
BBX 15 9 0 0
BITMAP
38FE
1044
3068
3068
3FF8
236C
636C
6664
EEE6
ENDCHAR
STARTCHAR 046D
ENCODING 1133
SWIDTH 1000 0
DWIDTH 12 0
BBX 11 6 0 0
BITMAP
63E0
6340
6180
7FC0
4D60
DB60
ENDCHAR
STARTCHAR 046E
ENCODING 1134
SWIDTH 500 0
DWIDTH 6 0
BBX 7 14 -1 -3
BITMAP
0A
0C
16
06
06
04
18
04
04
04
38
C0
88
F4
ENDCHAR
STARTCHAR 046F
ENCODING 1135
SWIDTH 416 0
DWIDTH 5 0
BBX 6 11 -1 -3
BITMAP
34
18
28
08
10
18
18
10
E0
80
F0
ENDCHAR
STARTCHAR 0470
ENCODING 1136
SWIDTH 833 0
DWIDTH 10 0
BBX 9 9 1 0
BITMAP
CE80
4D80
4D80
6980
7B00
1C00
1800
1000
3000
ENDCHAR
STARTCHAR 0471
ENCODING 1137
SWIDTH 666 0
DWIDTH 8 0
BBX 7 9 1 -3
BITMAP
92
D6
E4
EC
A8
F0
40
40
40
ENDCHAR
STARTCHAR 0472
ENCODING 1138
SWIDTH 750 0
DWIDTH 9 0
BBX 8 9 1 0
BITMAP
1C
22
43
F3
CE
C6
C4
CC
70
ENDCHAR
STARTCHAR 0473
ENCODING 1139
SWIDTH 500 0
DWIDTH 6 0
BBX 6 6 0 0
BITMAP
38
6C
6C
D8
D8
50
ENDCHAR
STARTCHAR 0474
ENCODING 1140
SWIDTH 750 0
DWIDTH 9 0
BBX 8 9 2 0
BITMAP
C3
C3
CC
C8
D0
E0
C0
80
80
ENDCHAR
STARTCHAR 0475
ENCODING 1141
SWIDTH 500 0
DWIDTH 6 0
BBX 5 6 1 0
BITMAP
88
D0
E0
C0
C0
80
ENDCHAR
STARTCHAR 0476
ENCODING 1142
SWIDTH 750 0
DWIDTH 9 0
BBX 8 12 2 0
BITMAP
18
18
00
C3
C3
CC
C8
D0
E0
C0
80
80
ENDCHAR
STARTCHAR 0477
ENCODING 1143
SWIDTH 500 0
DWIDTH 6 0
BBX 5 9 1 0
BITMAP
30
30
00
88
D0
E0
C0
C0
80
ENDCHAR
STARTCHAR 0478
ENCODING 1144
SWIDTH 1083 0
DWIDTH 13 0
BBX 12 12 1 -3
BITMAP
1C00
6600
4600
C790
C6D0
C6D0
CCE0
C8E0
70C0
0080
0280
0300
ENDCHAR
STARTCHAR 0479
ENCODING 1145
SWIDTH 916 0
DWIDTH 11 0
BBX 11 9 0 -3
BITMAP
3B40
4B20
4940
C940
D180
6100
0100
0A00
0C00
ENDCHAR
STARTCHAR 047A
ENCODING 1146
SWIDTH 833 0
DWIDTH 10 0
BBX 10 11 0 -1
BITMAP
0200
0F80
30C0
60C0
40C0
C0C0
C080
C180
C300
7E00
1000
ENDCHAR
STARTCHAR 047B
ENCODING 1147
SWIDTH 583 0
DWIDTH 7 0
BBX 7 8 0 -1
BITMAP
08
3C
46
C6
C6
C4
E8
30
ENDCHAR
STARTCHAR 047C
ENCODING 1148
SWIDTH 1166 0
DWIDTH 14 0
BBX 13 13 1 0
BITMAP
0180
0770
0100
0100
1CF0
6498
4018
C018
C018
C010
C030
C060
7F80
ENDCHAR
STARTCHAR 047D
ENCODING 1149
SWIDTH 833 0
DWIDTH 10 0
BBX 10 11 0 0
BITMAP
0700
08C0
0200
0200
0000
2080
4080
4080
C080
C980
7700
ENDCHAR
STARTCHAR 047E
ENCODING 1150
SWIDTH 1166 0
DWIDTH 14 0
BBX 13 12 1 0
BITMAP
07C0
0040
0000
1CE0
6590
C018
C018
CF18
C610
C630
C420
7AC0
ENDCHAR
STARTCHAR 047F
ENCODING 1151
SWIDTH 583 0
DWIDTH 7 0
BBX 6 8 1 0
BITMAP
7C
54
00
B4
B4
D8
D8
90
ENDCHAR
STARTCHAR 0480
ENCODING 1152
SWIDTH 666 0
DWIDTH 8 0
BBX 8 12 1 -3
BITMAP
1F
20
60
C0
C0
C0
C0
C0
70
30
30
70
ENDCHAR
STARTCHAR 0481
ENCODING 1153
SWIDTH 416 0
DWIDTH 5 0
BBX 5 9 0 -3
BITMAP
38
48
40
C0
C0
60
60
60
60
ENDCHAR
STARTCHAR 0482
ENCODING 1154
SWIDTH 416 0
DWIDTH 5 0
BBX 6 9 0 0
BITMAP
04
08
30
10
68
20
50
40
80
ENDCHAR
STARTCHAR 0483
ENCODING 1155
SWIDTH 0 0
DWIDTH 0 0
BBX 4 2 -1 6
BITMAP
10
F0
ENDCHAR
STARTCHAR 0484
ENCODING 1156
SWIDTH 0 0
DWIDTH 0 0
BBX 4 2 -1 6
BITMAP
30
C0
ENDCHAR
STARTCHAR 0485
ENCODING 1157
SWIDTH 0 0
DWIDTH 0 0
BBX 2 2 0 6
BITMAP
40
80
ENDCHAR
STARTCHAR 0486
ENCODING 1158
SWIDTH 0 0
DWIDTH 0 0
BBX 2 3 0 6
BITMAP
40
40
80
ENDCHAR
STARTCHAR 0487
ENCODING 1159
SWIDTH 0 0
DWIDTH 0 0
BBX 7 2 -2 8
BITMAP
70
8E
ENDCHAR
STARTCHAR 0488
ENCODING 1160
SWIDTH 0 0
DWIDTH 0 0
BBX 12 11 -6 -2
BITMAP
0600
0000
2040
4020
0000
4020
A050
0000
2040
4020
0600
ENDCHAR
STARTCHAR 0489
ENCODING 1161
SWIDTH 0 0
DWIDTH 0 0
BBX 10 10 -5 -1
BITMAP
0800
0080
4000
0000
00C0
C000
0000
0080
4000
0800
ENDCHAR
STARTCHAR 048A
ENCODING 1162
SWIDTH 750 0
DWIDTH 9 0
BBX 9 13 0 -3
BITMAP
0900
0600
3980
3180
3380
3500
2B00
7300
7300
6200
E600
0100
0200
ENDCHAR
STARTCHAR 048B
ENCODING 1163
SWIDTH 583 0
DWIDTH 7 0
BBX 6 11 0 -3
BITMAP
14
18
00
64
6C
6C
58
E8
D8
08
08
ENDCHAR
STARTCHAR 048C
ENCODING 1164
SWIDTH 666 0
DWIDTH 8 0
BBX 7 9 0 0
BITMAP
18
78
30
30
38
66
66
66
FC
ENDCHAR
STARTCHAR 048D
ENCODING 1165
SWIDTH 416 0
DWIDTH 5 0
BBX 4 9 1 0
BITMAP
60
F0
40
40
C0
E0
B0
B0
E0
ENDCHAR
STARTCHAR 048E
ENCODING 1166
SWIDTH 583 0
DWIDTH 7 0
BBX 8 9 0 0
BITMAP
3E
13
33
36
3C
20
60
60
E0
ENDCHAR
STARTCHAR 048F
ENCODING 1167
SWIDTH 500 0
DWIDTH 6 0
BBX 7 9 -1 -3
BITMAP
3C
36
26
24
6C
68
50
40
C0
ENDCHAR
STARTCHAR 0490
ENCODING 1168
SWIDTH 500 0
DWIDTH 6 0
BBX 7 10 0 1
BITMAP
02
3C
30
30
30
20
60
60
60
E0
ENDCHAR
STARTCHAR 0491
ENCODING 1169
SWIDTH 333 0
DWIDTH 4 0
BBX 5 7 0 1
BITMAP
08
70
60
40
40
C0
C0
ENDCHAR
STARTCHAR 0492
ENCODING 1170
SWIDTH 583 0
DWIDTH 7 0
BBX 8 9 0 0
BITMAP
3F
31
31
30
78
60
60
60
E0
ENDCHAR
STARTCHAR 0493
ENCODING 1171
SWIDTH 333 0
DWIDTH 4 0
BBX 4 6 0 0
BITMAP
30
10
20
40
80
E0
ENDCHAR
STARTCHAR 0494
ENCODING 1172
SWIDTH 750 0
DWIDTH 9 0
BBX 8 12 0 -3
BITMAP
3F
31
31
30
3E
61
61
61
E3
03
46
7C
ENDCHAR
STARTCHAR 0495
ENCODING 1173
SWIDTH 500 0
DWIDTH 6 0
BBX 6 9 0 -3
BITMAP
78
60
60
78
C8
CC
08
18
E0
ENDCHAR
STARTCHAR 0496
ENCODING 1174
SWIDTH 916 0
DWIDTH 11 0
BBX 12 12 0 -3
BITMAP
3330
3370
1280
1680
1680
1F00
3580
6D80
CCC0
0040
0040
0040
ENDCHAR
STARTCHAR 0497
ENCODING 1175
SWIDTH 916 0
DWIDTH 11 0
BBX 11 8 0 -3
BITMAP
3260
16A0
1F80
1580
ADA0
CCC0
0040
0040
ENDCHAR
STARTCHAR 0498
ENCODING 1176
SWIDTH 500 0
DWIDTH 6 0
BBX 6 12 0 -3
BITMAP
3C
0C
0C
08
30
08
08
18
F0
20
20
E0
ENDCHAR
STARTCHAR 0499
ENCODING 1177
SWIDTH 416 0
DWIDTH 5 0
BBX 4 9 0 -3
BITMAP
70
10
10
20
30
30
60
40
C0
ENDCHAR
STARTCHAR 049A
ENCODING 1178
SWIDTH 666 0
DWIDTH 8 0
BBX 9 12 0 -3
BITMAP
3980
3280
3400
3400
3800
6C00
6C00
6400
E600
0200
0200
0200
ENDCHAR
STARTCHAR 049B
ENCODING 1179
SWIDTH 500 0
DWIDTH 6 0
BBX 6 7 0 -3
BITMAP
64
68
70
50
58
C8
08
ENDCHAR
STARTCHAR 049C
ENCODING 1180
SWIDTH 666 0
DWIDTH 8 0
BBX 9 9 0 0
BITMAP
3980
3280
3400
3C00
3800
6C00
6C00
6400
E600
ENDCHAR
STARTCHAR 049D
ENCODING 1181
SWIDTH 500 0
DWIDTH 6 0
BBX 6 6 0 0
BITMAP
64
78
70
50
78
C8
ENDCHAR
STARTCHAR 049E
ENCODING 1182
SWIDTH 666 0
DWIDTH 8 0
BBX 9 9 0 0
BITMAP
3980
1280
7C00
3400
3800
6C00
6C00
6400
E600
ENDCHAR
STARTCHAR 049F
ENCODING 1183
SWIDTH 500 0
DWIDTH 6 0
BBX 6 9 0 0
BITMAP
30
30
70
24
68
70
50
58
C8
ENDCHAR
STARTCHAR 04A0
ENCODING 1184
SWIDTH 833 0
DWIDTH 10 0
BBX 8 9 2 0
BITMAP
FB
35
34
28
78
68
6C
4C
EE
ENDCHAR
STARTCHAR 04A1
ENCODING 1185
SWIDTH 583 0
DWIDTH 7 0
BBX 7 6 0 0
BITMAP
76
B8
30
28
6C
64
ENDCHAR
STARTCHAR 04A2
ENCODING 1186
SWIDTH 750 0
DWIDTH 9 0
BBX 10 12 0 -3
BITMAP
39C0
3180
3180
3100
3100
7F00
6300
6200
E600
0100
0100
0100
ENDCHAR
STARTCHAR 04A3
ENCODING 1187
SWIDTH 583 0
DWIDTH 7 0
BBX 6 7 0 -3
BITMAP
64
6C
7C
48
C8
D8
08
ENDCHAR
STARTCHAR 04A4
ENCODING 1188
SWIDTH 1000 0
DWIDTH 12 0
BBX 13 9 0 0
BITMAP
39F8
3188
3180
3100
3F00
6300
6300
6200
E600
ENDCHAR
STARTCHAR 04A5
ENCODING 1189
SWIDTH 666 0
DWIDTH 8 0
BBX 8 6 0 0
BITMAP
67
6C
7C
48
48
C8
ENDCHAR
STARTCHAR 04A6
ENCODING 1190
SWIDTH 1166 0
DWIDTH 14 0
BBX 13 12 0 -3
BITMAP
3FC0
3180
3180
3180
3370
6398
6318
6218
E718
0010
0220
0340
ENDCHAR
STARTCHAR 04A7
ENCODING 1191
SWIDTH 750 0
DWIDTH 9 0
BBX 9 9 0 -3
BITMAP
6C00
7C00
6C00
4F00
4980
D980
0100
0300
1C00
ENDCHAR
STARTCHAR 04A8
ENCODING 1192
SWIDTH 750 0
DWIDTH 9 0
BBX 8 9 1 0
BITMAP
1E
6D
CB
DB
DB
D2
D6
D4
7E
ENDCHAR
STARTCHAR 04A9
ENCODING 1193
SWIDTH 500 0
DWIDTH 6 0
BBX 6 6 0 0
BITMAP
38
74
54
D4
D8
74
ENDCHAR
STARTCHAR 04AA
ENCODING 1194
SWIDTH 666 0
DWIDTH 8 0
BBX 8 12 1 -3
BITMAP
1F
20
60
C0
C0
C0
C0
C4
78
10
10
60
ENDCHAR
STARTCHAR 04AB
ENCODING 1195
SWIDTH 416 0
DWIDTH 5 0
BBX 5 9 0 -3
BITMAP
38
48
40
C0
C0
70
40
20
C0
ENDCHAR
STARTCHAR 04AC
ENCODING 1196
SWIDTH 583 0
DWIDTH 7 0
BBX 6 11 2 -3
BITMAP
FC
34
20
60
60
60
40
C0
C0
20
20
ENDCHAR
STARTCHAR 04AD
ENCODING 1197
SWIDTH 750 0
DWIDTH 9 0
BBX 9 7 0 -3
BITMAP
6D80
7F80
6D00
4900
DB80
DB00
0200
ENDCHAR
STARTCHAR 04AE
ENCODING 1198
SWIDTH 583 0
DWIDTH 7 0
BBX 6 9 2 0
BITMAP
C4
C8
48
70
60
60
60
40
C0
ENDCHAR
STARTCHAR 04AF
ENCODING 1199
SWIDTH 500 0
DWIDTH 6 0
BBX 5 9 1 -3
BITMAP
C8
D0
D0
60
60
40
C0
C0
80
ENDCHAR
STARTCHAR 04B0
ENCODING 1200
SWIDTH 583 0
DWIDTH 7 0
BBX 7 9 1 0
BITMAP
62
64
24
38
30
FC
30
20
60
ENDCHAR
STARTCHAR 04B1
ENCODING 1201
SWIDTH 500 0
DWIDTH 6 0
BBX 5 9 1 -3
BITMAP
C8
D0
50
60
60
40
E0
C0
80
ENDCHAR
STARTCHAR 04B2
ENCODING 1202
SWIDTH 666 0
DWIDTH 8 0
BBX 9 11 0 -3
BITMAP
3180
3200
1A00
1C00
1800
1C00
2C00
4400
C600
0200
0200
ENDCHAR
STARTCHAR 04B3
ENCODING 1203
SWIDTH 500 0
DWIDTH 6 0
BBX 7 8 -1 -3
BITMAP
32
1C
18
18
2A
CC
04
04
ENDCHAR
STARTCHAR 04B4
ENCODING 1204
SWIDTH 750 0
DWIDTH 9 0
BBX 9 12 0 -3
BITMAP
7D80
B180
3180
3100
3300
6300
6300
6200
6600
1900
0100
0100
ENDCHAR
STARTCHAR 04B5
ENCODING 1205
SWIDTH 583 0
DWIDTH 7 0
BBX 6 10 0 -3
BITMAP
18
2C
00
64
6C
6C
58
E8
D8
08
ENDCHAR
STARTCHAR 04B6
ENCODING 1206
SWIDTH 750 0
DWIDTH 9 0
BBX 7 11 2 -3
BITMAP
E6
C6
C4
8C
8C
FC
08
18
18
04
08
ENDCHAR
STARTCHAR 04B7
ENCODING 1207
SWIDTH 500 0
DWIDTH 6 0
BBX 5 7 1 -3
BITMAP
D8
D0
90
F0
38
30
20
ENDCHAR
STARTCHAR 04B8
ENCODING 1208
SWIDTH 750 0
DWIDTH 9 0
BBX 7 9 2 0
BITMAP
E6
C6
C4
AC
AC
FC
08
18
18
ENDCHAR
STARTCHAR 04B9
ENCODING 1209
SWIDTH 500 0
DWIDTH 6 0
BBX 5 6 1 0
BITMAP
D8
D0
D0
F0
78
30
ENDCHAR
STARTCHAR 04BA
ENCODING 1210
SWIDTH 750 0
DWIDTH 9 0
BBX 8 9 0 0
BITMAP
38
10
30
3E
33
63
63
62
E6
ENDCHAR
STARTCHAR 04BB
ENCODING 1211
SWIDTH 583 0
DWIDTH 7 0
BBX 6 9 0 0
BITMAP
30
30
20
2C
7C
6C
48
48
C8
ENDCHAR
STARTCHAR 04BC
ENCODING 1212
SWIDTH 833 0
DWIDTH 10 0
BBX 10 9 0 0
BITMAP
0780
0C40
5840
98C0
7FC0
3000
1000
1880
0F00
ENDCHAR
STARTCHAR 04BD
ENCODING 1213
SWIDTH 583 0
DWIDTH 7 0
BBX 8 6 -1 0
BITMAP
07
6B
92
7C
10
1C
ENDCHAR
STARTCHAR 04BE
ENCODING 1214
SWIDTH 833 0
DWIDTH 10 0
BBX 10 11 0 -2
BITMAP
0780
0C40
7840
98C0
7FC0
3000
1000
1880
0F00
0400
0400
ENDCHAR
STARTCHAR 04BF
ENCODING 1215
SWIDTH 583 0
DWIDTH 7 0
BBX 7 7 0 -2
BITMAP
0E
D6
A4
F8
20
38
10
ENDCHAR
STARTCHAR 04C0
ENCODING 1216
SWIDTH 416 0
DWIDTH 5 0
BBX 5 9 0 0
BITMAP
38
30
30
30
30
60
60
60
E0
ENDCHAR
STARTCHAR 04C1
ENCODING 1217
SWIDTH 916 0
DWIDTH 11 0
BBX 12 11 0 0
BITMAP
0480
0300
3730
3270
1680
1680
1F00
3580
6D80
6C80
CCC0
ENDCHAR
STARTCHAR 04C2
ENCODING 1218
SWIDTH 916 0
DWIDTH 11 0
BBX 11 9 0 0
BITMAP
0480
0300
0000
3260
16A0
1F80
1580
A5A0
CCC0
ENDCHAR
STARTCHAR 04C3
ENCODING 1219
SWIDTH 666 0
DWIDTH 8 0
BBX 9 12 0 -3
BITMAP
3980
3280
3400
3400
3E00
6300
6300
6300
E300
0200
0400
7800
ENDCHAR
STARTCHAR 04C4
ENCODING 1220
SWIDTH 500 0
DWIDTH 6 0
BBX 6 9 0 -3
BITMAP
64
68
70
70
48
CC
08
18
E0
ENDCHAR
STARTCHAR 04C5
ENCODING 1221
SWIDTH 666 0
DWIDTH 8 0
BBX 9 11 -1 -3
BITMAP
0F80
0980
0980
1300
1300
1300
2300
A600
C600
0100
0100
ENDCHAR
STARTCHAR 04C6
ENCODING 1222
SWIDTH 500 0
DWIDTH 6 0
BBX 7 8 -1 -3
BITMAP
1E
24
24
2C
4C
CC
08
08
ENDCHAR
STARTCHAR 04C7
ENCODING 1223
SWIDTH 750 0
DWIDTH 9 0
BBX 10 12 0 -3
BITMAP
39C0
3180
3180
3100
3F00
6300
6300
6200
E600
0600
0400
F800
ENDCHAR
STARTCHAR 04C8
ENCODING 1224
SWIDTH 583 0
DWIDTH 7 0
BBX 6 9 0 -3
BITMAP
64
6C
6C
78
48
D8
10
10
A0
ENDCHAR
STARTCHAR 04C9
ENCODING 1225
SWIDTH 750 0
DWIDTH 9 0
BBX 10 12 0 -3
BITMAP
39C0
3180
3180
3100
3100
7F00
6300
6200
E600
0100
0100
0100
ENDCHAR
STARTCHAR 04CA
ENCODING 1226
SWIDTH 583 0
DWIDTH 7 0
BBX 6 7 0 -3
BITMAP
64
6C
7C
48
C8
D8
08
ENDCHAR
STARTCHAR 04CB
ENCODING 1227
SWIDTH 750 0
DWIDTH 9 0
BBX 7 12 2 -3
BITMAP
E6
C6
C4
8C
8C
FC
08
18
18
20
40
40
ENDCHAR
STARTCHAR 04CC
ENCODING 1228
SWIDTH 500 0
DWIDTH 6 0
BBX 5 8 1 -3
BITMAP
D8
D0
90
F0
38
30
40
40
ENDCHAR
STARTCHAR 04CD
ENCODING 1229
SWIDTH 916 0
DWIDTH 11 0
BBX 11 11 0 -3
BITMAP
3860
18C0
39C0
5AC0
5AC0
5D80
5980
8980
C380
0080
0080
ENDCHAR
STARTCHAR 04CE
ENCODING 1230
SWIDTH 666 0
DWIDTH 8 0
BBX 9 8 -1 -3
BITMAP
1980
2B00
2D00
2F00
4B80
C300
0200
0200
ENDCHAR
STARTCHAR 04CF
ENCODING 1231
SWIDTH 250 0
DWIDTH 3 0
BBX 4 9 0 0
BITMAP
70
20
20
60
60
40
40
E0
C0
ENDCHAR
STARTCHAR 04D0
ENCODING 1232
SWIDTH 666 0
DWIDTH 8 0
BBX 9 11 0 0
BITMAP
0480
0300
0200
0600
0600
1E00
2600
3E00
4600
8600
8E00
ENDCHAR
STARTCHAR 04D1
ENCODING 1233
SWIDTH 500 0
DWIDTH 6 0
BBX 6 9 0 0
BITMAP
24
18
00
3C
68
48
D8
DC
F8
ENDCHAR
STARTCHAR 04D2
ENCODING 1234
SWIDTH 666 0
DWIDTH 8 0
BBX 9 11 0 0
BITMAP
0580
0500
0200
0600
0600
1E00
2600
3E00
4600
8600
8E00
ENDCHAR
STARTCHAR 04D3
ENCODING 1235
SWIDTH 500 0
DWIDTH 6 0
BBX 6 9 0 0
BITMAP
34
14
00
3C
68
48
D8
DC
F8
ENDCHAR
STARTCHAR 04D4
ENCODING 1236
SWIDTH 916 0
DWIDTH 11 0
BBX 11 9 0 0
BITMAP
07E0
0720
0B00
1240
27C0
3E00
4620
8440
8FC0
ENDCHAR
STARTCHAR 04D5
ENCODING 1237
SWIDTH 750 0
DWIDTH 9 0
BBX 8 6 0 0
BITMAP
3F
6D
4B
DC
E8
CE
ENDCHAR
STARTCHAR 04D6
ENCODING 1238
SWIDTH 666 0
DWIDTH 8 0
BBX 7 11 1 0
BITMAP
12
0C
3E
22
62
60
78
C8
C0
C4
FC
ENDCHAR
STARTCHAR 04D7
ENCODING 1239
SWIDTH 416 0
DWIDTH 5 0
BBX 6 9 0 0
BITMAP
24
18
00
18
68
50
E0
C8
70
ENDCHAR
STARTCHAR 04D8
ENCODING 1240
SWIDTH 750 0
DWIDTH 9 0
BBX 8 9 1 0
BITMAP
3C
46
42
03
FF
C6
C6
CC
78
ENDCHAR
STARTCHAR 04D9
ENCODING 1241
SWIDTH 416 0
DWIDTH 5 0
BBX 5 6 0 0
BITMAP
38
18
18
78
90
E0
ENDCHAR
STARTCHAR 04DA
ENCODING 1242
SWIDTH 750 0
DWIDTH 9 0
BBX 8 12 1 0
BITMAP
14
14
00
3C
46
42
03
FF
C6
C6
CC
78
ENDCHAR
STARTCHAR 04DB
ENCODING 1243
SWIDTH 416 0
DWIDTH 5 0
BBX 5 9 0 0
BITMAP
28
28
00
38
18
18
78
90
E0
ENDCHAR
STARTCHAR 04DC
ENCODING 1244
SWIDTH 916 0
DWIDTH 11 0
BBX 12 11 0 0
BITMAP
0780
0480
3330
3270
1680
1680
1F00
3580
6D80
6C80
CCC0
ENDCHAR
STARTCHAR 04DD
ENCODING 1245
SWIDTH 916 0
DWIDTH 11 0
BBX 11 9 0 0
BITMAP
0580
0500
0000
3260
16A0
1F80
1580
A5A0
CCC0
ENDCHAR
STARTCHAR 04DE
ENCODING 1246
SWIDTH 500 0
DWIDTH 6 0
BBX 5 12 1 0
BITMAP
28
68
00
78
18
18
10
60
10
10
30
E0
ENDCHAR
STARTCHAR 04DF
ENCODING 1247
SWIDTH 416 0
DWIDTH 5 0
BBX 5 9 0 0
BITMAP
78
48
00
70
10
20
30
30
E0
ENDCHAR
STARTCHAR 04E0
ENCODING 1248
SWIDTH 500 0
DWIDTH 6 0
BBX 6 9 1 0
BITMAP
7C
98
30
60
30
10
10
30
E0
ENDCHAR
STARTCHAR 04E1
ENCODING 1249
SWIDTH 500 0
DWIDTH 6 0
BBX 6 9 0 -3
BITMAP
7C
18
30
60
10
10
10
30
E0
ENDCHAR
STARTCHAR 04E2
ENCODING 1250
SWIDTH 750 0
DWIDTH 9 0
BBX 9 11 0 0
BITMAP
0F00
0000
3B80
3180
3380
3500
2B00
7300
7300
6200
E600
ENDCHAR
STARTCHAR 04E3
ENCODING 1251
SWIDTH 583 0
DWIDTH 7 0
BBX 6 8 0 0
BITMAP
3C
00
64
6C
6C
58
E8
D8
ENDCHAR
STARTCHAR 04E4
ENCODING 1252
SWIDTH 750 0
DWIDTH 9 0
BBX 9 11 0 0
BITMAP
0D00
0500
3B80
3180
3380
3500
2B00
7300
7300
6200
E600
ENDCHAR
STARTCHAR 04E5
ENCODING 1253
SWIDTH 583 0
DWIDTH 7 0
BBX 6 9 0 0
BITMAP
34
14
00
64
6C
6C
58
E8
D8
ENDCHAR
STARTCHAR 04E6
ENCODING 1254
SWIDTH 750 0
DWIDTH 9 0
BBX 8 12 1 0
BITMAP
02
1A
00
1C
22
63
C3
C6
C6
C4
CC
70
ENDCHAR
STARTCHAR 04E7
ENCODING 1255
SWIDTH 500 0
DWIDTH 6 0
BBX 6 9 0 0
BITMAP
3C
24
00
38
6C
4C
C8
D8
50
ENDCHAR
STARTCHAR 04E8
ENCODING 1256
SWIDTH 750 0
DWIDTH 9 0
BBX 8 9 1 0
BITMAP
1C
22
63
C3
FE
C6
C4
CC
70
ENDCHAR
STARTCHAR 04E9
ENCODING 1257
SWIDTH 500 0
DWIDTH 6 0
BBX 6 6 0 0
BITMAP
38
6C
7C
C8
D8
50
ENDCHAR
STARTCHAR 04EA
ENCODING 1258
SWIDTH 750 0
DWIDTH 9 0
BBX 8 12 1 0
BITMAP
02
1A
00
1C
22
63
C3
FE
C6
C4
CC
70
ENDCHAR
STARTCHAR 04EB
ENCODING 1259
SWIDTH 500 0
DWIDTH 6 0
BBX 6 9 0 0
BITMAP
3C
24
00
38
6C
7C
C8
D8
50
ENDCHAR
STARTCHAR 04EC
ENCODING 1260
SWIDTH 666 0
DWIDTH 8 0
BBX 8 12 0 0
BITMAP
14
16
00
3C
46
42
03
1F
06
06
8C
78
ENDCHAR
STARTCHAR 04ED
ENCODING 1261
SWIDTH 416 0
DWIDTH 5 0
BBX 5 9 0 0
BITMAP
78
48
00
70
10
70
30
30
E0
ENDCHAR
STARTCHAR 04EE
ENCODING 1262
SWIDTH 666 0
DWIDTH 8 0
BBX 8 11 1 0
BITMAP
1E
00
63
22
34
34
38
18
10
D0
60
ENDCHAR
STARTCHAR 04EF
ENCODING 1263
SWIDTH 416 0
DWIDTH 5 0
BBX 7 11 -1 -3
BITMAP
1E
00
24
34
34
38
38
30
20
A0
C0
ENDCHAR
STARTCHAR 04F0
ENCODING 1264
SWIDTH 666 0
DWIDTH 8 0
BBX 8 12 1 0
BITMAP
12
1E
00
63
22
34
34
38
18
10
D0
60
ENDCHAR
STARTCHAR 04F1
ENCODING 1265
SWIDTH 416 0
DWIDTH 5 0
BBX 7 12 -1 -3
BITMAP
16
14
00
24
34
34
38
38
30
20
A0
C0
ENDCHAR
STARTCHAR 04F2
ENCODING 1266
SWIDTH 666 0
DWIDTH 8 0
BBX 8 12 1 0
BITMAP
0A
00
00
63
22
34
34
38
18
10
D0
60
ENDCHAR
STARTCHAR 04F3
ENCODING 1267
SWIDTH 416 0
DWIDTH 5 0
BBX 7 12 -1 -3
BITMAP
0A
04
00
24
34
34
38
38
30
20
A0
C0
ENDCHAR
STARTCHAR 04F4
ENCODING 1268
SWIDTH 750 0
DWIDTH 9 0
BBX 7 11 2 0
BITMAP
2C
28
E6
C6
C4
8C
8C
FC
08
18
18
ENDCHAR
STARTCHAR 04F5
ENCODING 1269
SWIDTH 500 0
DWIDTH 6 0
BBX 5 9 1 0
BITMAP
58
50
00
D8
D0
90
F0
38
30
ENDCHAR
STARTCHAR 04F6
ENCODING 1270
SWIDTH 583 0
DWIDTH 7 0
BBX 8 11 0 -3
BITMAP
3F
31
30
30
30
60
60
60
E0
20
20
ENDCHAR
STARTCHAR 04F7
ENCODING 1271
SWIDTH 333 0
DWIDTH 4 0
BBX 4 8 0 -3
BITMAP
30
10
20
40
80
E0
40
40
ENDCHAR
STARTCHAR 04F8
ENCODING 1272
SWIDTH 1000 0
DWIDTH 12 0
BBX 12 11 0 0
BITMAP
0280
0280
3870
3060
3060
3060
3840
66C0
66C0
66C0
FDC0
ENDCHAR
STARTCHAR 04F9
ENCODING 1273
SWIDTH 666 0
DWIDTH 8 0
BBX 7 9 1 0
BITMAP
2C
28
00
C6
C6
E4
BC
BE
EC
ENDCHAR
STARTCHAR 04FA
ENCODING 1274
SWIDTH 583 0
DWIDTH 7 0
BBX 8 12 0 -3
BITMAP
3F
31
31
30
78
60
60
60
E0
20
60
40
ENDCHAR
STARTCHAR 04FB
ENCODING 1275
SWIDTH 333 0
DWIDTH 4 0
BBX 4 9 0 -3
BITMAP
30
10
20
40
80
F0
20
60
60
ENDCHAR
STARTCHAR 04FC
ENCODING 1276
SWIDTH 666 0
DWIDTH 8 0
BBX 9 12 0 -3
BITMAP
3180
3200
1A00
1C00
1800
1C00
2C00
4400
C600
0600
0A00
0E00
ENDCHAR
STARTCHAR 04FD
ENCODING 1277
SWIDTH 500 0
DWIDTH 6 0
BBX 7 9 -1 -3
BITMAP
32
1C
18
18
28
C8
0C
0C
18
ENDCHAR
STARTCHAR 04FE
ENCODING 1278
SWIDTH 666 0
DWIDTH 8 0
BBX 9 9 0 0
BITMAP
3180
3100
1A00
1C00
7F00
1C00
2C00
4400
C600
ENDCHAR
STARTCHAR 04FF
ENCODING 1279
SWIDTH 500 0
DWIDTH 6 0
BBX 7 6 -1 0
BITMAP
36
18
3C
18
2A
CC
ENDCHAR
STARTCHAR 0500
ENCODING 1280
SWIDTH 583 0
DWIDTH 7 0
BBX 7 9 0 0
BITMAP
06
06
06
04
3C
6C
CC
C8
78
ENDCHAR
STARTCHAR 0501
ENCODING 1281
SWIDTH 500 0
DWIDTH 6 0
BBX 6 9 0 0
BITMAP
0C
04
0C
3C
68
48
D8
DC
F8
ENDCHAR
STARTCHAR 0502
ENCODING 1282
SWIDTH 833 0
DWIDTH 10 0
BBX 9 9 0 0
BITMAP
0600
0600
0600
0400
3C80
6C80
CD80
C900
7E00
ENDCHAR
STARTCHAR 0503
ENCODING 1283
SWIDTH 750 0
DWIDTH 9 0
BBX 8 9 0 0
BITMAP
0C
04
0C
3C
68
48
DB
DB
FE
ENDCHAR
STARTCHAR 0504
ENCODING 1284
SWIDTH 750 0
DWIDTH 9 0
BBX 7 9 2 0
BITMAP
F0
30
30
20
C2
26
26
64
28
ENDCHAR
STARTCHAR 0505
ENCODING 1285
SWIDTH 666 0
DWIDTH 8 0
BBX 6 6 1 0
BITMAP
E0
20
44
64
6C
28
ENDCHAR
STARTCHAR 0506
ENCODING 1286
SWIDTH 583 0
DWIDTH 7 0
BBX 4 11 2 -3
BITMAP
F0
30
30
20
C0
20
20
60
60
30
10
ENDCHAR
STARTCHAR 0507
ENCODING 1287
SWIDTH 416 0
DWIDTH 5 0
BBX 4 7 1 -3
BITMAP
E0
20
40
60
70
60
40
ENDCHAR
STARTCHAR 0508
ENCODING 1288
SWIDTH 916 0
DWIDTH 11 0
BBX 11 9 -1 0
BITMAP
0F80
0980
0980
1300
1320
1360
2360
A240
C280
ENDCHAR
STARTCHAR 0509
ENCODING 1289
SWIDTH 750 0
DWIDTH 9 0
BBX 9 6 -1 0
BITMAP
1E00
2400
2400
2D80
4D80
CF00
ENDCHAR
STARTCHAR 050A
ENCODING 1290
SWIDTH 1000 0
DWIDTH 12 0
BBX 11 9 0 0
BITMAP
39C0
3180
3180
3100
3F20
6320
6360
6240
E280
ENDCHAR
STARTCHAR 050B
ENCODING 1291
SWIDTH 750 0
DWIDTH 9 0
BBX 9 6 0 0
BITMAP
6400
6C00
7D80
4900
4900
CA00
ENDCHAR
STARTCHAR 050C
ENCODING 1292
SWIDTH 750 0
DWIDTH 9 0
BBX 8 9 1 0
BITMAP
1F
21
60
C0
CF
C6
C4
CC
78
ENDCHAR
STARTCHAR 050D
ENCODING 1293
SWIDTH 500 0
DWIDTH 6 0
BBX 6 6 0 0
BITMAP
3C
40
C0
DC
C8
58
ENDCHAR
STARTCHAR 050E
ENCODING 1294
SWIDTH 750 0
DWIDTH 9 0
BBX 6 9 2 0
BITMAP
FC
34
20
60
64
6C
4C
C8
50
ENDCHAR
STARTCHAR 050F
ENCODING 1295
SWIDTH 916 0
DWIDTH 11 0
BBX 11 6 0 0
BITMAP
6D80
7F80
6D00
4B20
DB60
D9C0
ENDCHAR
STARTCHAR 0510
ENCODING 1296
SWIDTH 500 0
DWIDTH 6 0
BBX 7 9 0 0
BITMAP
1E
32
20
30
18
60
C0
C0
F0
ENDCHAR
STARTCHAR 0511
ENCODING 1297
SWIDTH 416 0
DWIDTH 5 0
BBX 5 6 0 0
BITMAP
38
48
20
C0
C0
E0
ENDCHAR
STARTCHAR 0512
ENCODING 1298
SWIDTH 666 0
DWIDTH 8 0
BBX 9 12 -1 -3
BITMAP
0F80
0980
0980
1100
1300
1300
2300
A200
C600
0600
0400
1800
ENDCHAR
STARTCHAR 0513
ENCODING 1299
SWIDTH 500 0
DWIDTH 6 0
BBX 7 9 -1 -3
BITMAP
1E
24
24
2C
4C
C8
08
18
50
ENDCHAR
STARTCHAR 0514
ENCODING 1300
SWIDTH 1000 0
DWIDTH 12 0
BBX 13 9 -1 0
BITMAP
0F88
0990
08A0
10C0
10C0
1160
2160
A260
C430
ENDCHAR
STARTCHAR 0515
ENCODING 1301
SWIDTH 750 0
DWIDTH 9 0
BBX 10 6 -1 0
BITMAP
3EC0
2700
2200
2300
4700
D980
ENDCHAR
STARTCHAR 0516
ENCODING 1302
SWIDTH 833 0
DWIDTH 10 0
BBX 9 9 1 0
BITMAP
3C80
2700
6600
6C00
7C00
4600
C600
C200
C300
ENDCHAR
STARTCHAR 0517
ENCODING 1303
SWIDTH 666 0
DWIDTH 8 0
BBX 9 9 -1 -3
BITMAP
3C80
3700
2600
2600
6F00
6B00
5000
4000
C000
ENDCHAR
STARTCHAR 0518
ENCODING 1304
SWIDTH 1000 0
DWIDTH 12 0
BBX 12 9 0 0
BITMAP
1FF0
3320
3300
3200
1FC0
3600
6600
6400
CFC0
ENDCHAR
STARTCHAR 0519
ENCODING 1305
SWIDTH 666 0
DWIDTH 8 0
BBX 8 6 0 0
BITMAP
7F
69
3A
7C
59
CE
ENDCHAR
STARTCHAR 051A
ENCODING 1306
SWIDTH 750 0
DWIDTH 9 0
BBX 8 12 1 -3
BITMAP
1C
22
63
C3
C6
C6
C6
CC
D8
20
60
FC
ENDCHAR
STARTCHAR 051B
ENCODING 1307
SWIDTH 500 0
DWIDTH 6 0
BBX 6 9 0 -3
BITMAP
3C
68
48
D8
D8
F0
10
30
30
ENDCHAR
STARTCHAR 051C
ENCODING 1308
SWIDTH 916 0
DWIDTH 11 0
BBX 9 9 2 0
BITMAP
CC80
CC80
CD00
DE00
EA00
CC00
C800
8800
1000
ENDCHAR
STARTCHAR 051D
ENCODING 1309
SWIDTH 666 0
DWIDTH 8 0
BBX 7 6 1 0
BITMAP
82
D2
F2
DC
98
90
ENDCHAR
STARTCHAR 051E
ENCODING 1310
SWIDTH 666 0
DWIDTH 8 0
BBX 8 9 0 0
BITMAP
3B
36
34
38
38
6C
6C
64
EE
ENDCHAR
STARTCHAR 051F
ENCODING 1311
SWIDTH 500 0
DWIDTH 6 0
BBX 7 6 0 0
BITMAP
6E
68
70
70
5C
D8
ENDCHAR
STARTCHAR 0520
ENCODING 1312
SWIDTH 1000 0
DWIDTH 12 0
BBX 12 12 -1 -3
BITMAP
0F80
0980
0980
1300
1370
1390
2310
A630
C630
0120
0360
01C0
ENDCHAR
STARTCHAR 0521
ENCODING 1313
SWIDTH 666 0
DWIDTH 8 0
BBX 9 9 -1 -3
BITMAP
1E00
2400
2400
2F00
4C80
CC80
0180
0100
0A00
ENDCHAR
STARTCHAR 0522
ENCODING 1314
SWIDTH 1083 0
DWIDTH 13 0
BBX 13 12 0 -3
BITMAP
39C0
3180
3180
3180
3F70
6398
6310
6230
E630
0020
0360
01C0
ENDCHAR
STARTCHAR 0523
ENCODING 1315
SWIDTH 750 0
DWIDTH 9 0
BBX 9 9 0 -3
BITMAP
6400
6C00
6C00
7F00
4900
C980
0100
0300
1C00
ENDCHAR
STARTCHAR 0524
ENCODING 1316
SWIDTH 750 0
DWIDTH 9 0
BBX 10 12 0 -3
BITMAP
3FC0
3180
3180
3100
3300
6300
6300
6200
E600
0100
0100
0100
ENDCHAR
STARTCHAR 0525
ENCODING 1317
SWIDTH 583 0
DWIDTH 7 0
BBX 6 7 0 -3
BITMAP
6C
7C
6C
48
48
DC
08
ENDCHAR
STARTCHAR 0526
ENCODING 1318
SWIDTH 750 0
DWIDTH 9 0
BBX 8 12 0 -3
BITMAP
38
10
30
30
3E
63
63
62
E6
01
01
01
ENDCHAR
STARTCHAR 0527
ENCODING 1319
SWIDTH 583 0
DWIDTH 7 0
BBX 6 10 0 -3
BITMAP
30
30
20
2C
7C
6C
48
4C
D8
08
ENDCHAR
STARTCHAR 0528
ENCODING 1320
SWIDTH 750 0
DWIDTH 9 0
BBX 12 12 -2 -3
BITMAP
0E70
0C60
0C60
0C40
0FC0
18C0
18C0
1880
1180
3000
3000
A000
ENDCHAR
STARTCHAR 0529
ENCODING 1321
SWIDTH 583 0
DWIDTH 7 0
BBX 8 9 -2 -3
BITMAP
19
1B
1B
1E
12
32
30
20
C0
ENDCHAR
STARTCHAR 052A
ENCODING 1322
SWIDTH 1333 0
DWIDTH 16 0
BBX 17 11 -1 -3
BITMAP
0FDD80
099900
099A00
131C00
131C00
13FC00
233600
263600
4E6700
B10000
810000
ENDCHAR
STARTCHAR 052B
ENCODING 1323
SWIDTH 1083 0
DWIDTH 13 0
BBX 13 9 0 0
BITMAP
1000
0800
0800
3D38
6D78
4FC0
CB40
D240
6260
ENDCHAR
STARTCHAR 052C
ENCODING 1324
SWIDTH 750 0
DWIDTH 9 0
BBX 10 12 -1 -3
BITMAP
19C0
1AC0
1A80
1580
1B80
0D80
1300
2300
2700
5880
8100
8000
ENDCHAR
STARTCHAR 052D
ENCODING 1325
SWIDTH 500 0
DWIDTH 6 0
BBX 7 7 -1 -2
BITMAP
36
3E
34
2C
4C
8C
F4
ENDCHAR
STARTCHAR 052E
ENCODING 1326
SWIDTH 666 0
DWIDTH 8 0
BBX 10 11 -1 -3
BITMAP
0FC0
0980
0980
1300
1300
1300
2300
A600
C600
0100
0100
ENDCHAR
STARTCHAR 052F
ENCODING 1327
SWIDTH 500 0
DWIDTH 6 0
BBX 7 8 -1 -3
BITMAP
1E
24
24
2C
4C
CC
04
04
ENDCHAR
STARTCHAR 0531
ENCODING 1329
SWIDTH 750 0
DWIDTH 9 0
BBX 9 9 1 -1
BITMAP
7F80
2300
6300
6600
4200
C200
DC00
7E00
0400
ENDCHAR
STARTCHAR 0532
ENCODING 1330
SWIDTH 666 0
DWIDTH 8 0
BBX 9 8 0 0
BITMAP
0F00
1180
3100
3380
3000
7F00
6000
F000
ENDCHAR
STARTCHAR 0533
ENCODING 1331
SWIDTH 750 0
DWIDTH 9 0
BBX 8 8 1 0
BITMAP
3C
66
C6
C4
CC
3F
08
3C
ENDCHAR
STARTCHAR 0534
ENCODING 1332
SWIDTH 750 0
DWIDTH 9 0
BBX 9 8 0 0
BITMAP
1E00
2200
6300
E600
0600
0780
0400
1E00
ENDCHAR
STARTCHAR 0535
ENCODING 1333
SWIDTH 666 0
DWIDTH 8 0
BBX 7 8 1 0
BITMAP
70
60
60
7E
CE
CC
CC
78
ENDCHAR
STARTCHAR 0536
ENCODING 1334
SWIDTH 750 0
DWIDTH 9 0
BBX 8 9 1 -1
BITMAP
1E
23
63
63
06
06
C8
FC
0C
ENDCHAR
STARTCHAR 0537
ENCODING 1335
SWIDTH 666 0
DWIDTH 8 0
BBX 8 9 0 -1
BITMAP
3C
30
30
3F
20
60
60
FC
0C
ENDCHAR
STARTCHAR 0538
ENCODING 1336
SWIDTH 666 0
DWIDTH 8 0
BBX 9 9 0 -1
BITMAP
0F00
1180
3180
3380
2000
6000
6000
FE00
0600
ENDCHAR
STARTCHAR 0539
ENCODING 1337
SWIDTH 916 0
DWIDTH 11 0
BBX 11 8 1 0
BITMAP
1F00
3180
6180
6180
4FE0
DB00
DB00
DE00
ENDCHAR
STARTCHAR 053A
ENCODING 1338
SWIDTH 750 0
DWIDTH 9 0
BBX 10 8 0 0
BITMAP
0780
0300
1F80
66C0
C600
C600
CC00
7800
ENDCHAR
STARTCHAR 053B
ENCODING 1339
SWIDTH 666 0
DWIDTH 8 0
BBX 8 8 0 0
BITMAP
3C
30
3E
33
23
67
60
E0
ENDCHAR
STARTCHAR 053C
ENCODING 1340
SWIDTH 583 0
DWIDTH 7 0
BBX 6 9 0 -1
BITMAP
3C
30
30
30
20
60
60
FC
0C
ENDCHAR
STARTCHAR 053D
ENCODING 1341
SWIDTH 1000 0
DWIDTH 12 0
BBX 13 8 -1 0
BITMAP
1C00
1800
1FB8
1330
3330
3230
2660
F3C0
ENDCHAR
STARTCHAR 053E
ENCODING 1342
SWIDTH 750 0
DWIDTH 9 0
BBX 9 8 1 0
BITMAP
6F80
3400
6200
6600
C600
C600
CC00
7800
ENDCHAR
STARTCHAR 053F
ENCODING 1343
SWIDTH 666 0
DWIDTH 8 0
BBX 8 8 1 0
BITMAP
F0
60
6F
46
CC
7C
0C
1C
ENDCHAR
STARTCHAR 0540
ENCODING 1344
SWIDTH 583 0
DWIDTH 7 0
BBX 7 8 0 -1
BITMAP
02
06
04
18
60
F0
3C
0C
ENDCHAR
STARTCHAR 0541
ENCODING 1345
SWIDTH 666 0
DWIDTH 8 0
BBX 8 8 0 -1
BITMAP
1E
23
63
73
02
74
9C
6C
ENDCHAR
STARTCHAR 0542
ENCODING 1346
SWIDTH 750 0
DWIDTH 9 0
BBX 9 9 0 -1
BITMAP
1E00
2200
6200
E600
0600
0600
0400
0F00
0180
ENDCHAR
STARTCHAR 0543
ENCODING 1347
SWIDTH 750 0
DWIDTH 9 0
BBX 8 8 0 1
BITMAP
13
0C
14
26
66
46
C6
FE
ENDCHAR
STARTCHAR 0544
ENCODING 1348
SWIDTH 833 0
DWIDTH 10 0
BBX 10 8 1 0
BITMAP
77C0
63C0
6600
4600
C600
CC00
CC00
7800
ENDCHAR
STARTCHAR 0545
ENCODING 1349
SWIDTH 666 0
DWIDTH 8 0
BBX 8 8 1 0
BITMAP
1E
33
02
7C
02
E6
C6
78
ENDCHAR
STARTCHAR 0546
ENCODING 1350
SWIDTH 750 0
DWIDTH 9 0
BBX 8 8 1 1
BITMAP
F0
F0
30
20
67
66
66
3C
ENDCHAR
STARTCHAR 0547
ENCODING 1351
SWIDTH 666 0
DWIDTH 8 0
BBX 7 8 1 0
BITMAP
3C
1E
72
60
CE
C6
C4
78
ENDCHAR
STARTCHAR 0548
ENCODING 1352
SWIDTH 666 0
DWIDTH 8 0
BBX 8 8 0 0
BITMAP
0F
11
31
33
63
62
66
EF
ENDCHAR
STARTCHAR 0549
ENCODING 1353
SWIDTH 666 0
DWIDTH 8 0
BBX 7 9 1 -2
BITMAP
3C
46
C6
E6
04
08
F0
70
10
ENDCHAR
STARTCHAR 054A
ENCODING 1354
SWIDTH 833 0
DWIDTH 10 0
BBX 10 8 0 1
BITMAP
1F80
26C0
6C80
ED80
0D80
0180
0100
0780
ENDCHAR
STARTCHAR 054B
ENCODING 1355
SWIDTH 750 0
DWIDTH 9 0
BBX 8 9 1 -1
BITMAP
1E
63
63
63
36
14
D8
FC
0C
ENDCHAR
STARTCHAR 054C
ENCODING 1356
SWIDTH 833 0
DWIDTH 10 0
BBX 10 8 0 0
BITMAP
0F00
1100
3180
3300
3300
63C0
6200
FF00
ENDCHAR
STARTCHAR 054D
ENCODING 1357
SWIDTH 666 0
DWIDTH 8 0
BBX 9 8 1 0
BITMAP
7780
6200
6600
4600
C600
CC00
CC00
7800
ENDCHAR
STARTCHAR 054E
ENCODING 1358
SWIDTH 750 0
DWIDTH 9 0
BBX 8 9 1 -1
BITMAP
07
06
E6
C6
CC
7C
0C
1E
03
ENDCHAR
STARTCHAR 054F
ENCODING 1359
SWIDTH 666 0
DWIDTH 8 0
BBX 8 8 0 0
BITMAP
1E
23
37
3C
0E
E6
C2
7C
ENDCHAR
STARTCHAR 0550
ENCODING 1360
SWIDTH 666 0
DWIDTH 8 0
BBX 9 8 0 0
BITMAP
0F00
1180
3100
3380
3000
6000
6000
F000
ENDCHAR
STARTCHAR 0551
ENCODING 1361
SWIDTH 666 0
DWIDTH 8 0
BBX 8 8 0 0
BITMAP
1E
33
33
7C
06
E6
C4
78
ENDCHAR
STARTCHAR 0552
ENCODING 1362
SWIDTH 583 0
DWIDTH 7 0
BBX 7 8 0 0
BITMAP
3C
30
30
3E
20
60
60
E0
ENDCHAR
STARTCHAR 0553
ENCODING 1363
SWIDTH 916 0
DWIDTH 11 0
BBX 10 8 1 0
BITMAP
0F00
3F80
6CC0
CCC0
CCC0
D980
7F00
3C00
ENDCHAR
STARTCHAR 0554
ENCODING 1364
SWIDTH 833 0
DWIDTH 10 0
BBX 10 8 0 0
BITMAP
0780
0CC0
18C0
1980
1F00
B000
FF00
7800
ENDCHAR
STARTCHAR 0555
ENCODING 1365
SWIDTH 750 0
DWIDTH 9 0
BBX 8 8 1 0
BITMAP
1E
63
63
C3
C3
C6
C6
78
ENDCHAR
STARTCHAR 0556
ENCODING 1366
SWIDTH 916 0
DWIDTH 11 0
BBX 10 8 1 0
BITMAP
1F00
3600
3F00
04C0
ECC0
CCC0
CD80
7E00
ENDCHAR
STARTCHAR 0559
ENCODING 1369
SWIDTH 166 0
DWIDTH 2 0
BBX 2 3 1 5
BITMAP
C0
C0
80
ENDCHAR
STARTCHAR 055A
ENCODING 1370
SWIDTH 250 0
DWIDTH 3 0
BBX 2 3 2 5
BITMAP
C0
C0
80
ENDCHAR
STARTCHAR 055B
ENCODING 1371
SWIDTH 166 0
DWIDTH 2 0
BBX 1 2 1 7
BITMAP
80
80
ENDCHAR
STARTCHAR 055C
ENCODING 1372
SWIDTH 166 0
DWIDTH 2 0
BBX 3 3 1 7
BITMAP
20
40
80
ENDCHAR
STARTCHAR 055D
ENCODING 1373
SWIDTH 166 0
DWIDTH 2 0
BBX 2 2 1 7
BITMAP
80
40
ENDCHAR
STARTCHAR 055E
ENCODING 1374
SWIDTH 333 0
DWIDTH 4 0
BBX 4 3 0 6
BITMAP
30
90
20
ENDCHAR
STARTCHAR 055F
ENCODING 1375
SWIDTH 583 0
DWIDTH 7 0
BBX 6 1 3 10
BITMAP
FC
ENDCHAR
STARTCHAR 0561
ENCODING 1377
SWIDTH 750 0
DWIDTH 9 0
BBX 8 5 0 0
BITMAP
ED
49
5B
FF
DB
ENDCHAR
STARTCHAR 0562
ENCODING 1378
SWIDTH 500 0
DWIDTH 6 0
BBX 7 9 -1 -3
BITMAP
30
76
3E
26
64
7C
40
40
E0
ENDCHAR
STARTCHAR 0563
ENCODING 1379
SWIDTH 500 0
DWIDTH 6 0
BBX 5 9 0 -3
BITMAP
30
68
48
D8
D0
F8
30
30
70
ENDCHAR
STARTCHAR 0564
ENCODING 1380
SWIDTH 583 0
DWIDTH 7 0
BBX 6 9 0 -3
BITMAP
6C
74
6C
6C
48
DC
18
10
38
ENDCHAR
STARTCHAR 0565
ENCODING 1381
SWIDTH 500 0
DWIDTH 6 0
BBX 7 9 0 0
BITMAP
10
30
20
3E
60
6C
48
F8
C8
ENDCHAR
STARTCHAR 0566
ENCODING 1382
SWIDTH 500 0
DWIDTH 6 0
BBX 5 9 0 -3
BITMAP
30
68
48
D8
D8
F0
30
30
38
ENDCHAR
STARTCHAR 0567
ENCODING 1383
SWIDTH 500 0
DWIDTH 6 0
BBX 6 10 0 -1
BITMAP
10
30
20
3C
60
60
40
40
F0
30
ENDCHAR
STARTCHAR 0568
ENCODING 1384
SWIDTH 583 0
DWIDTH 7 0
BBX 6 9 0 -3
BITMAP
6C
74
6C
6C
48
C8
C0
80
F8
ENDCHAR
STARTCHAR 0569
ENCODING 1385
SWIDTH 666 0
DWIDTH 8 0
BBX 9 9 -1 -3
BITMAP
3300
3D80
3180
3780
2D80
6900
6600
4000
E000
ENDCHAR
STARTCHAR 056A
ENCODING 1386
SWIDTH 500 0
DWIDTH 6 0
BBX 7 8 0 1
BITMAP
04
0C
3E
48
C8
D8
90
60
ENDCHAR
STARTCHAR 056B
ENCODING 1387
SWIDTH 583 0
DWIDTH 7 0
BBX 7 11 -1 -2
BITMAP
18
10
12
36
3E
24
24
64
40
40
E0
ENDCHAR
STARTCHAR 056C
ENCODING 1388
SWIDTH 250 0
DWIDTH 3 0
BBX 4 9 -1 -3
BITMAP
30
70
30
20
20
60
40
40
E0
ENDCHAR
STARTCHAR 056D
ENCODING 1389
SWIDTH 833 0
DWIDTH 10 0
BBX 10 11 -1 -2
BITMAP
1800
1000
1000
36C0
3C80
2580
6D80
6F80
4000
4000
E000
ENDCHAR
STARTCHAR 056E
ENCODING 1390
SWIDTH 500 0
DWIDTH 6 0
BBX 6 8 0 1
BITMAP
30
18
1C
68
48
C8
D8
70
ENDCHAR
STARTCHAR 056F
ENCODING 1391
SWIDTH 500 0
DWIDTH 6 0
BBX 6 11 0 -2
BITMAP
30
20
20
6C
4C
58
E8
D8
10
10
38
ENDCHAR
STARTCHAR 0570
ENCODING 1392
SWIDTH 583 0
DWIDTH 7 0
BBX 6 8 0 0
BITMAP
30
20
20
6C
7C
48
48
D8
ENDCHAR
STARTCHAR 0571
ENCODING 1393
SWIDTH 500 0
DWIDTH 6 0
BBX 6 8 0 1
BITMAP
30
18
10
28
48
D8
FC
D8
ENDCHAR
STARTCHAR 0572
ENCODING 1394
SWIDTH 583 0
DWIDTH 7 0
BBX 6 9 0 -3
BITMAP
6C
FC
6C
48
C8
D8
18
10
18
ENDCHAR
STARTCHAR 0573
ENCODING 1395
SWIDTH 500 0
DWIDTH 6 0
BBX 6 8 0 0
BITMAP
0C
14
20
78
48
D8
D8
F8
ENDCHAR
STARTCHAR 0574
ENCODING 1396
SWIDTH 583 0
DWIDTH 7 0
BBX 7 8 0 0
BITMAP
0E
0A
04
64
6C
48
58
F8
ENDCHAR
STARTCHAR 0575
ENCODING 1397
SWIDTH 250 0
DWIDTH 3 0
BBX 5 9 -2 -3
BITMAP
18
38
18
10
10
30
30
A0
C0
ENDCHAR
STARTCHAR 0576
ENCODING 1398
SWIDTH 583 0
DWIDTH 7 0
BBX 6 8 0 0
BITMAP
38
60
30
6C
48
58
FC
D8
ENDCHAR
STARTCHAR 0577
ENCODING 1399
SWIDTH 416 0
DWIDTH 5 0
BBX 5 8 -1 -2
BITMAP
78
08
08
10
20
40
C0
F0
ENDCHAR
STARTCHAR 0578
ENCODING 1400
SWIDTH 583 0
DWIDTH 7 0
BBX 6 6 0 0
BITMAP
6C
FC
6C
48
C8
C8
ENDCHAR
STARTCHAR 0579
ENCODING 1401
SWIDTH 250 0
DWIDTH 3 0
BBX 4 8 -1 -2
BITMAP
40
40
60
30
20
40
80
E0
ENDCHAR
STARTCHAR 057A
ENCODING 1402
SWIDTH 750 0
DWIDTH 9 0
BBX 9 9 0 -3
BITMAP
2000
6D80
6D00
5B00
5B00
FF00
0200
0600
0F00
ENDCHAR
STARTCHAR 057B
ENCODING 1403
SWIDTH 416 0
DWIDTH 5 0
BBX 6 8 -1 -2
BITMAP
3C
24
28
28
30
40
40
F8
ENDCHAR
STARTCHAR 057C
ENCODING 1404
SWIDTH 583 0
DWIDTH 7 0
BBX 6 6 0 0
BITMAP
6C
F4
64
4C
48
DC
ENDCHAR
STARTCHAR 057D
ENCODING 1405
SWIDTH 583 0
DWIDTH 7 0
BBX 6 6 0 0
BITMAP
20
6C
6C
48
F8
C8
ENDCHAR
STARTCHAR 057E
ENCODING 1406
SWIDTH 583 0
DWIDTH 7 0
BBX 7 11 0 -2
BITMAP
06
06
04
64
6C
48
78
D8
18
10
18
ENDCHAR
STARTCHAR 057F
ENCODING 1407
SWIDTH 750 0
DWIDTH 9 0
BBX 8 5 1 0
BITMAP
4B
DF
DA
B2
D6
ENDCHAR
STARTCHAR 0580
ENCODING 1408
SWIDTH 583 0
DWIDTH 7 0
BBX 7 9 -1 -3
BITMAP
36
3A
36
36
24
64
60
40
E0
ENDCHAR
STARTCHAR 0581
ENCODING 1409
SWIDTH 500 0
DWIDTH 6 0
BBX 6 9 0 -3
BITMAP
10
2C
6C
48
D8
78
10
B0
C0
ENDCHAR
STARTCHAR 0582
ENCODING 1410
SWIDTH 416 0
DWIDTH 5 0
BBX 4 6 0 0
BITMAP
60
E0
60
40
40
F0
ENDCHAR
STARTCHAR 0583
ENCODING 1411
SWIDTH 750 0
DWIDTH 9 0
BBX 8 11 1 -2
BITMAP
0C
0C
49
4B
DF
DA
F2
F6
30
20
70
ENDCHAR
STARTCHAR 0584
ENCODING 1412
SWIDTH 500 0
DWIDTH 6 0
BBX 7 8 -1 -2
BITMAP
3E
36
36
24
38
60
FC
E0
ENDCHAR
STARTCHAR 0585
ENCODING 1413
SWIDTH 500 0
DWIDTH 6 0
BBX 6 6 0 0
BITMAP
10
6C
4C
CC
D8
70
ENDCHAR
STARTCHAR 0586
ENCODING 1414
SWIDTH 666 0
DWIDTH 8 0
BBX 8 11 0 -3
BITMAP
3C
2C
3C
0B
1B
DB
D2
DC
30
30
70
ENDCHAR
STARTCHAR 0587
ENCODING 1415
SWIDTH 583 0
DWIDTH 7 0
BBX 7 8 0 0
BITMAP
30
20
20
6C
6C
58
D8
FE
ENDCHAR
STARTCHAR 0589
ENCODING 1417
SWIDTH 250 0
DWIDTH 3 0
BBX 3 5 0 0
BITMAP
60
60
00
C0
C0
ENDCHAR
STARTCHAR 058A
ENCODING 1418
SWIDTH 333 0
DWIDTH 4 0
BBX 4 2 1 2
BITMAP
C0
70
ENDCHAR
STARTCHAR 058D
ENCODING 1421
SWIDTH 916 0
DWIDTH 11 0
BBX 10 10 1 -3
BITMAP
0E00
6980
6B80
6C00
93C0
F640
8F40
F580
6580
0D00
ENDCHAR
STARTCHAR 058E
ENCODING 1422
SWIDTH 916 0
DWIDTH 11 0
BBX 10 10 1 -3
BITMAP
1C00
6580
F580
9D40
F240
93C0
2C00
6B80
6B80
3C00
ENDCHAR
STARTCHAR 058F
ENCODING 1423
SWIDTH 750 0
DWIDTH 9 0
BBX 8 8 1 0
BITMAP
3C
66
C6
E4
1F
1F
0C
3C
ENDCHAR
STARTCHAR 0591
ENCODING 1425
SWIDTH 0 0
DWIDTH 0 0
BBX 3 1 -3 -2
BITMAP
E0
ENDCHAR
STARTCHAR 0592
ENCODING 1426
SWIDTH 0 0
DWIDTH 0 0
BBX 2 2 0 7
BITMAP
40
C0
ENDCHAR
STARTCHAR 0593
ENCODING 1427
SWIDTH 0 0
DWIDTH 0 0
BBX 1 2 1 7
BITMAP
80
80
ENDCHAR
STARTCHAR 0594
ENCODING 1428
SWIDTH 0 0
DWIDTH 0 0
BBX 1 2 1 7
BITMAP
80
80
ENDCHAR
STARTCHAR 0595
ENCODING 1429
SWIDTH 0 0
DWIDTH 0 0
BBX 3 2 0 7
BITMAP
A0
C0
ENDCHAR
STARTCHAR 0596
ENCODING 1430
SWIDTH 0 0
DWIDTH 0 0
BBX 1 3 -2 -3
BITMAP
80
80
80
ENDCHAR
STARTCHAR 0597
ENCODING 1431
SWIDTH 0 0
DWIDTH 0 0
BBX 1 2 1 7
BITMAP
80
80
ENDCHAR
STARTCHAR 0598
ENCODING 1432
SWIDTH 0 0
DWIDTH 0 0
BBX 3 2 0 7
BITMAP
C0
20
ENDCHAR
STARTCHAR 0599
ENCODING 1433
SWIDTH 0 0
DWIDTH 0 0
BBX 2 3 -1 7
BITMAP
80
40
40
ENDCHAR
STARTCHAR 059A
ENCODING 1434
SWIDTH 0 0
DWIDTH 0 0
BBX 1 1 0 -3
BITMAP
80
ENDCHAR
STARTCHAR 059B
ENCODING 1435
SWIDTH 0 0
DWIDTH 0 0
BBX 2 3 -2 -2
BITMAP
C0
40
80
ENDCHAR
STARTCHAR 059C
ENCODING 1436
SWIDTH 0 0
DWIDTH 0 0
BBX 3 2 0 6
BITMAP
60
80
ENDCHAR
STARTCHAR 059D
ENCODING 1437
SWIDTH 0 0
DWIDTH 0 0
BBX 2 2 2 6
BITMAP
40
80
ENDCHAR
STARTCHAR 059E
ENCODING 1438
SWIDTH 0 0
DWIDTH 0 0
BBX 3 2 0 6
BITMAP
E0
40
ENDCHAR
STARTCHAR 059F
ENCODING 1439
SWIDTH 0 0
DWIDTH 0 0
BBX 5 2 -1 6
BITMAP
D8
D8
ENDCHAR
STARTCHAR 05A0
ENCODING 1440
SWIDTH 0 0
DWIDTH 0 0
BBX 3 2 0 6
BITMAP
60
C0
ENDCHAR
STARTCHAR 05A1
ENCODING 1441
SWIDTH 0 0
DWIDTH 0 0
BBX 3 2 0 7
BITMAP
20
C0
ENDCHAR
STARTCHAR 05A2
ENCODING 1442
SWIDTH 0 0
DWIDTH 0 0
BBX 2 2 -2 -2
BITMAP
40
80
ENDCHAR
STARTCHAR 05A3
ENCODING 1443
SWIDTH 0 0
DWIDTH 0 0
BBX 2 3 -2 -3
BITMAP
40
40
80
ENDCHAR
STARTCHAR 05A4
ENCODING 1444
SWIDTH 0 0
DWIDTH 0 0
BBX 1 1 -2 -2
BITMAP
80
ENDCHAR
STARTCHAR 05A5
ENCODING 1445
SWIDTH 0 0
DWIDTH 0 0
BBX 3 3 -3 -3
BITMAP
20
20
C0
ENDCHAR
STARTCHAR 05A6
ENCODING 1446
SWIDTH 0 0
DWIDTH 0 0
BBX 4 3 -3 -3
BITMAP
50
60
C0
ENDCHAR
STARTCHAR 05A7
ENCODING 1447
SWIDTH 0 0
DWIDTH 0 0
BBX 2 2 -2 -3
BITMAP
40
80
ENDCHAR
STARTCHAR 05A8
ENCODING 1448
SWIDTH 0 0
DWIDTH 0 0
BBX 1 1 1 6
BITMAP
80
ENDCHAR
STARTCHAR 05A9
ENCODING 1449
SWIDTH 0 0
DWIDTH 0 0
BBX 2 2 0 6
BITMAP
40
C0
ENDCHAR
STARTCHAR 05AA
ENCODING 1450
SWIDTH 0 0
DWIDTH 0 0
BBX 2 2 -2 -2
BITMAP
40
80
ENDCHAR
STARTCHAR 05AB
ENCODING 1451
SWIDTH 0 0
DWIDTH 0 0
BBX 1 2 1 7
BITMAP
80
80
ENDCHAR
STARTCHAR 05AC
ENCODING 1452
SWIDTH 0 0
DWIDTH 0 0
BBX 2 1 0 9
BITMAP
C0
ENDCHAR
STARTCHAR 05AD
ENCODING 1453
SWIDTH 0 0
DWIDTH 0 0
BBX 2 3 -1 -3
BITMAP
80
80
40
ENDCHAR
STARTCHAR 05AE
ENCODING 1454
SWIDTH 0 0
DWIDTH 0 0
BBX 4 2 -2 7
BITMAP
D0
A0
ENDCHAR
STARTCHAR 05AF
ENCODING 1455
SWIDTH 0 0
DWIDTH 0 0
BBX 1 2 1 7
BITMAP
80
80
ENDCHAR
STARTCHAR 05B0
ENCODING 1456
SWIDTH 0 0
DWIDTH 0 0
BBX 1 1 -1 -3
BITMAP
80
ENDCHAR
STARTCHAR 05B1
ENCODING 1457
SWIDTH 0 0
DWIDTH 0 0
BBX 4 2 -1 -3
BITMAP
D0
A0
ENDCHAR
STARTCHAR 05B2
ENCODING 1458
SWIDTH 0 0
DWIDTH 0 0
BBX 3 3 -1 -3
BITMAP
E0
00
20
ENDCHAR
STARTCHAR 05B3
ENCODING 1459
SWIDTH 0 0
DWIDTH 0 0
BBX 4 3 -1 -3
BITMAP
D0
00
20
ENDCHAR
STARTCHAR 05B4
ENCODING 1460
SWIDTH 0 0
DWIDTH 0 0
BBX 1 1 -1 -2
BITMAP
80
ENDCHAR
STARTCHAR 05B5
ENCODING 1461
SWIDTH 0 0
DWIDTH 0 0
BBX 2 1 -1 -2
BITMAP
C0
ENDCHAR
STARTCHAR 05B6
ENCODING 1462
SWIDTH 0 0
DWIDTH 0 0
BBX 2 2 -1 -3
BITMAP
C0
80
ENDCHAR
STARTCHAR 05B7
ENCODING 1463
SWIDTH 0 0
DWIDTH 0 0
BBX 2 1 -1 -1
BITMAP
C0
ENDCHAR
STARTCHAR 05B8
ENCODING 1464
SWIDTH 0 0
DWIDTH 0 0
BBX 2 1 -1 -3
BITMAP
C0
ENDCHAR
STARTCHAR 05B9
ENCODING 1465
SWIDTH 0 0
DWIDTH 0 0
BBX 1 1 1 6
BITMAP
80
ENDCHAR
STARTCHAR 05BA
ENCODING 1466
SWIDTH 0 0
DWIDTH 0 0
BBX 1 1 1 6
BITMAP
80
ENDCHAR
STARTCHAR 05BB
ENCODING 1467
SWIDTH 0 0
DWIDTH 0 0
BBX 3 3 -1 -3
BITMAP
80
40
20
ENDCHAR
STARTCHAR 05BC
ENCODING 1468
SWIDTH 0 0
DWIDTH 0 0
BBX 0 0 1 2
BITMAP
ENDCHAR
STARTCHAR 05BD
ENCODING 1469
SWIDTH 0 0
DWIDTH 0 0
BBX 1 2 -2 -2
BITMAP
80
80
ENDCHAR
STARTCHAR 05BE
ENCODING 1470
SWIDTH 416 0
DWIDTH 5 0
BBX 4 2 1 4
BITMAP
F0
E0
ENDCHAR
STARTCHAR 05BF
ENCODING 1471
SWIDTH 0 0
DWIDTH 0 0
BBX 2 1 0 7
BITMAP
C0
ENDCHAR
STARTCHAR 05C0
ENCODING 1472
SWIDTH 333 0
DWIDTH 4 0
BBX 4 8 0 -1
BITMAP
30
20
20
20
40
40
40
C0
ENDCHAR
STARTCHAR 05C1
ENCODING 1473
SWIDTH 0 0
DWIDTH 0 0
BBX 1 1 5 7
BITMAP
80
ENDCHAR
STARTCHAR 05C2
ENCODING 1474
SWIDTH 0 0
DWIDTH 0 0
BBX 1 1 0 6
BITMAP
80
ENDCHAR
STARTCHAR 05C3
ENCODING 1475
SWIDTH 333 0
DWIDTH 4 0
BBX 3 6 0 0
BITMAP
60
60
00
00
C0
C0
ENDCHAR
STARTCHAR 05C4
ENCODING 1476
SWIDTH 0 0
DWIDTH 0 0
BBX 1 1 0 6
BITMAP
80
ENDCHAR
STARTCHAR 05C5
ENCODING 1477
SWIDTH 0 0
DWIDTH 0 0
BBX 1 1 -2 -1
BITMAP
80
ENDCHAR
STARTCHAR 05C6
ENCODING 1478
SWIDTH 333 0
DWIDTH 4 0
BBX 4 6 0 1
BITMAP
30
60
40
80
E0
E0
ENDCHAR
STARTCHAR 05C7
ENCODING 1479
SWIDTH 0 0
DWIDTH 0 0
BBX 2 3 -1 -3
BITMAP
C0
80
80
ENDCHAR
STARTCHAR 05D0
ENCODING 1488
SWIDTH 500 0
DWIDTH 6 0
BBX 6 7 0 -1
BITMAP
08
6C
6C
78
D8
D8
C8
ENDCHAR
STARTCHAR 05D1
ENCODING 1489
SWIDTH 500 0
DWIDTH 6 0
BBX 5 6 0 1
BITMAP
78
78
08
10
F8
F0
ENDCHAR
STARTCHAR 05D2
ENCODING 1490
SWIDTH 416 0
DWIDTH 5 0
BBX 4 6 0 0
BITMAP
70
30
20
20
D0
D0
ENDCHAR
STARTCHAR 05D3
ENCODING 1491
SWIDTH 416 0
DWIDTH 5 0
BBX 5 6 1 0
BITMAP
F8
F0
20
20
20
20
ENDCHAR
STARTCHAR 05D4
ENCODING 1492
SWIDTH 500 0
DWIDTH 6 0
BBX 6 6 0 0
BITMAP
7C
7C
08
48
48
88
ENDCHAR
STARTCHAR 05D5
ENCODING 1493
SWIDTH 333 0
DWIDTH 4 0
BBX 2 6 1 -1
BITMAP
80
C0
40
40
40
40
ENDCHAR
STARTCHAR 05D6
ENCODING 1494
SWIDTH 333 0
DWIDTH 4 0
BBX 3 7 1 -1
BITMAP
80
E0
60
80
80
80
80
ENDCHAR
STARTCHAR 05D7
ENCODING 1495
SWIDTH 500 0
DWIDTH 6 0
BBX 6 6 0 0
BITMAP
7C
7C
48
48
48
88
ENDCHAR
STARTCHAR 05D8
ENCODING 1496
SWIDTH 500 0
DWIDTH 6 0
BBX 5 7 1 0
BITMAP
80
D8
D8
A8
88
F0
E0
ENDCHAR
STARTCHAR 05D9
ENCODING 1497
SWIDTH 250 0
DWIDTH 3 0
BBX 2 3 1 3
BITMAP
C0
40
40
ENDCHAR
STARTCHAR 05DA
ENCODING 1498
SWIDTH 416 0
DWIDTH 5 0
BBX 5 7 1 -2
BITMAP
F8
F0
10
20
20
20
20
ENDCHAR
STARTCHAR 05DB
ENCODING 1499
SWIDTH 416 0
DWIDTH 5 0
BBX 5 6 0 1
BITMAP
78
78
08
08
F0
E0
ENDCHAR
STARTCHAR 05DC
ENCODING 1500
SWIDTH 416 0
DWIDTH 5 0
BBX 4 9 1 -1
BITMAP
80
C0
80
F0
F0
10
20
40
40
ENDCHAR
STARTCHAR 05DD
ENCODING 1501
SWIDTH 500 0
DWIDTH 6 0
BBX 6 6 0 1
BITMAP
78
7C
48
88
F8
F0
ENDCHAR
STARTCHAR 05DE
ENCODING 1502
SWIDTH 500 0
DWIDTH 6 0
BBX 6 7 0 0
BITMAP
40
6C
3C
24
44
B8
B8
ENDCHAR
STARTCHAR 05DF
ENCODING 1503
SWIDTH 333 0
DWIDTH 4 0
BBX 3 8 1 -3
BITMAP
80
C0
60
40
40
80
80
80
ENDCHAR
STARTCHAR 05E0
ENCODING 1504
SWIDTH 333 0
DWIDTH 4 0
BBX 3 7 0 0
BITMAP
40
60
20
20
20
E0
E0
ENDCHAR
STARTCHAR 05E1
ENCODING 1505
SWIDTH 416 0
DWIDTH 5 0
BBX 5 7 0 0
BITMAP
40
78
78
88
88
F0
60
ENDCHAR
STARTCHAR 05E2
ENCODING 1506
SWIDTH 500 0
DWIDTH 6 0
BBX 7 8 -1 -1
BITMAP
20
36
12
14
14
18
78
80
ENDCHAR
STARTCHAR 05E3
ENCODING 1507
SWIDTH 500 0
DWIDTH 6 0
BBX 5 8 1 -1
BITMAP
F0
F8
90
D0
10
10
20
20
ENDCHAR
STARTCHAR 05E4
ENCODING 1508
SWIDTH 416 0
DWIDTH 5 0
BBX 5 7 0 0
BITMAP
40
78
78
68
08
F0
E0
ENDCHAR
STARTCHAR 05E5
ENCODING 1509
SWIDTH 583 0
DWIDTH 7 0
BBX 6 9 1 -3
BITMAP
90
DC
4C
50
20
20
20
60
40
ENDCHAR
STARTCHAR 05E6
ENCODING 1510
SWIDTH 500 0
DWIDTH 6 0
BBX 6 7 0 0
BITMAP
48
6C
2C
30
10
78
F0
ENDCHAR
STARTCHAR 05E7
ENCODING 1511
SWIDTH 416 0
DWIDTH 5 0
BBX 6 7 0 -2
BITMAP
78
7C
08
48
B0
A0
80
ENDCHAR
STARTCHAR 05E8
ENCODING 1512
SWIDTH 500 0
DWIDTH 6 0
BBX 5 5 1 0
BITMAP
F0
F8
10
10
10
ENDCHAR
STARTCHAR 05E9
ENCODING 1513
SWIDTH 666 0
DWIDTH 8 0
BBX 7 7 1 0
BITMAP
90
DE
5A
A4
A8
F8
F8
ENDCHAR
STARTCHAR 05EA
ENCODING 1514
SWIDTH 500 0
DWIDTH 6 0
BBX 6 6 0 0
BITMAP
3C
3C
24
48
C8
C8
ENDCHAR
STARTCHAR 05F0
ENCODING 1520
SWIDTH 583 0
DWIDTH 7 0
BBX 6 7 1 -1
BITMAP
80
DC
4C
44
48
48
08
ENDCHAR
STARTCHAR 05F1
ENCODING 1521
SWIDTH 583 0
DWIDTH 7 0
BBX 5 6 2 -1
BITMAP
10
D8
C8
48
08
08
ENDCHAR
STARTCHAR 05F2
ENCODING 1522
SWIDTH 583 0
DWIDTH 7 0
BBX 5 5 2 2
BITMAP
10
D8
C8
48
10
ENDCHAR
STARTCHAR 05F3
ENCODING 1523
SWIDTH 250 0
DWIDTH 3 0
BBX 2 3 1 3
BITMAP
C0
80
80
ENDCHAR
STARTCHAR 05F4
ENCODING 1524
SWIDTH 416 0
DWIDTH 5 0
BBX 4 3 1 3
BITMAP
D0
90
A0
ENDCHAR
STARTCHAR 1D00
ENCODING 7424
SWIDTH 416 0
DWIDTH 5 0
BBX 4 6 0 0
BITMAP
10
10
70
70
90
30
ENDCHAR
STARTCHAR 1D01
ENCODING 7425
SWIDTH 583 0
DWIDTH 7 0
BBX 8 6 -1 0
BITMAP
0F
1C
2E
38
D9
9A
ENDCHAR
STARTCHAR 1D02
ENCODING 7426
SWIDTH 750 0
DWIDTH 9 0
BBX 8 6 0 0
BITMAP
3B
0D
09
79
DA
FC
ENDCHAR
STARTCHAR 1D03
ENCODING 7427
SWIDTH 500 0
DWIDTH 6 0
BBX 6 6 0 0
BITMAP
38
2C
7C
48
48
D8
ENDCHAR
STARTCHAR 1D04
ENCODING 7428
SWIDTH 500 0
DWIDTH 6 0
BBX 6 6 0 0
BITMAP
3C
40
C0
C0
C0
70
ENDCHAR
STARTCHAR 1D05
ENCODING 7429
SWIDTH 500 0
DWIDTH 6 0
BBX 6 6 0 0
BITMAP
38
24
64
6C
48
D0
ENDCHAR
STARTCHAR 1D06
ENCODING 7430
SWIDTH 500 0
DWIDTH 6 0
BBX 6 6 0 0
BITMAP
38
24
74
6C
48
D0
ENDCHAR
STARTCHAR 1D07
ENCODING 7431
SWIDTH 500 0
DWIDTH 6 0
BBX 6 6 0 0
BITMAP
3C
20
70
60
40
D8
ENDCHAR
STARTCHAR 1D08
ENCODING 7432
SWIDTH 416 0
DWIDTH 5 0
BBX 4 6 0 0
BITMAP
70
10
20
30
30
E0
ENDCHAR
STARTCHAR 1D09
ENCODING 7433
SWIDTH 250 0
DWIDTH 3 0
BBX 3 9 0 -3
BITMAP
60
E0
60
40
40
E0
00
80
80
ENDCHAR
STARTCHAR 1D0A
ENCODING 7434
SWIDTH 416 0
DWIDTH 5 0
BBX 5 6 -1 0
BITMAP
18
18
10
10
70
A0
ENDCHAR
STARTCHAR 1D0B
ENCODING 7435
SWIDTH 500 0
DWIDTH 6 0
BBX 6 6 0 0
BITMAP
24
28
70
70
58
D8
ENDCHAR
STARTCHAR 1D0C
ENCODING 7436
SWIDTH 416 0
DWIDTH 5 0
BBX 4 6 0 0
BITMAP
20
20
60
60
40
D0
ENDCHAR
STARTCHAR 1D0D
ENCODING 7437
SWIDTH 666 0
DWIDTH 8 0
BBX 7 6 0 0
BITMAP
22
3E
7E
B6
B4
AC
ENDCHAR
STARTCHAR 1D0E
ENCODING 7438
SWIDTH 666 0
DWIDTH 8 0
BBX 7 6 0 0
BITMAP
36
24
7C
6C
6C
CC
ENDCHAR
STARTCHAR 1D0F
ENCODING 7439
SWIDTH 500 0
DWIDTH 6 0
BBX 6 6 0 0
BITMAP
38
6C
4C
C8
D8
50
ENDCHAR
STARTCHAR 1D10
ENCODING 7440
SWIDTH 416 0
DWIDTH 5 0
BBX 5 6 0 0
BITMAP
70
08
08
18
10
E0
ENDCHAR
STARTCHAR 1D11
ENCODING 7441
SWIDTH 500 0
DWIDTH 6 0
BBX 6 6 0 0
BITMAP
70
F8
88
44
7C
38
ENDCHAR
STARTCHAR 1D12
ENCODING 7442
SWIDTH 500 0
DWIDTH 6 0
BBX 6 6 0 0
BITMAP
70
F8
84
84
04
04
ENDCHAR
STARTCHAR 1D13
ENCODING 7443
SWIDTH 500 0
DWIDTH 6 0
BBX 6 6 0 0
BITMAP
F0
F8
A8
54
7C
38
ENDCHAR
STARTCHAR 1D14
ENCODING 7444
SWIDTH 750 0
DWIDTH 9 0
BBX 8 6 0 0
BITMAP
37
19
19
7B
92
EC
ENDCHAR
STARTCHAR 1D15
ENCODING 7445
SWIDTH 416 0
DWIDTH 5 0
BBX 5 6 0 0
BITMAP
68
30
48
D8
D8
D0
ENDCHAR
STARTCHAR 1D16
ENCODING 7446
SWIDTH 500 0
DWIDTH 6 0
BBX 5 3 1 2
BITMAP
70
D8
98
ENDCHAR
STARTCHAR 1D17
ENCODING 7447
SWIDTH 500 0
DWIDTH 6 0
BBX 5 3 0 0
BITMAP
C8
D8
50
ENDCHAR
STARTCHAR 1D18
ENCODING 7448
SWIDTH 500 0
DWIDTH 6 0
BBX 5 6 1 0
BITMAP
70
58
D0
E0
80
80
ENDCHAR
STARTCHAR 1D19
ENCODING 7449
SWIDTH 500 0
DWIDTH 6 0
BBX 6 6 0 0
BITMAP
3C
2C
2C
38
68
D8
ENDCHAR
STARTCHAR 1D1A
ENCODING 7450
SWIDTH 500 0
DWIDTH 6 0
BBX 5 6 1 0
BITMAP
D8
58
50
70
B0
B0
ENDCHAR
STARTCHAR 1D1B
ENCODING 7451
SWIDTH 416 0
DWIDTH 5 0
BBX 5 6 0 0
BITMAP
78
A0
20
60
60
60
ENDCHAR
STARTCHAR 1D1C
ENCODING 7452
SWIDTH 416 0
DWIDTH 5 0
BBX 6 6 0 0
BITMAP
64
48
48
C8
D0
70
ENDCHAR
STARTCHAR 1D1D
ENCODING 7453
SWIDTH 500 0
DWIDTH 6 0
BBX 6 6 0 1
BITMAP
E0
7C
18
C8
F8
9C
ENDCHAR
STARTCHAR 1D1E
ENCODING 7454
SWIDTH 666 0
DWIDTH 8 0
BBX 8 6 0 1
BITMAP
FA
1F
C7
B2
3F
27
ENDCHAR
STARTCHAR 1D1F
ENCODING 7455
SWIDTH 500 0
DWIDTH 6 0
BBX 6 9 0 -2
BITMAP
E0
78
1C
C8
FC
2C
D8
F8
1C
ENDCHAR
STARTCHAR 1D20
ENCODING 7456
SWIDTH 416 0
DWIDTH 5 0
BBX 5 6 1 0
BITMAP
C8
90
A0
C0
80
80
ENDCHAR
STARTCHAR 1D21
ENCODING 7457
SWIDTH 583 0
DWIDTH 7 0
BBX 7 6 1 0
BITMAP
92
94
F8
D8
B0
20
ENDCHAR
STARTCHAR 1D22
ENCODING 7458
SWIDTH 333 0
DWIDTH 4 0
BBX 6 6 -1 0
BITMAP
3C
18
10
30
60
D8
ENDCHAR
STARTCHAR 1D23
ENCODING 7459
SWIDTH 416 0
DWIDTH 5 0
BBX 5 6 0 0
BITMAP
78
10
20
10
30
E0
ENDCHAR
STARTCHAR 1D24
ENCODING 7460
SWIDTH 416 0
DWIDTH 5 0
BBX 5 6 0 0
BITMAP
78
08
30
40
90
F0
ENDCHAR
STARTCHAR 1D25
ENCODING 7461
SWIDTH 583 0
DWIDTH 7 0
BBX 6 6 0 0
BITMAP
38
3C
38
38
24
DC
ENDCHAR
STARTCHAR 1D26
ENCODING 7462
SWIDTH 416 0
DWIDTH 5 0
BBX 5 6 0 0
BITMAP
78
60
40
40
C0
C0
ENDCHAR
STARTCHAR 1D27
ENCODING 7463
SWIDTH 416 0
DWIDTH 5 0
BBX 5 6 -1 0
BITMAP
08
08
38
28
48
88
ENDCHAR
STARTCHAR 1D28
ENCODING 7464
SWIDTH 583 0
DWIDTH 7 0
BBX 7 6 0 0
BITMAP
3E
24
64
6C
4C
CC
ENDCHAR
STARTCHAR 1D29
ENCODING 7465
SWIDTH 500 0
DWIDTH 6 0
BBX 5 6 1 0
BITMAP
70
58
D0
E0
80
80
ENDCHAR
STARTCHAR 1D2A
ENCODING 7466
SWIDTH 500 0
DWIDTH 6 0
BBX 7 6 0 0
BITMAP
5A
D6
F4
38
20
20
ENDCHAR
STARTCHAR 1D2B
ENCODING 7467
SWIDTH 500 0
DWIDTH 6 0
BBX 7 6 -1 0
BITMAP
1E
24
24
2C
4C
CC
ENDCHAR
STARTCHAR 1D2C
ENCODING 7468
SWIDTH 416 0
DWIDTH 5 0
BBX 5 6 0 3
BITMAP
08
18
28
38
58
D8
ENDCHAR
STARTCHAR 1D2D
ENCODING 7469
SWIDTH 583 0
DWIDTH 7 0
BBX 7 5 0 4
BITMAP
0C
38
2C
50
DE
ENDCHAR
STARTCHAR 1D2E
ENCODING 7470
SWIDTH 416 0
DWIDTH 5 0
BBX 5 6 0 3
BITMAP
38
28
30
48
58
E0
ENDCHAR
STARTCHAR 1D2F
ENCODING 7471
SWIDTH 416 0
DWIDTH 5 0
BBX 5 6 0 3
BITMAP
38
28
78
48
58
E0
ENDCHAR
STARTCHAR 1D30
ENCODING 7472
SWIDTH 416 0
DWIDTH 5 0
BBX 6 6 0 3
BITMAP
38
28
2C
68
48
F0
ENDCHAR
STARTCHAR 1D31
ENCODING 7473
SWIDTH 416 0
DWIDTH 5 0
BBX 5 6 0 3
BITMAP
38
20
30
40
48
F0
ENDCHAR
STARTCHAR 1D32
ENCODING 7474
SWIDTH 416 0
DWIDTH 5 0
BBX 5 6 0 3
BITMAP
38
08
38
10
10
F0
ENDCHAR
STARTCHAR 1D33
ENCODING 7475
SWIDTH 416 0
DWIDTH 5 0
BBX 5 6 1 3
BITMAP
78
C8
80
90
90
60
ENDCHAR
STARTCHAR 1D34
ENCODING 7476
SWIDTH 416 0
DWIDTH 5 0
BBX 6 6 0 3
BITMAP
24
2C
78
48
48
D8
ENDCHAR
STARTCHAR 1D35
ENCODING 7477
SWIDTH 250 0
DWIDTH 3 0
BBX 3 6 0 3
BITMAP
20
20
20
40
40
E0
ENDCHAR
STARTCHAR 1D36
ENCODING 7478
SWIDTH 333 0
DWIDTH 4 0
BBX 3 6 1 3
BITMAP
20
20
60
40
40
80
ENDCHAR
STARTCHAR 1D37
ENCODING 7479
SWIDTH 416 0
DWIDTH 5 0
BBX 5 6 0 3
BITMAP
28
30
30
50
50
F8
ENDCHAR
STARTCHAR 1D38
ENCODING 7480
SWIDTH 333 0
DWIDTH 4 0
BBX 4 6 0 3
BITMAP
20
20
20
40
40
F0
ENDCHAR
STARTCHAR 1D39
ENCODING 7481
SWIDTH 500 0
DWIDTH 6 0
BBX 7 6 0 3
BITMAP
22
2E
5C
54
54
CC
ENDCHAR
STARTCHAR 1D3A
ENCODING 7482
SWIDTH 416 0
DWIDTH 5 0
BBX 6 6 0 3
BITMAP
24
54
58
58
48
C8
ENDCHAR
STARTCHAR 1D3B
ENCODING 7483
SWIDTH 416 0
DWIDTH 5 0
BBX 6 6 0 3
BITMAP
24
2C
38
68
48
F8
ENDCHAR
STARTCHAR 1D3C
ENCODING 7484
SWIDTH 416 0
DWIDTH 5 0
BBX 5 6 1 3
BITMAP
70
48
98
90
90
60
ENDCHAR
STARTCHAR 1D3D
ENCODING 7485
SWIDTH 416 0
DWIDTH 5 0
BBX 5 6 1 3
BITMAP
58
20
D0
90
90
60
ENDCHAR
STARTCHAR 1D3E
ENCODING 7486
SWIDTH 333 0
DWIDTH 4 0
BBX 5 6 0 3
BITMAP
38
28
28
50
40
E0
ENDCHAR
STARTCHAR 1D3F
ENCODING 7487
SWIDTH 416 0
DWIDTH 5 0
BBX 5 6 0 3
BITMAP
38
28
30
50
50
F8
ENDCHAR
STARTCHAR 1D40
ENCODING 7488
SWIDTH 333 0
DWIDTH 4 0
BBX 4 6 1 3
BITMAP
F0
20
60
40
40
C0
ENDCHAR
STARTCHAR 1D41
ENCODING 7489
SWIDTH 416 0
DWIDTH 5 0
BBX 5 6 1 3
BITMAP
48
48
50
D0
90
60
ENDCHAR
STARTCHAR 1D42
ENCODING 7490
SWIDTH 583 0
DWIDTH 7 0
BBX 5 5 2 3
BITMAP
A0
A8
F0
A0
20
ENDCHAR
STARTCHAR 1D43
ENCODING 7491
SWIDTH 333 0
DWIDTH 4 0
BBX 3 4 1 3
BITMAP
60
A0
C0
C0
ENDCHAR
STARTCHAR 1D44
ENCODING 7492
SWIDTH 333 0
DWIDTH 4 0
BBX 3 3 1 3
BITMAP
A0
E0
C0
ENDCHAR
STARTCHAR 1D45
ENCODING 7493
SWIDTH 333 0
DWIDTH 4 0
BBX 3 4 1 3
BITMAP
60
A0
C0
C0
ENDCHAR
STARTCHAR 1D46
ENCODING 7494
SWIDTH 416 0
DWIDTH 5 0
BBX 5 4 1 3
BITMAP
50
28
D0
E0
ENDCHAR
STARTCHAR 1D47
ENCODING 7495
SWIDTH 250 0
DWIDTH 3 0
BBX 3 6 1 3
BITMAP
C0
80
E0
A0
C0
80
ENDCHAR
STARTCHAR 1D48
ENCODING 7496
SWIDTH 333 0
DWIDTH 4 0
BBX 3 6 1 3
BITMAP
20
60
A0
A0
C0
C0
ENDCHAR
STARTCHAR 1D49
ENCODING 7497
SWIDTH 250 0
DWIDTH 3 0
BBX 2 4 1 3
BITMAP
40
C0
80
C0
ENDCHAR
STARTCHAR 1D4A
ENCODING 7498
SWIDTH 250 0
DWIDTH 3 0
BBX 3 4 1 3
BITMAP
40
20
C0
80
ENDCHAR
STARTCHAR 1D4B
ENCODING 7499
SWIDTH 250 0
DWIDTH 3 0
BBX 2 4 1 3
BITMAP
40
40
80
80
ENDCHAR
STARTCHAR 1D4C
ENCODING 7500
SWIDTH 250 0
DWIDTH 3 0
BBX 2 4 1 3
BITMAP
40
C0
40
80
ENDCHAR
STARTCHAR 1D4D
ENCODING 7501
SWIDTH 250 0
DWIDTH 3 0
BBX 4 6 0 1
BITMAP
70
50
60
60
A0
40
ENDCHAR
STARTCHAR 1D4E
ENCODING 7502
SWIDTH 166 0
DWIDTH 2 0
BBX 2 5 0 1
BITMAP
40
40
40
00
80
ENDCHAR
STARTCHAR 1D4F
ENCODING 7503
SWIDTH 250 0
DWIDTH 3 0
BBX 4 6 0 3
BITMAP
40
70
60
60
A0
80
ENDCHAR
STARTCHAR 1D50
ENCODING 7504
SWIDTH 416 0
DWIDTH 5 0
BBX 5 4 1 3
BITMAP
B8
F0
D0
50
ENDCHAR
STARTCHAR 1D51
ENCODING 7505
SWIDTH 333 0
DWIDTH 4 0
BBX 3 6 1 1
BITMAP
A0
E0
A0
40
40
80
ENDCHAR
STARTCHAR 1D52
ENCODING 7506
SWIDTH 333 0
DWIDTH 4 0
BBX 3 5 1 3
BITMAP
40
A0
A0
C0
80
ENDCHAR
STARTCHAR 1D53
ENCODING 7507
SWIDTH 250 0
DWIDTH 3 0
BBX 3 4 1 3
BITMAP
40
20
40
80
ENDCHAR
STARTCHAR 1D54
ENCODING 7508
SWIDTH 333 0
DWIDTH 4 0
BBX 3 2 1 5
BITMAP
40
A0
ENDCHAR
STARTCHAR 1D55
ENCODING 7509
SWIDTH 333 0
DWIDTH 4 0
BBX 2 2 1 4
BITMAP
C0
80
ENDCHAR
STARTCHAR 1D56
ENCODING 7510
SWIDTH 333 0
DWIDTH 4 0
BBX 4 6 0 1
BITMAP
50
70
50
A0
80
C0
ENDCHAR
STARTCHAR 1D57
ENCODING 7511
SWIDTH 166 0
DWIDTH 2 0
BBX 2 5 1 3
BITMAP
40
C0
80
80
80
ENDCHAR
STARTCHAR 1D58
ENCODING 7512
SWIDTH 333 0
DWIDTH 4 0
BBX 3 4 1 3
BITMAP
A0
A0
C0
C0
ENDCHAR
STARTCHAR 1D59
ENCODING 7513
SWIDTH 333 0
DWIDTH 4 0
BBX 3 4 1 3
BITMAP
80
60
C0
60
ENDCHAR
STARTCHAR 1D5A
ENCODING 7514
SWIDTH 416 0
DWIDTH 5 0
BBX 5 4 1 3
BITMAP
A8
B0
D0
F0
ENDCHAR
STARTCHAR 1D5B
ENCODING 7515
SWIDTH 250 0
DWIDTH 3 0
BBX 3 3 1 4
BITMAP
A0
C0
80
ENDCHAR
STARTCHAR 1D5C
ENCODING 7516
SWIDTH 333 0
DWIDTH 4 0
BBX 4 4 0 3
BITMAP
30
70
20
D0
ENDCHAR
STARTCHAR 1D5D
ENCODING 7517
SWIDTH 333 0
DWIDTH 4 0
BBX 4 7 0 1
BITMAP
30
50
60
50
60
A0
80
ENDCHAR
STARTCHAR 1D5E
ENCODING 7518
SWIDTH 250 0
DWIDTH 3 0
BBX 2 5 1 1
BITMAP
80
C0
40
80
80
ENDCHAR
STARTCHAR 1D5F
ENCODING 7519
SWIDTH 333 0
DWIDTH 4 0
BBX 3 6 1 3
BITMAP
60
40
60
A0
A0
C0
ENDCHAR
STARTCHAR 1D60
ENCODING 7520
SWIDTH 333 0
DWIDTH 4 0
BBX 4 6 0 1
BITMAP
10
70
70
D0
60
40
ENDCHAR
STARTCHAR 1D61
ENCODING 7521
SWIDTH 250 0
DWIDTH 3 0
BBX 4 6 0 2
BITMAP
50
20
20
40
40
A0
ENDCHAR
STARTCHAR 1D62
ENCODING 7522
SWIDTH 166 0
DWIDTH 2 0
BBX 2 6 0 -2
BITMAP
40
00
80
80
80
80
ENDCHAR
STARTCHAR 1D63
ENCODING 7523
SWIDTH 250 0
DWIDTH 3 0
BBX 2 4 0 -1
BITMAP
C0
80
80
80
ENDCHAR
STARTCHAR 1D64
ENCODING 7524
SWIDTH 333 0
DWIDTH 4 0
BBX 3 4 0 -1
BITMAP
A0
A0
E0
A0
ENDCHAR
STARTCHAR 1D65
ENCODING 7525
SWIDTH 250 0
DWIDTH 3 0
BBX 3 2 0 0
BITMAP
A0
C0
ENDCHAR
STARTCHAR 1D66
ENCODING 7526
SWIDTH 333 0
DWIDTH 4 0
BBX 4 7 -1 -3
BITMAP
10
30
50
50
50
60
80
ENDCHAR
STARTCHAR 1D67
ENCODING 7527
SWIDTH 250 0
DWIDTH 3 0
BBX 3 5 0 -3
BITMAP
A0
C0
40
80
80
ENDCHAR
STARTCHAR 1D68
ENCODING 7528
SWIDTH 333 0
DWIDTH 4 0
BBX 4 6 -1 -3
BITMAP
20
50
50
50
A0
60
ENDCHAR
STARTCHAR 1D69
ENCODING 7529
SWIDTH 333 0
DWIDTH 4 0
BBX 3 5 0 -3
BITMAP
60
E0
E0
E0
80
ENDCHAR
STARTCHAR 1D6A
ENCODING 7530
SWIDTH 250 0
DWIDTH 3 0
BBX 4 5 -1 -3
BITMAP
50
20
20
40
A0
ENDCHAR
STARTCHAR 1D6B
ENCODING 7531
SWIDTH 750 0
DWIDTH 9 0
BBX 9 6 0 0
BITMAP
6780
6D80
6D00
5A00
E800
CE00
ENDCHAR
STARTCHAR 1D6C
ENCODING 7532
SWIDTH 500 0
DWIDTH 6 0
BBX 6 9 0 0
BITMAP
70
70
20
78
6C
4C
48
D8
F0
ENDCHAR
STARTCHAR 1D6D
ENCODING 7533
SWIDTH 500 0
DWIDTH 6 0
BBX 7 9 0 0
BITMAP
0C
0E
0C
3C
68
48
D8
DC
F8
ENDCHAR
STARTCHAR 1D6E
ENCODING 7534
SWIDTH 333 0
DWIDTH 4 0
BBX 8 12 -2 -3
BITMAP
03
05
08
1C
18
18
3C
10
10
30
20
C0
ENDCHAR
STARTCHAR 1D6F
ENCODING 7535
SWIDTH 750 0
DWIDTH 9 0
BBX 9 6 0 0
BITMAP
6D80
7F80
FD00
4F80
DB80
DB00
ENDCHAR
STARTCHAR 1D70
ENCODING 7536
SWIDTH 583 0
DWIDTH 7 0
BBX 7 6 0 0
BITMAP
6C
7C
EE
7C
48
C8
ENDCHAR
STARTCHAR 1D71
ENCODING 7537
SWIDTH 500 0
DWIDTH 6 0
BBX 7 9 -1 -3
BITMAP
3C
36
26
24
6C
68
50
E0
C0
ENDCHAR
STARTCHAR 1D72
ENCODING 7538
SWIDTH 416 0
DWIDTH 5 0
BBX 5 6 0 0
BITMAP
78
58
60
E0
40
C0
ENDCHAR
STARTCHAR 1D73
ENCODING 7539
SWIDTH 416 0
DWIDTH 5 0
BBX 5 6 0 0
BITMAP
38
28
40
E0
40
C0
ENDCHAR
STARTCHAR 1D74
ENCODING 7540
SWIDTH 416 0
DWIDTH 5 0
BBX 4 6 0 0
BITMAP
70
40
E0
30
90
A0
ENDCHAR
STARTCHAR 1D75
ENCODING 7541
SWIDTH 250 0
DWIDTH 3 0
BBX 4 7 0 1
BITMAP
20
70
60
E0
40
E0
C0
ENDCHAR
STARTCHAR 1D76
ENCODING 7542
SWIDTH 416 0
DWIDTH 5 0
BBX 4 7 0 -1
BITMAP
70
10
60
B0
C0
D0
20
ENDCHAR
STARTCHAR 1D77
ENCODING 7543
SWIDTH 500 0
DWIDTH 6 0
BBX 7 9 -1 -3
BITMAP
1C
22
34
3C
0C
18
6C
4C
F8
ENDCHAR
STARTCHAR 1D78
ENCODING 7544
SWIDTH 416 0
DWIDTH 5 0
BBX 4 4 1 3
BITMAP
F0
E0
A0
A0
ENDCHAR
STARTCHAR 1D79
ENCODING 7545
SWIDTH 500 0
DWIDTH 6 0
BBX 6 9 0 -3
BITMAP
7C
18
18
38
48
C8
98
90
E0
ENDCHAR
STARTCHAR 1D7A
ENCODING 7546
SWIDTH 750 0
DWIDTH 9 0
BBX 9 9 0 0
BITMAP
0E00
0500
2600
7D80
6F80
5D00
7900
DB80
D300
ENDCHAR
STARTCHAR 1D7B
ENCODING 7547
SWIDTH 333 0
DWIDTH 4 0
BBX 3 6 0 0
BITMAP
20
60
E0
40
40
C0
ENDCHAR
STARTCHAR 1D7C
ENCODING 7548
SWIDTH 250 0
DWIDTH 3 0
BBX 3 6 0 0
BITMAP
60
60
E0
40
E0
C0
ENDCHAR
STARTCHAR 1D7D
ENCODING 7549
SWIDTH 500 0
DWIDTH 6 0
BBX 7 9 -1 -3
BITMAP
3C
36
26
7E
64
68
50
40
C0
ENDCHAR
STARTCHAR 1D7E
ENCODING 7550
SWIDTH 416 0
DWIDTH 5 0
BBX 6 6 0 0
BITMAP
64
48
FC
C8
D0
70
ENDCHAR
STARTCHAR 1D7F
ENCODING 7551
SWIDTH 583 0
DWIDTH 7 0
BBX 7 6 0 0
BITMAP
6E
28
4C
FC
C8
50
ENDCHAR
STARTCHAR 1D80
ENCODING 7552
SWIDTH 500 0
DWIDTH 6 0
BBX 6 12 0 -3
BITMAP
70
20
20
78
6C
4C
48
D8
F0
10
60
60
ENDCHAR
STARTCHAR 1D81
ENCODING 7553
SWIDTH 500 0
DWIDTH 6 0
BBX 6 12 0 -3
BITMAP
0C
04
0C
3C
68
48
D8
DC
F8
08
38
30
ENDCHAR
STARTCHAR 1D82
ENCODING 7554
SWIDTH 416 0
DWIDTH 5 0
BBX 8 12 -2 -3
BITMAP
03
05
08
1C
18
18
18
1E
12
3C
2C
C0
ENDCHAR
STARTCHAR 1D83
ENCODING 7555
SWIDTH 583 0
DWIDTH 7 0
BBX 9 9 -1 -3
BITMAP
1E00
2400
2780
1900
2700
7B00
3C00
CC00
4800
ENDCHAR
STARTCHAR 1D84
ENCODING 7556
SWIDTH 500 0
DWIDTH 6 0
BBX 6 12 0 -3
BITMAP
30
30
20
28
70
50
70
DC
D8
08
38
30
ENDCHAR
STARTCHAR 1D85
ENCODING 7557
SWIDTH 250 0
DWIDTH 3 0
BBX 4 12 0 -3
BITMAP
70
20
20
60
60
40
40
E0
E0
40
C0
C0
ENDCHAR
STARTCHAR 1D86
ENCODING 7558
SWIDTH 750 0
DWIDTH 9 0
BBX 9 9 0 -3
BITMAP
6D80
7F80
6D00
4900
DB80
DB00
0100
0700
0600
ENDCHAR
STARTCHAR 1D87
ENCODING 7559
SWIDTH 583 0
DWIDTH 7 0
BBX 6 9 0 -3
BITMAP
6C
7C
6C
48
4C
DC
04
18
18
ENDCHAR
STARTCHAR 1D88
ENCODING 7560
SWIDTH 500 0
DWIDTH 6 0
BBX 7 9 -1 -3
BITMAP
3C
36
26
24
6C
6C
54
58
D8
ENDCHAR
STARTCHAR 1D89
ENCODING 7561
SWIDTH 416 0
DWIDTH 5 0
BBX 6 9 -1 -3
BITMAP
3C
2C
30
20
20
60
20
A0
C0
ENDCHAR
STARTCHAR 1D8A
ENCODING 7562
SWIDTH 416 0
DWIDTH 5 0
BBX 4 9 0 -3
BITMAP
70
40
60
30
90
B0
60
60
60
ENDCHAR
STARTCHAR 1D8B
ENCODING 7563
SWIDTH 416 0
DWIDTH 5 0
BBX 8 12 -2 -3
BITMAP
07
0D
08
08
18
18
18
1E
12
3C
2C
C0
ENDCHAR
STARTCHAR 1D8C
ENCODING 7564
SWIDTH 416 0
DWIDTH 5 0
BBX 5 9 0 -3
BITMAP
C8
68
68
70
60
40
30
70
60
ENDCHAR
STARTCHAR 1D8D
ENCODING 7565
SWIDTH 500 0
DWIDTH 6 0
BBX 7 9 -1 -3
BITMAP
32
1C
18
18
2A
CC
04
1C
18
ENDCHAR
STARTCHAR 1D8E
ENCODING 7566
SWIDTH 416 0
DWIDTH 5 0
BBX 4 9 0 -3
BITMAP
70
10
20
40
80
F0
10
60
60
ENDCHAR
STARTCHAR 1D8F
ENCODING 7567
SWIDTH 500 0
DWIDTH 6 0
BBX 7 9 0 -3
BITMAP
3C
48
48
D8
DC
F8
08
0A
06
ENDCHAR
STARTCHAR 1D90
ENCODING 7568
SWIDTH 500 0
DWIDTH 6 0
BBX 7 9 0 -3
BITMAP
3C
48
48
D8
DC
F8
08
0A
06
ENDCHAR
STARTCHAR 1D91
ENCODING 7569
SWIDTH 500 0
DWIDTH 6 0
BBX 8 12 0 -3
BITMAP
03
04
0C
3C
68
48
D8
D8
F0
10
10
18
ENDCHAR
STARTCHAR 1D92
ENCODING 7570
SWIDTH 416 0
DWIDTH 5 0
BBX 6 9 0 -3
BITMAP
18
68
50
E0
C8
70
10
14
1C
ENDCHAR
STARTCHAR 1D93
ENCODING 7571
SWIDTH 416 0
DWIDTH 5 0
BBX 6 9 0 -3
BITMAP
78
48
30
C0
C0
70
10
1C
18
ENDCHAR
STARTCHAR 1D94
ENCODING 7572
SWIDTH 416 0
DWIDTH 5 0
BBX 6 9 -1 -3
BITMAP
38
0C
30
08
18
70
80
A0
C0
ENDCHAR
STARTCHAR 1D95
ENCODING 7573
SWIDTH 416 0
DWIDTH 5 0
BBX 6 9 0 -3
BITMAP
38
18
18
78
98
E8
10
14
14
ENDCHAR
STARTCHAR 1D96
ENCODING 7574
SWIDTH 250 0
DWIDTH 3 0
BBX 4 12 0 -3
BITMAP
20
20
00
60
60
40
40
C0
E0
40
50
70
ENDCHAR
STARTCHAR 1D97
ENCODING 7575
SWIDTH 416 0
DWIDTH 5 0
BBX 6 9 -1 -3
BITMAP
1C
0C
0C
0C
68
50
A0
A0
60
ENDCHAR
STARTCHAR 1D98
ENCODING 7576
SWIDTH 333 0
DWIDTH 4 0
BBX 8 12 -2 -3
BITMAP
07
0D
08
08
18
18
18
10
50
E0
E0
C0
ENDCHAR
STARTCHAR 1D99
ENCODING 7577
SWIDTH 583 0
DWIDTH 7 0
BBX 7 9 0 -3
BITMAP
64
6C
6C
58
E8
DC
08
0A
06
ENDCHAR
STARTCHAR 1D9A
ENCODING 7578
SWIDTH 500 0
DWIDTH 6 0
BBX 7 9 -1 -3
BITMAP
3E
0C
18
0C
0C
08
F0
40
C0
ENDCHAR
STARTCHAR 1D9B
ENCODING 7579
SWIDTH 333 0
DWIDTH 4 0
BBX 3 3 1 3
BITMAP
A0
E0
C0
ENDCHAR
STARTCHAR 1D9C
ENCODING 7580
SWIDTH 250 0
DWIDTH 3 0
BBX 2 4 1 3
BITMAP
40
80
80
C0
ENDCHAR
STARTCHAR 1D9D
ENCODING 7581
SWIDTH 250 0
DWIDTH 3 0
BBX 3 4 1 2
BITMAP
40
A0
C0
C0
ENDCHAR
STARTCHAR 1D9E
ENCODING 7582
SWIDTH 250 0
DWIDTH 3 0
BBX 3 5 1 4
BITMAP
40
60
A0
C0
80
ENDCHAR
STARTCHAR 1D9F
ENCODING 7583
SWIDTH 250 0
DWIDTH 3 0
BBX 2 4 1 3
BITMAP
40
C0
40
80
ENDCHAR
STARTCHAR 1DA0
ENCODING 7584
SWIDTH 166 0
DWIDTH 2 0
BBX 5 7 -1 2
BITMAP
18
10
30
20
20
20
C0
ENDCHAR
STARTCHAR 1DA1
ENCODING 7585
SWIDTH 166 0
DWIDTH 2 0
BBX 2 6 0 1
BITMAP
40
40
40
C0
80
80
ENDCHAR
STARTCHAR 1DA2
ENCODING 7586
SWIDTH 250 0
DWIDTH 3 0
BBX 4 6 0 2
BITMAP
30
50
60
60
20
C0
ENDCHAR
STARTCHAR 1DA3
ENCODING 7587
SWIDTH 250 0
DWIDTH 3 0
BBX 3 5 1 1
BITMAP
A0
A0
E0
C0
40
ENDCHAR
STARTCHAR 1DA4
ENCODING 7588
SWIDTH 166 0
DWIDTH 2 0
BBX 2 6 1 3
BITMAP
40
00
80
80
80
80
ENDCHAR
STARTCHAR 1DA5
ENCODING 7589
SWIDTH 166 0
DWIDTH 2 0
BBX 1 4 1 3
BITMAP
80
80
80
80
ENDCHAR
STARTCHAR 1DA6
ENCODING 7590
SWIDTH 166 0
DWIDTH 2 0
BBX 3 4 0 3
BITMAP
60
40
40
C0
ENDCHAR
STARTCHAR 1DA7
ENCODING 7591
SWIDTH 166 0
DWIDTH 2 0
BBX 3 4 0 3
BITMAP
60
60
40
C0
ENDCHAR
STARTCHAR 1DA8
ENCODING 7592
SWIDTH 166 0
DWIDTH 2 0
BBX 3 6 0 2
BITMAP
20
00
40
40
40
C0
ENDCHAR
STARTCHAR 1DA9
ENCODING 7593
SWIDTH 166 0
DWIDTH 2 0
BBX 3 7 0 2
BITMAP
20
20
40
40
40
80
40
ENDCHAR
STARTCHAR 1DAA
ENCODING 7594
SWIDTH 166 0
DWIDTH 2 0
BBX 3 7 0 2
BITMAP
20
20
40
40
40
40
80
ENDCHAR
STARTCHAR 1DAB
ENCODING 7595
SWIDTH 250 0
DWIDTH 3 0
BBX 3 4 0 3
BITMAP
60
40
40
E0
ENDCHAR
STARTCHAR 1DAC
ENCODING 7596
SWIDTH 416 0
DWIDTH 5 0
BBX 5 6 1 1
BITMAP
20
F8
B0
D0
10
20
ENDCHAR
STARTCHAR 1DAD
ENCODING 7597
SWIDTH 416 0
DWIDTH 5 0
BBX 5 5 1 2
BITMAP
A8
A8
F0
10
10
ENDCHAR
STARTCHAR 1DAE
ENCODING 7598
SWIDTH 250 0
DWIDTH 3 0
BBX 5 6 -1 1
BITMAP
28
38
28
48
40
80
ENDCHAR
STARTCHAR 1DAF
ENCODING 7599
SWIDTH 250 0
DWIDTH 3 0
BBX 3 5 1 1
BITMAP
A0
E0
A0
C0
40
ENDCHAR
STARTCHAR 1DB0
ENCODING 7600
SWIDTH 333 0
DWIDTH 4 0
BBX 4 4 0 3
BITMAP
50
B0
A0
80
ENDCHAR
STARTCHAR 1DB1
ENCODING 7601
SWIDTH 333 0
DWIDTH 4 0
BBX 3 5 1 3
BITMAP
40
A0
E0
C0
80
ENDCHAR
STARTCHAR 1DB2
ENCODING 7602
SWIDTH 416 0
DWIDTH 5 0
BBX 4 7 1 2
BITMAP
20
20
F0
D0
E0
40
C0
ENDCHAR
STARTCHAR 1DB3
ENCODING 7603
SWIDTH 250 0
DWIDTH 3 0
BBX 3 5 0 1
BITMAP
20
40
20
C0
80
ENDCHAR
STARTCHAR 1DB4
ENCODING 7604
SWIDTH 166 0
DWIDTH 2 0
BBX 4 7 -1 2
BITMAP
10
10
20
20
20
20
C0
ENDCHAR
STARTCHAR 1DB5
ENCODING 7605
SWIDTH 166 0
DWIDTH 2 0
BBX 3 7 0 1
BITMAP
20
60
40
40
40
40
80
ENDCHAR
STARTCHAR 1DB6
ENCODING 7606
SWIDTH 333 0
DWIDTH 4 0
BBX 3 4 1 3
BITMAP
A0
E0
A0
A0
ENDCHAR
STARTCHAR 1DB7
ENCODING 7607
SWIDTH 333 0
DWIDTH 4 0
BBX 3 4 1 3
BITMAP
A0
A0
A0
40
ENDCHAR
STARTCHAR 1DB8
ENCODING 7608
SWIDTH 333 0
DWIDTH 4 0
BBX 4 4 1 3
BITMAP
F0
A0
A0
C0
ENDCHAR
STARTCHAR 1DB9
ENCODING 7609
SWIDTH 333 0
DWIDTH 4 0
BBX 3 4 1 3
BITMAP
A0
A0
A0
40
ENDCHAR
STARTCHAR 1DBA
ENCODING 7610
SWIDTH 250 0
DWIDTH 3 0
BBX 4 3 0 4
BITMAP
20
A0
30
ENDCHAR
STARTCHAR 1DBB
ENCODING 7611
SWIDTH 250 0
DWIDTH 3 0
BBX 2 5 1 3
BITMAP
C0
80
80
C0
40
ENDCHAR
STARTCHAR 1DBC
ENCODING 7612
SWIDTH 250 0
DWIDTH 3 0
BBX 2 5 1 1
BITMAP
C0
40
80
C0
40
ENDCHAR
STARTCHAR 1DBD
ENCODING 7613
SWIDTH 250 0
DWIDTH 3 0
BBX 2 4 1 2
BITMAP
C0
40
80
C0
ENDCHAR
STARTCHAR 1DBE
ENCODING 7614
SWIDTH 250 0
DWIDTH 3 0
BBX 3 6 1 2
BITMAP
E0
40
C0
40
40
80
ENDCHAR
STARTCHAR 1DBF
ENCODING 7615
SWIDTH 333 0
DWIDTH 4 0
BBX 4 6 0 3
BITMAP
30
50
70
50
A0
40
ENDCHAR
STARTCHAR 1DC0
ENCODING 7616
SWIDTH 0 0
DWIDTH 0 0
BBX 6 2 -2 7
BITMAP
7C
D4
ENDCHAR
STARTCHAR 1DC1
ENCODING 7617
SWIDTH 0 0
DWIDTH 0 0
BBX 5 2 -1 7
BITMAP
A8
D8
ENDCHAR
STARTCHAR 1DC2
ENCODING 7618
SWIDTH 0 0
DWIDTH 0 0
BBX 1 2 -2 -3
BITMAP
80
80
ENDCHAR
STARTCHAR 1DC3
ENCODING 7619
SWIDTH 0 0
DWIDTH 0 0
BBX 3 2 0 7
BITMAP
20
C0
ENDCHAR
STARTCHAR 1DC4
ENCODING 7620
SWIDTH 0 0
DWIDTH 0 0
BBX 3 2 0 8
BITMAP
20
C0
ENDCHAR
STARTCHAR 1DC5
ENCODING 7621
SWIDTH 0 0
DWIDTH 0 0
BBX 3 2 0 8
BITMAP
80
60
ENDCHAR
STARTCHAR 1DC6
ENCODING 7622
SWIDTH 0 0
DWIDTH 0 0
BBX 3 1 0 8
BITMAP
E0
ENDCHAR
STARTCHAR 1DC7
ENCODING 7623
SWIDTH 0 0
DWIDTH 0 0
BBX 3 1 0 8
BITMAP
E0
ENDCHAR
STARTCHAR 1DC8
ENCODING 7624
SWIDTH 0 0
DWIDTH 0 0
BBX 5 2 -1 7
BITMAP
80
78
ENDCHAR
STARTCHAR 1DC9
ENCODING 7625
SWIDTH 0 0
DWIDTH 0 0
BBX 4 2 -1 7
BITMAP
40
B0
ENDCHAR
STARTCHAR 1DCA
ENCODING 7626
SWIDTH 0 0
DWIDTH 0 0
BBX 2 3 -2 -2
BITMAP
C0
80
80
ENDCHAR
STARTCHAR 1DFE
ENCODING 7678
SWIDTH 0 0
DWIDTH 0 0
BBX 1 2 0 7
BITMAP
80
80
ENDCHAR
STARTCHAR 1DFF
ENCODING 7679
SWIDTH 0 0
DWIDTH 0 0
BBX 4 2 -3 -2
BITMAP
80
70
ENDCHAR
STARTCHAR 1E00
ENCODING 7680
SWIDTH 666 0
DWIDTH 8 0
BBX 7 12 0 -3
BITMAP
02
06
06
0E
16
26
3E
46
86
20
50
60
ENDCHAR
STARTCHAR 1E01
ENCODING 7681
SWIDTH 500 0
DWIDTH 6 0
BBX 6 9 0 -3
BITMAP
3C
68
48
D8
D8
F8
20
50
60
ENDCHAR
STARTCHAR 1E02
ENCODING 7682
SWIDTH 666 0
DWIDTH 8 0
BBX 7 11 1 0
BITMAP
08
08
7C
26
66
6C
70
4C
CC
CC
F8
ENDCHAR
STARTCHAR 1E03
ENCODING 7683
SWIDTH 500 0
DWIDTH 6 0
BBX 6 9 0 0
BITMAP
3C
2C
20
78
6C
4C
48
D8
F0
ENDCHAR
STARTCHAR 1E04
ENCODING 7684
SWIDTH 666 0
DWIDTH 8 0
BBX 7 12 1 -3
BITMAP
7C
26
66
6C
70
4C
CC
CC
F8
00
60
60
ENDCHAR
STARTCHAR 1E05
ENCODING 7685
SWIDTH 500 0
DWIDTH 6 0
BBX 6 12 0 -3
BITMAP
70
20
20
78
6C
4C
48
D8
F0
00
60
60
ENDCHAR
STARTCHAR 1E06
ENCODING 7686
SWIDTH 666 0
DWIDTH 8 0
BBX 7 11 1 -3
BITMAP
7C
26
66
6C
70
4C
CC
CC
F8
00
F0
ENDCHAR
STARTCHAR 1E07
ENCODING 7687
SWIDTH 500 0
DWIDTH 6 0
BBX 6 10 0 -2
BITMAP
70
20
20
78
6C
4C
48
D8
F0
F0
ENDCHAR
STARTCHAR 1E08
ENCODING 7688
SWIDTH 666 0
DWIDTH 8 0
BBX 8 15 1 -3
BITMAP
06
04
00
1F
20
60
C0
C0
C0
C0
C4
78
30
10
60
ENDCHAR
STARTCHAR 1E09
ENCODING 7689
SWIDTH 416 0
DWIDTH 5 0
BBX 5 12 0 -3
BITMAP
08
08
00
38
48
40
C0
C8
70
60
20
40
ENDCHAR
STARTCHAR 1E0A
ENCODING 7690
SWIDTH 750 0
DWIDTH 9 0
BBX 8 11 0 0
BITMAP
0C
0C
3E
33
33
33
33
63
63
66
F8
ENDCHAR
STARTCHAR 1E0B
ENCODING 7691
SWIDTH 500 0
DWIDTH 6 0
BBX 6 9 0 0
BITMAP
34
34
0C
3C
68
48
D8
DC
F8
ENDCHAR
STARTCHAR 1E0C
ENCODING 7692
SWIDTH 750 0
DWIDTH 9 0
BBX 8 12 0 -3
BITMAP
3E
33
33
33
33
63
63
66
F8
00
30
30
ENDCHAR
STARTCHAR 1E0D
ENCODING 7693
SWIDTH 500 0
DWIDTH 6 0
BBX 6 12 0 -3
BITMAP
0C
04
0C
3C
68
48
D8
DC
F8
00
60
60
ENDCHAR
STARTCHAR 1E0E
ENCODING 7694
SWIDTH 750 0
DWIDTH 9 0
BBX 8 11 0 -3
BITMAP
3E
33
33
33
33
63
63
66
F8
00
3C
ENDCHAR
STARTCHAR 1E0F
ENCODING 7695
SWIDTH 500 0
DWIDTH 6 0
BBX 6 10 0 -2
BITMAP
0C
04
0C
3C
68
48
D8
DC
F8
F0
ENDCHAR
STARTCHAR 1E10
ENCODING 7696
SWIDTH 750 0
DWIDTH 9 0
BBX 8 11 0 -4
BITMAP
3E
33
33
33
33
63
63
66
F8
00
10
ENDCHAR
STARTCHAR 1E11
ENCODING 7697
SWIDTH 500 0
DWIDTH 6 0
BBX 6 11 0 -4
BITMAP
0C
04
0C
3C
68
48
D8
DC
F8
00
60
ENDCHAR
STARTCHAR 1E12
ENCODING 7698
SWIDTH 750 0
DWIDTH 9 0
BBX 8 12 0 -3
BITMAP
3E
33
33
33
33
63
63
66
F8
00
30
48
ENDCHAR
STARTCHAR 1E13
ENCODING 7699
SWIDTH 500 0
DWIDTH 6 0
BBX 6 12 0 -3
BITMAP
0C
04
0C
3C
68
48
D8
DC
F8
00
60
80
ENDCHAR
STARTCHAR 1E14
ENCODING 7700
SWIDTH 666 0
DWIDTH 8 0
BBX 7 12 1 0
BITMAP
08
00
1C
3E
22
62
60
78
C8
C0
C4
FC
ENDCHAR
STARTCHAR 1E15
ENCODING 7701
SWIDTH 416 0
DWIDTH 5 0
BBX 6 11 0 0
BITMAP
10
08
00
3C
00
18
68
50
E0
C8
70
ENDCHAR
STARTCHAR 1E16
ENCODING 7702
SWIDTH 666 0
DWIDTH 8 0
BBX 7 12 1 0
BITMAP
04
00
1C
3E
22
62
60
78
C8
C0
C4
FC
ENDCHAR
STARTCHAR 1E17
ENCODING 7703
SWIDTH 416 0
DWIDTH 5 0
BBX 6 11 0 0
BITMAP
08
00
00
3C
00
18
68
50
E0
C8
70
ENDCHAR
STARTCHAR 1E18
ENCODING 7704
SWIDTH 666 0
DWIDTH 8 0
BBX 7 12 1 -3
BITMAP
3E
22
62
60
78
C8
C0
C4
FC
00
60
90
ENDCHAR
STARTCHAR 1E19
ENCODING 7705
SWIDTH 416 0
DWIDTH 5 0
BBX 5 9 0 -3
BITMAP
18
68
50
E0
C8
70
00
E0
20
ENDCHAR
STARTCHAR 1E1A
ENCODING 7706
SWIDTH 666 0
DWIDTH 8 0
BBX 7 12 1 -3
BITMAP
3E
22
62
60
78
C8
C0
C4
FC
00
60
B0
ENDCHAR
STARTCHAR 1E1B
ENCODING 7707
SWIDTH 416 0
DWIDTH 5 0
BBX 5 9 0 -3
BITMAP
18
68
50
E0
C8
70
00
C0
60
ENDCHAR
STARTCHAR 1E1C
ENCODING 7708
SWIDTH 666 0
DWIDTH 8 0
BBX 8 14 0 -2
BITMAP
0E
00
3F
11
31
30
3C
64
60
62
FE
20
10
20
ENDCHAR
STARTCHAR 1E1D
ENCODING 7709
SWIDTH 416 0
DWIDTH 5 0
BBX 6 12 0 -3
BITMAP
04
18
00
18
68
50
E0
C8
70
40
20
C0
ENDCHAR
STARTCHAR 1E1E
ENCODING 7710
SWIDTH 666 0
DWIDTH 8 0
BBX 8 11 1 0
BITMAP
08
08
37
32
20
64
78
60
40
C0
C0
ENDCHAR
STARTCHAR 1E1F
ENCODING 7711
SWIDTH 333 0
DWIDTH 4 0
BBX 8 14 -2 -3
BITMAP
03
03
07
05
08
1C
18
18
18
10
10
30
20
C0
ENDCHAR
STARTCHAR 1E20
ENCODING 7712
SWIDTH 750 0
DWIDTH 9 0
BBX 8 11 1 0
BITMAP
0F
00
1F
21
60
C0
CF
C6
C4
CC
6C
ENDCHAR
STARTCHAR 1E21
ENCODING 7713
SWIDTH 500 0
DWIDTH 6 0
BBX 7 11 -1 -3
BITMAP
1E
00
1E
24
24
18
20
38
5C
8C
68
ENDCHAR
STARTCHAR 1E22
ENCODING 7714
SWIDTH 750 0
DWIDTH 9 0
BBX 10 11 0 0
BITMAP
0600
0600
39C0
3180
3180
3100
3F00
6300
6300
6200
E600
ENDCHAR
STARTCHAR 1E23
ENCODING 7715
SWIDTH 583 0
DWIDTH 7 0
BBX 6 12 0 0
BITMAP
0C
0C
00
30
30
20
2C
7C
6C
48
48
C8
ENDCHAR
STARTCHAR 1E24
ENCODING 7716
SWIDTH 750 0
DWIDTH 9 0
BBX 10 12 0 -3
BITMAP
39C0
3180
3180
3100
3F00
6300
6300
6200
E600
0000
1800
1000
ENDCHAR
STARTCHAR 1E25
ENCODING 7717
SWIDTH 583 0
DWIDTH 7 0
BBX 6 12 0 -3
BITMAP
30
30
20
2C
7C
6C
48
48
D8
00
60
20
ENDCHAR
STARTCHAR 1E26
ENCODING 7718
SWIDTH 750 0
DWIDTH 9 0
BBX 10 11 0 0
BITMAP
0D00
0500
39C0
3180
3180
3100
3F00
6300
6300
6200
E600
ENDCHAR
STARTCHAR 1E27
ENCODING 7719
SWIDTH 583 0
DWIDTH 7 0
BBX 7 12 0 0
BITMAP
14
16
00
30
30
20
2C
7C
6C
48
48
C8
ENDCHAR
STARTCHAR 1E28
ENCODING 7720
SWIDTH 750 0
DWIDTH 9 0
BBX 10 12 0 -3
BITMAP
39C0
3180
3180
3100
3F00
6300
6300
6200
E600
2000
1000
6000
ENDCHAR
STARTCHAR 1E29
ENCODING 7721
SWIDTH 583 0
DWIDTH 7 0
BBX 7 12 -1 -3
BITMAP
18
18
10
16
3E
36
24
24
6C
40
20
C0
ENDCHAR
STARTCHAR 1E2A
ENCODING 7722
SWIDTH 750 0
DWIDTH 9 0
BBX 10 12 0 -3
BITMAP
39C0
3180
3180
3100
3F00
6300
6300
6200
E600
0000
2800
3000
ENDCHAR
STARTCHAR 1E2B
ENCODING 7723
SWIDTH 583 0
DWIDTH 7 0
BBX 6 12 0 -3
BITMAP
30
30
20
2C
7C
6C
48
48
D8
00
50
60
ENDCHAR
STARTCHAR 1E2C
ENCODING 7724
SWIDTH 416 0
DWIDTH 5 0
BBX 6 12 -1 -3
BITMAP
1C
18
18
18
18
30
30
30
70
00
60
B0
ENDCHAR
STARTCHAR 1E2D
ENCODING 7725
SWIDTH 250 0
DWIDTH 3 0
BBX 4 12 -1 -3
BITMAP
10
10
00
30
30
20
20
60
60
00
D0
A0
ENDCHAR
STARTCHAR 1E2E
ENCODING 7726
SWIDTH 416 0
DWIDTH 5 0
BBX 5 12 0 0
BITMAP
08
00
28
38
30
30
30
30
60
60
60
E0
ENDCHAR
STARTCHAR 1E2F
ENCODING 7727
SWIDTH 250 0
DWIDTH 3 0
BBX 4 11 0 0
BITMAP
10
00
50
50
00
60
60
40
40
C0
C0
ENDCHAR
STARTCHAR 1E30
ENCODING 7728
SWIDTH 666 0
DWIDTH 8 0
BBX 8 12 0 0
BITMAP
02
04
00
3B
32
34
38
38
6C
6C
64
EE
ENDCHAR
STARTCHAR 1E31
ENCODING 7729
SWIDTH 500 0
DWIDTH 6 0
BBX 6 12 0 0
BITMAP
04
08
00
30
30
20
28
70
50
70
DC
D8
ENDCHAR
STARTCHAR 1E32
ENCODING 7730
SWIDTH 666 0
DWIDTH 8 0
BBX 8 12 0 -3
BITMAP
3B
32
34
38
38
6C
6C
64
EE
00
30
30
ENDCHAR
STARTCHAR 1E33
ENCODING 7731
SWIDTH 500 0
DWIDTH 6 0
BBX 6 12 0 -3
BITMAP
30
30
20
28
70
50
70
DC
D8
00
60
60
ENDCHAR
STARTCHAR 1E34
ENCODING 7732
SWIDTH 666 0
DWIDTH 8 0
BBX 8 11 0 -3
BITMAP
3B
32
34
38
38
6C
6C
64
EE
00
78
ENDCHAR
STARTCHAR 1E35
ENCODING 7733
SWIDTH 500 0
DWIDTH 6 0
BBX 6 11 0 -3
BITMAP
30
30
20
28
70
50
70
DC
D8
00
F0
ENDCHAR
STARTCHAR 1E36
ENCODING 7734
SWIDTH 583 0
DWIDTH 7 0
BBX 7 12 0 -3
BITMAP
38
30
30
30
30
60
60
62
FC
00
30
30
ENDCHAR
STARTCHAR 1E37
ENCODING 7735
SWIDTH 250 0
DWIDTH 3 0
BBX 4 12 0 -3
BITMAP
70
20
20
60
60
40
40
E0
C0
00
C0
80
ENDCHAR
STARTCHAR 1E38
ENCODING 7736
SWIDTH 583 0
DWIDTH 7 0
BBX 8 14 0 -3
BITMAP
0F
00
38
30
30
30
30
60
60
62
FC
00
30
30
ENDCHAR
STARTCHAR 1E39
ENCODING 7737
SWIDTH 250 0
DWIDTH 3 0
BBX 5 14 0 -3
BITMAP
78
00
70
20
20
60
60
40
40
E0
C0
00
C0
80
ENDCHAR
STARTCHAR 1E3A
ENCODING 7738
SWIDTH 583 0
DWIDTH 7 0
BBX 7 11 0 -3
BITMAP
38
30
30
30
30
60
60
62
FC
00
78
ENDCHAR
STARTCHAR 1E3B
ENCODING 7739
SWIDTH 250 0
DWIDTH 3 0
BBX 5 10 -1 -2
BITMAP
38
10
10
30
30
20
20
70
60
F0
ENDCHAR
STARTCHAR 1E3C
ENCODING 7740
SWIDTH 583 0
DWIDTH 7 0
BBX 7 12 0 -3
BITMAP
38
30
30
30
30
60
60
62
FC
00
30
48
ENDCHAR
STARTCHAR 1E3D
ENCODING 7741
SWIDTH 250 0
DWIDTH 3 0
BBX 5 12 -1 -3
BITMAP
38
10
10
30
30
20
20
60
60
00
E0
20
ENDCHAR
STARTCHAR 1E3E
ENCODING 7742
SWIDTH 916 0
DWIDTH 11 0
BBX 11 12 0 0
BITMAP
0180
0300
0200
3860
18C0
39C0
5AC0
5AC0
5D80
5980
8980
C380
ENDCHAR
STARTCHAR 1E3F
ENCODING 7743
SWIDTH 750 0
DWIDTH 9 0
BBX 9 9 0 0
BITMAP
0600
0400
0000
6D80
7F80
6D00
4B00
DB80
DB00
ENDCHAR
STARTCHAR 1E40
ENCODING 7744
SWIDTH 916 0
DWIDTH 11 0
BBX 11 11 0 0
BITMAP
0200
0200
3860
18C0
39C0
5AC0
5AC0
5D80
5980
8980
C380
ENDCHAR
STARTCHAR 1E41
ENCODING 7745
SWIDTH 750 0
DWIDTH 9 0
BBX 9 9 0 0
BITMAP
0400
0400
0000
6D80
7F80
6D00
4900
DB80
DB00
ENDCHAR
STARTCHAR 1E42
ENCODING 7746
SWIDTH 916 0
DWIDTH 11 0
BBX 11 12 0 -3
BITMAP
3860
18C0
39C0
5AC0
5AC0
5D80
5980
8980
C380
0000
1000
1000
ENDCHAR
STARTCHAR 1E43
ENCODING 7747
SWIDTH 750 0
DWIDTH 9 0
BBX 9 9 0 -3
BITMAP
6D80
7F80
6D00
4900
DB80
DB00
0000
1000
1000
ENDCHAR
STARTCHAR 1E44
ENCODING 7748
SWIDTH 750 0
DWIDTH 9 0
BBX 9 12 0 0
BITMAP
0600
0600
0000
3080
1900
3900
4D00
4D00
4600
4600
8200
C200
ENDCHAR
STARTCHAR 1E45
ENCODING 7749
SWIDTH 583 0
DWIDTH 7 0
BBX 6 9 0 0
BITMAP
08
08
00
6C
7C
6C
48
48
C8
ENDCHAR
STARTCHAR 1E46
ENCODING 7750
SWIDTH 750 0
DWIDTH 9 0
BBX 9 12 0 -3
BITMAP
3080
1900
3900
4D00
4D00
4600
4600
8200
C200
0000
1000
1000
ENDCHAR
STARTCHAR 1E47
ENCODING 7751
SWIDTH 583 0
DWIDTH 7 0
BBX 6 9 0 -3
BITMAP
6C
7C
6C
48
48
D8
00
60
60
ENDCHAR
STARTCHAR 1E48
ENCODING 7752
SWIDTH 750 0
DWIDTH 9 0
BBX 9 11 0 -3
BITMAP
3080
1900
3900
4D00
4D00
4600
4600
8200
C200
0000
7C00
ENDCHAR
STARTCHAR 1E49
ENCODING 7753
SWIDTH 583 0
DWIDTH 7 0
BBX 6 8 0 -3
BITMAP
6C
7C
6C
48
48
D8
00
F0
ENDCHAR
STARTCHAR 1E4A
ENCODING 7754
SWIDTH 750 0
DWIDTH 9 0
BBX 9 12 0 -3
BITMAP
3080
1900
3900
4D00
4D00
4600
4600
8200
C200
0000
3800
0800
ENDCHAR
STARTCHAR 1E4B
ENCODING 7755
SWIDTH 583 0
DWIDTH 7 0
BBX 6 9 0 -3
BITMAP
6C
7C
6C
48
48
D8
00
60
90
ENDCHAR
STARTCHAR 1E4C
ENCODING 7756
SWIDTH 750 0
DWIDTH 9 0
BBX 8 12 1 0
BITMAP
04
08
04
1C
22
63
C3
C6
C6
C4
CC
70
ENDCHAR
STARTCHAR 1E4D
ENCODING 7757
SWIDTH 500 0
DWIDTH 6 0
BBX 6 11 0 0
BITMAP
0C
08
14
3C
00
38
6C
4C
C8
D8
50
ENDCHAR
STARTCHAR 1E4E
ENCODING 7758
SWIDTH 750 0
DWIDTH 9 0
BBX 8 12 1 0
BITMAP
0A
08
04
1C
22
63
C3
C6
C6
C4
CC
70
ENDCHAR
STARTCHAR 1E4F
ENCODING 7759
SWIDTH 500 0
DWIDTH 6 0
BBX 6 11 0 0
BITMAP
14
14
14
3C
00
38
6C
4C
C8
D8
50
ENDCHAR
STARTCHAR 1E50
ENCODING 7760
SWIDTH 750 0
DWIDTH 9 0
BBX 8 12 1 0
BITMAP
04
00
0C
1C
22
63
C3
C6
C6
C4
CC
70
ENDCHAR
STARTCHAR 1E51
ENCODING 7761
SWIDTH 500 0
DWIDTH 6 0
BBX 6 11 0 0
BITMAP
10
08
00
3C
00
38
6C
4C
C8
D8
50
ENDCHAR
STARTCHAR 1E52
ENCODING 7762
SWIDTH 750 0
DWIDTH 9 0
BBX 8 12 1 0
BITMAP
04
00
0C
1C
22
63
C3
C6
C6
C4
CC
70
ENDCHAR
STARTCHAR 1E53
ENCODING 7763
SWIDTH 500 0
DWIDTH 6 0
BBX 6 11 0 0
BITMAP
0C
08
00
3C
00
38
6C
4C
C8
D8
50
ENDCHAR
STARTCHAR 1E54
ENCODING 7764
SWIDTH 583 0
DWIDTH 7 0
BBX 7 12 1 0
BITMAP
0C
08
00
3C
26
66
6C
78
40
C0
C0
C0
ENDCHAR
STARTCHAR 1E55
ENCODING 7765
SWIDTH 500 0
DWIDTH 6 0
BBX 7 12 -1 -3
BITMAP
06
04
00
3C
36
26
24
6C
68
50
40
C0
ENDCHAR
STARTCHAR 1E56
ENCODING 7766
SWIDTH 583 0
DWIDTH 7 0
BBX 7 11 1 0
BITMAP
08
08
3C
26
66
6C
78
40
C0
C0
C0
ENDCHAR
STARTCHAR 1E57
ENCODING 7767
SWIDTH 500 0
DWIDTH 6 0
BBX 7 12 -1 -3
BITMAP
0C
08
00
3C
36
26
24
6C
68
50
40
C0
ENDCHAR
STARTCHAR 1E58
ENCODING 7768
SWIDTH 666 0
DWIDTH 8 0
BBX 7 11 1 0
BITMAP
08
08
7C
26
66
6C
78
D8
D8
C8
CC
ENDCHAR
STARTCHAR 1E59
ENCODING 7769
SWIDTH 416 0
DWIDTH 5 0
BBX 5 9 0 0
BITMAP
10
10
00
78
78
60
40
40
C0
ENDCHAR
STARTCHAR 1E5A
ENCODING 7770
SWIDTH 666 0
DWIDTH 8 0
BBX 7 12 1 -3
BITMAP
7C
26
66
6C
78
D8
D8
C8
CC
00
60
20
ENDCHAR
STARTCHAR 1E5B
ENCODING 7771
SWIDTH 416 0
DWIDTH 5 0
BBX 5 9 0 -3
BITMAP
78
58
60
40
40
C0
00
C0
80
ENDCHAR
STARTCHAR 1E5C
ENCODING 7772
SWIDTH 666 0
DWIDTH 8 0
BBX 7 14 1 -3
BITMAP
3E
00
7C
26
66
6C
78
D8
D8
C8
CC
00
60
20
ENDCHAR
STARTCHAR 1E5D
ENCODING 7773
SWIDTH 416 0
DWIDTH 5 0
BBX 5 11 0 -3
BITMAP
78
00
78
78
60
40
40
C0
00
C0
80
ENDCHAR
STARTCHAR 1E5E
ENCODING 7774
SWIDTH 666 0
DWIDTH 8 0
BBX 7 11 1 -3
BITMAP
7C
26
66
6C
78
D8
D8
C8
CC
00
F0
ENDCHAR
STARTCHAR 1E5F
ENCODING 7775
SWIDTH 416 0
DWIDTH 5 0
BBX 6 8 -1 -3
BITMAP
3C
2C
30
20
20
60
00
F0
ENDCHAR
STARTCHAR 1E60
ENCODING 7776
SWIDTH 583 0
DWIDTH 7 0
BBX 7 12 0 0
BITMAP
0C
0C
00
3E
22
20
30
18
1C
8C
8C
F8
ENDCHAR
STARTCHAR 1E61
ENCODING 7777
SWIDTH 416 0
DWIDTH 5 0
BBX 4 9 0 0
BITMAP
30
30
00
70
40
60
30
90
A0
ENDCHAR
STARTCHAR 1E62
ENCODING 7778
SWIDTH 583 0
DWIDTH 7 0
BBX 7 12 0 -3
BITMAP
3E
22
20
30
18
1C
8C
8C
F8
00
60
20
ENDCHAR
STARTCHAR 1E63
ENCODING 7779
SWIDTH 416 0
DWIDTH 5 0
BBX 4 9 0 -3
BITMAP
70
40
60
30
90
A0
40
40
40
ENDCHAR
STARTCHAR 1E64
ENCODING 7780
SWIDTH 583 0
DWIDTH 7 0
BBX 7 12 0 0
BITMAP
04
08
00
3E
22
20
30
18
1C
8C
8C
F8
ENDCHAR
STARTCHAR 1E65
ENCODING 7781
SWIDTH 416 0
DWIDTH 5 0
BBX 5 11 0 0
BITMAP
18
18
18
10
20
50
40
60
30
90
A0
ENDCHAR
STARTCHAR 1E66
ENCODING 7782
SWIDTH 583 0
DWIDTH 7 0
BBX 7 10 0 2
BITMAP
08
3E
22
20
30
18
1C
8C
8C
F8
ENDCHAR
STARTCHAR 1E67
ENCODING 7783
SWIDTH 416 0
DWIDTH 5 0
BBX 5 11 0 0
BITMAP
18
10
28
30
00
70
40
60
30
90
A0
ENDCHAR
STARTCHAR 1E68
ENCODING 7784
SWIDTH 583 0
DWIDTH 7 0
BBX 7 14 0 -3
BITMAP
0C
0C
3E
22
20
30
18
1C
8C
8C
F8
00
60
20
ENDCHAR
STARTCHAR 1E69
ENCODING 7785
SWIDTH 416 0
DWIDTH 5 0
BBX 4 12 0 -3
BITMAP
30
30
00
70
40
60
30
90
A0
40
40
40
ENDCHAR
STARTCHAR 1E6A
ENCODING 7786
SWIDTH 583 0
DWIDTH 7 0
BBX 6 11 2 0
BITMAP
10
10
FC
34
20
60
60
60
40
C0
C0
ENDCHAR
STARTCHAR 1E6B
ENCODING 7787
SWIDTH 250 0
DWIDTH 3 0
BBX 4 12 0 0
BITMAP
10
10
00
00
00
20
70
60
40
40
C0
C0
ENDCHAR
STARTCHAR 1E6C
ENCODING 7788
SWIDTH 583 0
DWIDTH 7 0
BBX 6 12 2 -3
BITMAP
FC
34
20
60
60
60
40
C0
C0
00
C0
80
ENDCHAR
STARTCHAR 1E6D
ENCODING 7789
SWIDTH 250 0
DWIDTH 3 0
BBX 4 10 0 -2
BITMAP
20
70
60
40
40
C0
C0
00
C0
80
ENDCHAR
STARTCHAR 1E6E
ENCODING 7790
SWIDTH 583 0
DWIDTH 7 0
BBX 7 11 1 -3
BITMAP
7E
1A
10
30
30
30
20
60
60
00
F0
ENDCHAR
STARTCHAR 1E6F
ENCODING 7791
SWIDTH 250 0
DWIDTH 3 0
BBX 5 8 -1 -1
BITMAP
10
38
30
20
20
60
60
F0
ENDCHAR
STARTCHAR 1E70
ENCODING 7792
SWIDTH 583 0
DWIDTH 7 0
BBX 7 12 1 -3
BITMAP
7E
1A
10
30
30
30
20
60
60
00
E0
A0
ENDCHAR
STARTCHAR 1E71
ENCODING 7793
SWIDTH 250 0
DWIDTH 3 0
BBX 5 10 -1 -2
BITMAP
10
38
30
20
20
60
60
00
E0
20
ENDCHAR
STARTCHAR 1E72
ENCODING 7794
SWIDTH 750 0
DWIDTH 9 0
BBX 8 12 1 -3
BITMAP
73
62
62
62
42
C4
C4
C4
78
00
50
50
ENDCHAR
STARTCHAR 1E73
ENCODING 7795
SWIDTH 583 0
DWIDTH 7 0
BBX 6 9 0 -3
BITMAP
64
6C
6C
58
E8
D8
00
50
D0
ENDCHAR
STARTCHAR 1E74
ENCODING 7796
SWIDTH 750 0
DWIDTH 9 0
BBX 8 12 1 -3
BITMAP
73
62
62
62
42
C4
C4
C4
78
00
60
B0
ENDCHAR
STARTCHAR 1E75
ENCODING 7797
SWIDTH 583 0
DWIDTH 7 0
BBX 6 9 0 -3
BITMAP
64
6C
6C
58
E8
D8
00
70
B0
ENDCHAR
STARTCHAR 1E76
ENCODING 7798
SWIDTH 750 0
DWIDTH 9 0
BBX 8 12 1 -3
BITMAP
73
62
62
62
42
C4
C4
C4
78
20
60
90
ENDCHAR
STARTCHAR 1E77
ENCODING 7799
SWIDTH 583 0
DWIDTH 7 0
BBX 6 9 0 -3
BITMAP
64
6C
6C
58
E8
D8
00
60
90
ENDCHAR
STARTCHAR 1E78
ENCODING 7800
SWIDTH 750 0
DWIDTH 9 0
BBX 8 12 1 0
BITMAP
04
08
04
73
62
62
62
42
C4
C4
C4
78
ENDCHAR
STARTCHAR 1E79
ENCODING 7801
SWIDTH 583 0
DWIDTH 7 0
BBX 6 11 0 0
BITMAP
0C
08
14
3C
00
64
6C
6C
58
E8
D8
ENDCHAR
STARTCHAR 1E7A
ENCODING 7802
SWIDTH 750 0
DWIDTH 9 0
BBX 8 12 1 0
BITMAP
0A
00
0E
71
62
62
62
42
C4
C4
C4
78
ENDCHAR
STARTCHAR 1E7B
ENCODING 7803
SWIDTH 583 0
DWIDTH 7 0
BBX 6 11 0 0
BITMAP
14
14
00
3C
00
64
6C
6C
58
E8
D8
ENDCHAR
STARTCHAR 1E7C
ENCODING 7804
SWIDTH 666 0
DWIDTH 8 0
BBX 7 12 2 0
BITMAP
34
18
00
C2
C4
C8
D0
D0
E0
C0
80
80
ENDCHAR
STARTCHAR 1E7D
ENCODING 7805
SWIDTH 416 0
DWIDTH 5 0
BBX 5 9 0 0
BITMAP
30
18
00
C8
68
68
70
60
40
ENDCHAR
STARTCHAR 1E7E
ENCODING 7806
SWIDTH 666 0
DWIDTH 8 0
BBX 8 12 1 -3
BITMAP
61
62
64
68
68
70
60
40
40
00
C0
C0
ENDCHAR
STARTCHAR 1E7F
ENCODING 7807
SWIDTH 416 0
DWIDTH 5 0
BBX 5 9 0 -3
BITMAP
C8
68
68
70
60
40
00
C0
C0
ENDCHAR
STARTCHAR 1E80
ENCODING 7808
SWIDTH 916 0
DWIDTH 11 0
BBX 9 12 2 0
BITMAP
0800
0000
0000
CC80
CC80
CD00
DE00
EA00
CC00
C800
8800
1000
ENDCHAR
STARTCHAR 1E81
ENCODING 7809
SWIDTH 666 0
DWIDTH 8 0
BBX 7 9 1 0
BITMAP
10
08
00
82
D2
F2
DC
98
90
ENDCHAR
STARTCHAR 1E82
ENCODING 7810
SWIDTH 916 0
DWIDTH 11 0
BBX 9 12 2 0
BITMAP
0600
0400
0000
CC80
CC80
CD00
DE00
EA00
CC00
C800
8800
1000
ENDCHAR
STARTCHAR 1E83
ENCODING 7811
SWIDTH 666 0
DWIDTH 8 0
BBX 7 9 1 0
BITMAP
08
08
00
82
D2
F2
DC
98
90
ENDCHAR
STARTCHAR 1E84
ENCODING 7812
SWIDTH 916 0
DWIDTH 11 0
BBX 9 12 2 0
BITMAP
1200
1E00
0000
CC80
CC80
CD00
DE00
EA00
CC00
C800
8800
1000
ENDCHAR
STARTCHAR 1E85
ENCODING 7813
SWIDTH 666 0
DWIDTH 8 0
BBX 7 9 1 0
BITMAP
3C
24
00
82
D2
F2
DC
98
90
ENDCHAR
STARTCHAR 1E86
ENCODING 7814
SWIDTH 916 0
DWIDTH 11 0
BBX 9 12 2 0
BITMAP
0C00
0C00
0000
CC80
CC80
CD00
DE00
EA00
CC00
C800
8800
1000
ENDCHAR
STARTCHAR 1E87
ENCODING 7815
SWIDTH 666 0
DWIDTH 8 0
BBX 7 9 1 0
BITMAP
18
18
00
82
D2
F2
DC
98
90
ENDCHAR
STARTCHAR 1E88
ENCODING 7816
SWIDTH 916 0
DWIDTH 11 0
BBX 9 12 2 -3
BITMAP
CC80
CC80
CD00
DE00
EA00
CC00
C800
8800
1000
0000
4000
4000
ENDCHAR
STARTCHAR 1E89
ENCODING 7817
SWIDTH 666 0
DWIDTH 8 0
BBX 7 9 1 -3
BITMAP
82
D2
F2
DC
98
90
00
60
60
ENDCHAR
STARTCHAR 1E8A
ENCODING 7818
SWIDTH 666 0
DWIDTH 8 0
BBX 9 11 0 0
BITMAP
0400
0400
3180
3200
1A00
1C00
1800
1C00
2C00
4400
C600
ENDCHAR
STARTCHAR 1E8B
ENCODING 7819
SWIDTH 500 0
DWIDTH 6 0
BBX 7 9 -1 0
BITMAP
0C
0C
00
36
18
18
18
2A
CC
ENDCHAR
STARTCHAR 1E8C
ENCODING 7820
SWIDTH 666 0
DWIDTH 8 0
BBX 9 11 0 0
BITMAP
0B00
0A00
3180
3200
1A00
1C00
1800
1C00
2C00
4400
C600
ENDCHAR
STARTCHAR 1E8D
ENCODING 7821
SWIDTH 500 0
DWIDTH 6 0
BBX 7 9 -1 0
BITMAP
16
14
00
36
18
18
18
2A
CC
ENDCHAR
STARTCHAR 1E8E
ENCODING 7822
SWIDTH 583 0
DWIDTH 7 0
BBX 6 11 2 0
BITMAP
10
10
C4
C8
48
70
60
60
60
40
C0
ENDCHAR
STARTCHAR 1E8F
ENCODING 7823
SWIDTH 416 0
DWIDTH 5 0
BBX 6 12 -1 -3
BITMAP
0C
08
00
24
34
34
38
38
30
20
A0
C0
ENDCHAR
STARTCHAR 1E90
ENCODING 7824
SWIDTH 583 0
DWIDTH 7 0
BBX 8 12 0 0
BITMAP
04
0A
12
3F
06
0E
0C
18
30
72
64
DC
ENDCHAR
STARTCHAR 1E91
ENCODING 7825
SWIDTH 416 0
DWIDTH 5 0
BBX 5 10 0 -1
BITMAP
18
28
00
70
10
20
40
80
D0
20
ENDCHAR
STARTCHAR 1E92
ENCODING 7826
SWIDTH 583 0
DWIDTH 7 0
BBX 8 12 0 -3
BITMAP
3F
06
0E
0C
18
30
72
64
DC
20
30
30
ENDCHAR
STARTCHAR 1E93
ENCODING 7827
SWIDTH 416 0
DWIDTH 5 0
BBX 5 9 -1 -3
BITMAP
38
08
10
20
40
68
28
D0
C0
ENDCHAR
STARTCHAR 1E94
ENCODING 7828
SWIDTH 583 0
DWIDTH 7 0
BBX 8 11 0 -3
BITMAP
3F
06
0E
0C
18
30
72
64
DC
20
78
ENDCHAR
STARTCHAR 1E95
ENCODING 7829
SWIDTH 416 0
DWIDTH 5 0
BBX 5 8 -1 -3
BITMAP
38
08
10
20
40
68
10
F8
ENDCHAR
STARTCHAR 1E96
ENCODING 7830
SWIDTH 583 0
DWIDTH 7 0
BBX 6 11 0 -3
BITMAP
30
30
20
2C
7C
6C
48
48
D8
00
F0
ENDCHAR
STARTCHAR 1E97
ENCODING 7831
SWIDTH 250 0
DWIDTH 3 0
BBX 5 12 0 0
BITMAP
28
68
00
00
00
20
70
60
40
40
C0
C0
ENDCHAR
STARTCHAR 1E98
ENCODING 7832
SWIDTH 666 0
DWIDTH 8 0
BBX 7 9 1 0
BITMAP
18
28
18
82
D2
F2
DC
98
90
ENDCHAR
STARTCHAR 1E99
ENCODING 7833
SWIDTH 416 0
DWIDTH 5 0
BBX 6 12 -1 -3
BITMAP
0C
14
08
24
34
34
38
38
30
20
A0
C0
ENDCHAR
STARTCHAR 1E9A
ENCODING 7834
SWIDTH 500 0
DWIDTH 6 0
BBX 6 9 0 0
BITMAP
10
08
10
2C
68
48
D8
DC
F8
ENDCHAR
STARTCHAR 1E9B
ENCODING 7835
SWIDTH 333 0
DWIDTH 4 0
BBX 8 14 -2 -3
BITMAP
03
03
03
05
0C
08
18
18
18
10
10
30
20
C0
ENDCHAR
STARTCHAR 1E9C
ENCODING 7836
SWIDTH 333 0
DWIDTH 4 0
BBX 8 12 -2 -3
BITMAP
07
05
08
18
1C
18
38
10
10
30
20
A0
ENDCHAR
STARTCHAR 1E9D
ENCODING 7837
SWIDTH 333 0
DWIDTH 4 0
BBX 8 12 -2 -3
BITMAP
03
05
1E
08
18
18
18
10
10
30
20
A0
ENDCHAR
STARTCHAR 1E9E
ENCODING 7838
SWIDTH 750 0
DWIDTH 9 0
BBX 9 9 0 0
BITMAP
0F00
1980
3300
3600
3300
6100
6300
6300
FE00
ENDCHAR
STARTCHAR 1E9F
ENCODING 7839
SWIDTH 500 0
DWIDTH 6 0
BBX 6 9 0 0
BITMAP
1C
24
10
18
2C
4C
C8
D8
50
ENDCHAR
STARTCHAR 1EA0
ENCODING 7840
SWIDTH 666 0
DWIDTH 8 0
BBX 7 12 0 -3
BITMAP
02
06
06
0E
16
26
3E
46
86
00
30
30
ENDCHAR
STARTCHAR 1EA1
ENCODING 7841
SWIDTH 500 0
DWIDTH 6 0
BBX 6 9 0 -3
BITMAP
3C
68
48
D8
DC
F8
00
60
60
ENDCHAR
STARTCHAR 1EA2
ENCODING 7842
SWIDTH 666 0
DWIDTH 8 0
BBX 8 12 0 0
BITMAP
01
01
00
02
06
06
1E
26
3E
46
86
8E
ENDCHAR
STARTCHAR 1EA3
ENCODING 7843
SWIDTH 500 0
DWIDTH 6 0
BBX 6 9 0 0
BITMAP
1C
08
00
3C
68
48
D8
DC
F8
ENDCHAR
STARTCHAR 1EA4
ENCODING 7844
SWIDTH 666 0
DWIDTH 8 0
BBX 8 12 0 0
BITMAP
01
03
00
02
06
06
1E
26
3E
46
86
8E
ENDCHAR
STARTCHAR 1EA5
ENCODING 7845
SWIDTH 500 0
DWIDTH 6 0
BBX 6 12 0 0
BITMAP
0C
08
00
18
20
00
3C
68
48
D8
DC
F8
ENDCHAR
STARTCHAR 1EA6
ENCODING 7846
SWIDTH 666 0
DWIDTH 8 0
BBX 8 12 0 0
BITMAP
03
03
00
02
06
06
1E
26
3E
46
86
8E
ENDCHAR
STARTCHAR 1EA7
ENCODING 7847
SWIDTH 500 0
DWIDTH 6 0
BBX 6 12 0 0
BITMAP
08
00
00
18
20
00
3C
68
48
D8
DC
F8
ENDCHAR
STARTCHAR 1EA8
ENCODING 7848
SWIDTH 666 0
DWIDTH 8 0
BBX 8 12 0 0
BITMAP
01
00
06
02
06
06
1E
26
3E
46
86
8E
ENDCHAR
STARTCHAR 1EA9
ENCODING 7849
SWIDTH 500 0
DWIDTH 6 0
BBX 6 12 0 0
BITMAP
08
04
00
18
20
00
3C
68
48
D8
DC
F8
ENDCHAR
STARTCHAR 1EAA
ENCODING 7850
SWIDTH 666 0
DWIDTH 8 0
BBX 9 12 0 0
BITMAP
0380
0300
0000
0200
0600
0600
1E00
2600
3E00
4600
8600
8E00
ENDCHAR
STARTCHAR 1EAB
ENCODING 7851
SWIDTH 500 0
DWIDTH 6 0
BBX 6 12 0 0
BITMAP
18
2C
00
18
20
00
3C
68
48
D8
DC
F8
ENDCHAR
STARTCHAR 1EAC
ENCODING 7852
SWIDTH 666 0
DWIDTH 8 0
BBX 8 14 0 -3
BITMAP
03
04
02
06
06
0E
16
26
3E
46
86
00
30
30
ENDCHAR
STARTCHAR 1EAD
ENCODING 7853
SWIDTH 500 0
DWIDTH 6 0
BBX 6 12 0 -3
BITMAP
18
20
00
3C
68
48
D8
DC
F8
00
60
60
ENDCHAR
STARTCHAR 1EAE
ENCODING 7854
SWIDTH 666 0
DWIDTH 8 0
BBX 8 12 0 0
BITMAP
01
04
03
02
06
06
1E
26
3E
46
86
8E
ENDCHAR
STARTCHAR 1EAF
ENCODING 7855
SWIDTH 500 0
DWIDTH 6 0
BBX 6 12 0 0
BITMAP
08
08
00
20
38
00
3C
68
48
D8
DC
F8
ENDCHAR
STARTCHAR 1EB0
ENCODING 7856
SWIDTH 666 0
DWIDTH 8 0
BBX 8 12 0 0
BITMAP
02
04
03
02
06
06
1E
26
3E
46
86
8E
ENDCHAR
STARTCHAR 1EB1
ENCODING 7857
SWIDTH 500 0
DWIDTH 6 0
BBX 6 12 0 0
BITMAP
18
08
00
20
38
00
3C
68
48
D8
DC
F8
ENDCHAR
STARTCHAR 1EB2
ENCODING 7858
SWIDTH 666 0
DWIDTH 8 0
BBX 8 12 0 0
BITMAP
01
00
03
02
06
06
1E
26
3E
46
86
8E
ENDCHAR
STARTCHAR 1EB3
ENCODING 7859
SWIDTH 500 0
DWIDTH 6 0
BBX 6 12 0 0
BITMAP
08
08
00
20
38
00
3C
68
48
D8
DC
F8
ENDCHAR
STARTCHAR 1EB4
ENCODING 7860
SWIDTH 666 0
DWIDTH 8 0
BBX 9 12 0 0
BITMAP
0380
0400
0300
0200
0600
0600
1E00
2600
3E00
4600
8600
8E00
ENDCHAR
STARTCHAR 1EB5
ENCODING 7861
SWIDTH 500 0
DWIDTH 6 0
BBX 6 12 0 0
BITMAP
1C
1C
00
20
38
00
3C
68
48
D8
DC
F8
ENDCHAR
STARTCHAR 1EB6
ENCODING 7862
SWIDTH 666 0
DWIDTH 8 0
BBX 9 14 0 -3
BITMAP
0480
0300
0200
0600
0600
0E00
1600
2600
3E00
4600
8600
0000
3000
3000
ENDCHAR
STARTCHAR 1EB7
ENCODING 7863
SWIDTH 500 0
DWIDTH 6 0
BBX 6 12 0 -3
BITMAP
20
38
00
3C
68
48
D8
DC
F8
00
60
60
ENDCHAR
STARTCHAR 1EB8
ENCODING 7864
SWIDTH 666 0
DWIDTH 8 0
BBX 7 12 1 -3
BITMAP
3E
22
62
60
78
C8
C0
C4
FC
00
60
60
ENDCHAR
STARTCHAR 1EB9
ENCODING 7865
SWIDTH 416 0
DWIDTH 5 0
BBX 5 9 0 -3
BITMAP
18
68
50
E0
C8
70
00
60
60
ENDCHAR
STARTCHAR 1EBA
ENCODING 7866
SWIDTH 666 0
DWIDTH 8 0
BBX 7 12 1 0
BITMAP
0C
04
00
3E
22
62
60
78
C8
C0
C4
FC
ENDCHAR
STARTCHAR 1EBB
ENCODING 7867
SWIDTH 416 0
DWIDTH 5 0
BBX 6 9 0 0
BITMAP
1C
08
00
18
68
50
E0
C8
70
ENDCHAR
STARTCHAR 1EBC
ENCODING 7868
SWIDTH 666 0
DWIDTH 8 0
BBX 7 11 1 1
BITMAP
1C
00
3E
22
62
60
78
C8
C0
C4
FC
ENDCHAR
STARTCHAR 1EBD
ENCODING 7869
SWIDTH 416 0
DWIDTH 5 0
BBX 6 9 0 0
BITMAP
14
2C
00
18
68
50
E0
C8
70
ENDCHAR
STARTCHAR 1EBE
ENCODING 7870
SWIDTH 666 0
DWIDTH 8 0
BBX 7 12 1 0
BITMAP
04
0C
00
3E
22
62
60
78
C8
C0
C4
FC
ENDCHAR
STARTCHAR 1EBF
ENCODING 7871
SWIDTH 416 0
DWIDTH 5 0
BBX 6 12 0 0
BITMAP
0C
08
00
18
28
00
18
68
50
E0
C8
70
ENDCHAR
STARTCHAR 1EC0
ENCODING 7872
SWIDTH 666 0
DWIDTH 8 0
BBX 7 12 1 0
BITMAP
0C
0C
00
3E
22
62
60
78
C8
C0
C4
FC
ENDCHAR
STARTCHAR 1EC1
ENCODING 7873
SWIDTH 416 0
DWIDTH 5 0
BBX 5 12 0 0
BITMAP
18
08
00
18
28
00
18
68
50
E0
C8
70
ENDCHAR
STARTCHAR 1EC2
ENCODING 7874
SWIDTH 666 0
DWIDTH 8 0
BBX 7 12 1 0
BITMAP
04
00
08
3E
22
62
60
78
C8
C0
C4
FC
ENDCHAR
STARTCHAR 1EC3
ENCODING 7875
SWIDTH 416 0
DWIDTH 5 0
BBX 5 12 0 0
BITMAP
08
00
00
18
28
00
18
68
50
E0
C8
70
ENDCHAR
STARTCHAR 1EC4
ENCODING 7876
SWIDTH 666 0
DWIDTH 8 0
BBX 7 12 1 0
BITMAP
1E
0C
00
3E
22
62
60
78
C8
C0
C4
FC
ENDCHAR
STARTCHAR 1EC5
ENCODING 7877
SWIDTH 416 0
DWIDTH 5 0
BBX 6 12 0 0
BITMAP
1C
1C
00
18
28
00
18
68
50
E0
C8
70
ENDCHAR
STARTCHAR 1EC6
ENCODING 7878
SWIDTH 666 0
DWIDTH 8 0
BBX 7 14 1 -3
BITMAP
08
00
3E
22
62
60
78
C8
C0
C4
FC
00
60
60
ENDCHAR
STARTCHAR 1EC7
ENCODING 7879
SWIDTH 416 0
DWIDTH 5 0
BBX 5 12 0 -3
BITMAP
18
28
00
18
68
50
E0
C8
70
00
60
60
ENDCHAR
STARTCHAR 1EC8
ENCODING 7880
SWIDTH 416 0
DWIDTH 5 0
BBX 5 12 0 0
BITMAP
08
08
00
38
30
30
30
30
60
60
60
E0
ENDCHAR
STARTCHAR 1EC9
ENCODING 7881
SWIDTH 250 0
DWIDTH 3 0
BBX 4 9 0 0
BITMAP
10
00
00
60
60
40
40
C0
C0
ENDCHAR
STARTCHAR 1ECA
ENCODING 7882
SWIDTH 416 0
DWIDTH 5 0
BBX 5 12 0 -3
BITMAP
38
30
30
30
30
60
60
60
E0
00
C0
C0
ENDCHAR
STARTCHAR 1ECB
ENCODING 7883
SWIDTH 250 0
DWIDTH 3 0
BBX 3 12 0 -3
BITMAP
20
20
00
60
60
40
40
C0
C0
00
C0
C0
ENDCHAR
STARTCHAR 1ECC
ENCODING 7884
SWIDTH 750 0
DWIDTH 9 0
BBX 8 12 1 -3
BITMAP
1C
22
63
C3
C6
C6
C4
CC
78
00
60
60
ENDCHAR
STARTCHAR 1ECD
ENCODING 7885
SWIDTH 500 0
DWIDTH 6 0
BBX 6 9 0 -3
BITMAP
38
6C
4C
C8
D8
50
20
60
60
ENDCHAR
STARTCHAR 1ECE
ENCODING 7886
SWIDTH 750 0
DWIDTH 9 0
BBX 8 12 1 0
BITMAP
04
00
00
1C
22
63
C3
C6
C6
C4
CC
70
ENDCHAR
STARTCHAR 1ECF
ENCODING 7887
SWIDTH 500 0
DWIDTH 6 0
BBX 6 9 0 0
BITMAP
1C
08
00
38
6C
4C
C8
D8
50
ENDCHAR
STARTCHAR 1ED0
ENCODING 7888
SWIDTH 750 0
DWIDTH 9 0
BBX 8 12 1 0
BITMAP
04
0C
00
1C
22
63
C3
C6
C6
C4
CC
70
ENDCHAR
STARTCHAR 1ED1
ENCODING 7889
SWIDTH 500 0
DWIDTH 6 0
BBX 6 12 0 0
BITMAP
0C
08
00
18
20
00
38
6C
4C
C8
D8
50
ENDCHAR
STARTCHAR 1ED2
ENCODING 7890
SWIDTH 750 0
DWIDTH 9 0
BBX 8 12 1 0
BITMAP
04
0C
00
1C
22
63
C3
C6
C6
C4
CC
70
ENDCHAR
STARTCHAR 1ED3
ENCODING 7891
SWIDTH 500 0
DWIDTH 6 0
BBX 6 12 0 0
BITMAP
08
00
00
18
20
00
38
6C
4C
C8
D8
50
ENDCHAR
STARTCHAR 1ED4
ENCODING 7892
SWIDTH 750 0
DWIDTH 9 0
BBX 8 12 1 0
BITMAP
04
00
18
1C
22
63
C3
C6
C6
C4
CC
70
ENDCHAR
STARTCHAR 1ED5
ENCODING 7893
SWIDTH 500 0
DWIDTH 6 0
BBX 6 12 0 0
BITMAP
08
04
00
18
20
00
38
6C
4C
C8
D8
50
ENDCHAR
STARTCHAR 1ED6
ENCODING 7894
SWIDTH 750 0
DWIDTH 9 0
BBX 8 12 1 0
BITMAP
0E
0C
00
1C
22
63
C3
C6
C6
C4
CC
70
ENDCHAR
STARTCHAR 1ED7
ENCODING 7895
SWIDTH 500 0
DWIDTH 6 0
BBX 7 12 0 0
BITMAP
1E
1C
00
18
20
00
38
6C
4C
C8
D8
50
ENDCHAR
STARTCHAR 1ED8
ENCODING 7896
SWIDTH 750 0
DWIDTH 9 0
BBX 8 14 1 -3
BITMAP
04
18
1C
22
63
C3
C6
C6
C4
CC
78
00
60
60
ENDCHAR
STARTCHAR 1ED9
ENCODING 7897
SWIDTH 500 0
DWIDTH 6 0
BBX 6 12 0 -3
BITMAP
18
20
00
38
6C
4C
C8
D8
50
20
60
60
ENDCHAR
STARTCHAR 1EDA
ENCODING 7898
SWIDTH 750 0
DWIDTH 9 0
BBX 9 12 1 0
BITMAP
0600
0400
0800
1C80
2300
6300
C300
C600
C600
C400
CC00
7000
ENDCHAR
STARTCHAR 1EDB
ENCODING 7899
SWIDTH 500 0
DWIDTH 6 0
BBX 7 9 0 0
BITMAP
0C
08
02
3E
6C
48
C8
D8
60
ENDCHAR
STARTCHAR 1EDC
ENCODING 7900
SWIDTH 750 0
DWIDTH 9 0
BBX 9 12 1 0
BITMAP
0800
0800
0400
1C80
2300
6300
C300
C600
C600
C400
CC00
7000
ENDCHAR
STARTCHAR 1EDD
ENCODING 7901
SWIDTH 500 0
DWIDTH 6 0
BBX 7 9 0 0
BITMAP
10
08
02
3E
6C
48
C8
D8
60
ENDCHAR
STARTCHAR 1EDE
ENCODING 7902
SWIDTH 750 0
DWIDTH 9 0
BBX 9 12 1 0
BITMAP
0400
0000
0000
1C80
2300
6300
C300
C600
C600
C400
CC00
7000
ENDCHAR
STARTCHAR 1EDF
ENCODING 7903
SWIDTH 500 0
DWIDTH 6 0
BBX 7 9 0 0
BITMAP
1C
08
02
3E
6C
48
C8
D8
60
ENDCHAR
ENDFONT
